<svg width="204" height="223" viewBox="0 0 204 223" fill="none" xmlns="http://www.w3.org/2000/svg">
<path d="M33.8627 86.6716C40.4394 116.475 54.2943 152.256 60.2572 158.058C67.7985 165.443 118.132 179.246 120.588 179.509C126.814 180.213 139.616 135.376 132.952 134.321C122.868 132.827 86.2133 130.541 84.0211 128.255C81.7412 125.881 66.3955 106.189 50.6114 83.9463C39.9132 68.6492 29.8289 68.2096 33.8627 86.6716Z" fill="#EB9481"/>
<path d="M115.765 177.048C116.466 177.399 126.989 182.85 133.478 184.784C138.301 186.191 152.419 190.059 154.524 184.784C156.014 181.268 147.947 178.015 142.335 175.641C139.353 174.41 135.758 171.245 136.635 169.311C138.213 165.971 145.842 169.399 150.841 172.388C160.486 178.103 173.377 188.389 179.34 183.465C181.62 181.619 178.989 178.191 175.218 174.85C181.357 178.806 187.933 181.971 190.564 180.037C192.055 178.894 192.142 177.399 191.353 175.641C193.282 176.257 194.948 176.169 196.088 174.938C198.105 172.828 197.141 169.751 194.948 166.498C195.65 166.41 196.264 166.058 196.79 165.267C201.087 158.762 179.954 139.948 172.588 138.19C150.928 132.827 128.129 133.706 128.129 133.706C119.535 140.475 115.677 177.048 115.765 177.048Z" fill="#EB9481"/>
<path d="M147.772 157.354C152.858 158.234 157.857 160.168 162.153 163.069C167.59 166.761 171.273 170.981 175.833 175.377C175.921 175.465 175.745 175.641 175.658 175.553C173.465 173.531 164.433 165.794 162.066 164.036C157.769 160.783 152.946 158.585 147.685 157.53C147.685 157.442 147.685 157.354 147.772 157.354Z" fill="#263238"/>
<path d="M151.805 148.124C157.505 149.706 163.292 151.377 168.554 154.102C174.341 157.091 178.813 161.927 183.198 166.586C185.829 169.399 188.459 172.213 191.002 175.202C191.09 175.29 190.915 175.553 190.827 175.377C186.355 170.542 181.707 165.883 176.972 161.311C172.5 157.003 167.502 153.751 161.714 151.553C158.469 150.322 155.137 149.267 151.805 148.212C151.717 148.212 151.805 148.124 151.805 148.124Z" fill="#263238"/>
<path d="M157.944 140.124C163.468 141.266 168.291 142.321 173.202 145.31C179.691 149.267 185.829 155.948 188.021 158.322C190.389 160.959 192.757 163.597 195.037 166.322C195.124 166.41 194.949 166.586 194.861 166.498C189.688 160.52 184.075 154.893 178.113 149.618C175.307 147.157 172.15 144.959 168.73 143.376C165.31 141.97 161.627 141.091 157.944 140.124Z" fill="#263238"/>
<path d="M124.621 131.86L108.749 181.004C108.749 181.004 66.8339 168.696 59.2926 160.344C51.6636 151.992 37.8086 109.09 33.8626 88.342C29.8289 67.5942 40.3516 68.1217 49.8221 81.3089C59.3803 94.496 83.0564 126.321 84.3718 127.024C85.6871 127.728 124.621 131.86 124.621 131.86Z" fill="#FFB048"/>
<path d="M37.8096 96.0785C37.4588 95.9906 37.1958 95.9027 36.9327 95.8148C36.4942 95.4631 36.1435 95.0235 36.2312 94.4081C36.2312 93.529 35.6173 92.7377 34.8281 92.474C34.7404 92.474 34.6528 92.3861 34.5651 92.3861C34.6528 92.6498 34.6528 92.9136 34.7404 93.2652C35.0912 93.529 35.2666 93.9686 35.2666 94.4081C35.2666 95.1994 35.7927 96.0785 36.5819 96.3422C36.9327 96.5181 37.3711 96.5181 37.7219 96.4302C38.0726 96.3422 38.4234 96.3422 38.7742 96.2543C38.5111 96.1664 38.1603 96.0785 37.8096 96.0785ZM113.223 139.684C112.872 139.596 112.609 139.596 112.346 139.42C111.82 139.069 111.556 138.629 111.556 138.014C111.556 137.135 110.943 136.343 110.153 136.08C109.803 135.904 109.364 135.904 109.013 135.992C108.663 136.08 108.312 136.08 107.961 136.167C108.312 136.255 108.663 136.343 109.013 136.343C109.364 136.343 109.627 136.431 109.89 136.607C110.329 136.871 110.68 137.398 110.68 137.926C110.68 138.717 111.206 139.596 111.995 139.86C112.346 140.036 112.784 140.036 113.135 139.948C113.486 139.86 113.836 139.86 114.187 139.772C113.924 139.772 113.573 139.772 113.223 139.684ZM45.6139 125.618C45.2632 125.618 45.0001 125.53 44.737 125.354C44.2109 125.002 43.9478 124.563 44.0355 123.947C44.0355 123.156 43.5094 122.365 42.8079 122.101C43.1586 123.332 43.5971 124.475 43.9478 125.706C44.1232 125.794 44.2109 125.881 44.3863 125.969C44.7371 126.145 45.1755 126.145 45.5263 126.057C45.877 125.969 46.2278 125.969 46.5785 125.881C46.3155 125.706 45.9647 125.618 45.6139 125.618ZM93.2294 171.861C92.8786 171.773 92.6155 171.685 92.3525 171.597C91.914 171.245 91.5633 170.806 91.5633 170.19C91.5633 169.311 90.9494 168.52 90.1602 168.256C89.8095 168.08 89.371 168.08 89.0203 168.168C88.6695 168.256 88.3188 168.256 87.968 168.344C88.3188 168.432 88.6695 168.52 89.0203 168.52C89.371 168.52 89.6341 168.608 89.8972 168.784C90.4233 169.047 90.6864 169.575 90.6864 170.102C90.6864 170.894 91.2125 171.773 92.0017 172.037C92.3525 172.212 92.7909 172.212 93.1417 172.124C93.4924 172.037 93.8432 172.037 94.194 171.949C93.9309 171.949 93.5801 171.949 93.2294 171.861ZM74.3761 143.64C74.0254 143.64 73.7623 143.552 73.4992 143.376C73.0608 143.025 72.71 142.585 72.7977 141.97C72.7977 141.091 72.1839 140.299 71.3947 140.036C71.0439 139.86 70.6055 139.86 70.2547 139.948C69.904 140.036 69.5532 140.036 69.2024 140.124C69.5532 140.212 69.904 140.299 70.2547 140.299C70.6055 140.299 70.8685 140.387 71.1316 140.563C71.6577 140.827 71.9208 141.354 71.9208 141.882C71.9208 142.673 72.4469 143.552 73.2361 143.816C73.5869 143.992 74.0254 143.992 74.3761 143.904C74.7269 143.816 75.0776 143.816 75.4284 143.728C75.0776 143.728 74.7269 143.64 74.3761 143.64ZM70.0793 121.75C69.8163 122.013 69.5532 122.101 69.2901 122.189C68.764 122.277 68.1502 122.189 67.7994 121.75C67.1856 121.134 66.221 120.958 65.5195 121.31C65.1687 121.486 64.818 121.75 64.6426 122.013C64.4672 122.277 64.2041 122.541 64.0287 122.892C64.3795 122.717 64.6426 122.541 64.9056 122.277C65.1687 122.101 65.4318 121.925 65.6949 121.837C66.3087 121.75 66.8348 121.925 67.1856 122.277C67.7994 122.892 68.764 123.068 69.5532 122.717C69.9039 122.541 70.2547 122.189 70.4301 121.925C70.6055 121.662 70.8685 121.398 71.0439 121.046C70.6932 121.398 70.3424 121.574 70.0793 121.75ZM111.907 159.729C111.82 159.377 111.82 159.025 111.732 158.674C111.644 159.025 111.644 159.377 111.556 159.729C111.556 160.08 111.469 160.344 111.293 160.608C111.03 161.135 110.504 161.399 109.978 161.399C109.189 161.399 108.312 161.926 108.049 162.718C107.874 163.069 107.874 163.509 107.961 163.861C108.049 164.212 108.049 164.564 108.137 164.915C108.224 164.564 108.312 164.212 108.312 163.861C108.4 163.509 108.4 163.245 108.575 162.981C108.926 162.542 109.364 162.19 109.978 162.278C110.855 162.278 111.644 161.663 111.907 160.871C111.995 160.52 111.907 160.08 111.907 159.729ZM87.6172 127.552C87.4419 127.728 87.2665 127.991 87.1788 128.167C87.0034 128.519 87.0034 128.958 87.0911 129.31C87.1788 129.662 87.1788 130.013 87.2665 130.365C87.3542 130.013 87.4419 129.662 87.4419 129.31C87.4419 128.958 87.5295 128.695 87.7049 128.431C87.968 127.991 88.4941 127.728 89.0203 127.728C88.5818 127.728 88.0557 127.64 87.6172 127.552ZM57.5397 104.167C57.452 103.815 57.452 103.463 57.3643 103.112C57.2767 103.463 57.189 103.815 57.189 104.167C57.189 104.518 57.1013 104.782 56.9259 105.046C56.6628 105.573 56.1367 105.837 55.6106 105.837C54.7337 105.837 53.9445 106.364 53.5937 107.156C53.4183 107.507 53.4183 107.947 53.506 108.299C53.5937 108.65 53.5937 109.002 53.6814 109.354C53.7691 109.002 53.8568 108.65 53.8568 108.299C53.8568 107.947 53.9445 107.683 54.1198 107.419C54.4706 106.98 54.909 106.628 55.5229 106.716C56.3998 106.716 57.189 106.101 57.452 105.31C57.6274 104.958 57.6274 104.518 57.5397 104.167ZM51.5768 83.8584C51.2261 83.8584 50.8753 83.8584 50.5246 84.0342C50.1738 84.2101 49.823 84.4738 49.6477 84.8255C49.4723 85.0892 49.2092 85.4409 49.0338 85.7046C49.2969 85.5288 49.6477 85.3529 49.9107 85.0892C50.1738 84.8255 50.4369 84.7375 50.6999 84.6496C51.2261 84.4738 51.8399 84.6496 52.1907 85.0013C52.366 85.1771 52.4537 85.265 52.6291 85.3529C52.366 84.8255 51.9276 84.298 51.5768 83.8584ZM53.1553 143.552C52.8922 143.728 52.6291 143.904 52.366 143.904C51.7522 143.992 51.2261 143.816 50.8753 143.464C50.6999 143.289 50.6122 143.201 50.4369 143.113C50.6122 143.64 50.7876 144.08 51.0507 144.519C51.5768 144.695 52.1907 144.783 52.6291 144.519C52.9799 144.344 53.3306 144.08 53.506 143.816C53.6814 143.552 53.9445 143.289 54.1198 142.937C53.6814 143.113 53.4183 143.289 53.1553 143.552ZM97.4385 148.739C97.1754 148.915 96.9123 149.091 96.6493 149.091C96.1231 149.179 95.5093 149.003 95.1585 148.651C94.5447 148.036 93.5801 147.86 92.7909 148.212C92.4402 148.388 92.0894 148.739 91.914 149.003C91.7386 149.267 91.4756 149.53 91.3002 149.882C91.651 149.706 91.914 149.53 92.1771 149.267C92.4402 149.003 92.7032 148.915 92.9663 148.827C93.4924 148.651 94.1063 148.827 94.457 149.179C95.0708 149.794 96.0354 149.97 96.7369 149.706C97.0877 149.53 97.4385 149.267 97.6138 149.003C97.7892 148.739 98.0523 148.475 98.2277 148.124C97.9646 148.3 97.7015 148.563 97.4385 148.739ZM78.4098 159.025C78.1468 159.201 77.8837 159.377 77.6206 159.465C77.0945 159.553 76.4807 159.377 76.1299 159.025C75.5161 158.41 74.5515 158.234 73.7623 158.586C73.4115 158.761 73.0608 159.025 72.8854 159.377C72.71 159.641 72.4469 159.992 72.2716 160.256C72.6223 160.08 72.8854 159.904 73.1485 159.641C73.4115 159.377 73.6746 159.289 73.9377 159.201C74.4638 159.113 75.0776 159.201 75.4284 159.553C76.0422 160.168 77.0068 160.344 77.7083 160.08C78.0591 159.904 78.4098 159.641 78.5852 159.377C78.7606 159.113 79.0237 158.761 79.199 158.498C79.0237 158.586 78.6729 158.849 78.4098 159.025Z" fill="white"/>
<path d="M104.102 158.498C105.856 153.047 107.698 147.508 109.364 141.97C110.241 138.805 111.205 135.64 112.082 132.475C112.082 132.387 111.907 132.299 111.907 132.387C109.89 137.838 107.873 143.288 106.119 148.827C104.365 154.366 102.524 159.816 100.858 165.355C99.8932 168.52 99.0163 171.685 98.2271 174.85C98.2271 174.938 98.3147 174.938 98.3147 174.85C100.507 169.575 102.348 164.036 104.102 158.498Z" fill="#263238"/>
<path d="M87.6166 174.059C87.0027 173.795 86.3889 173.619 85.7751 173.355C82.2675 172.037 78.7599 170.718 75.4277 169.311C74.9893 169.135 74.5508 168.96 74.1124 168.784C73.4109 168.52 72.797 168.168 72.0955 167.905C71.7448 167.729 71.4817 167.641 71.1309 167.465C71.0432 167.377 70.8679 167.377 70.7802 167.289C70.4294 167.113 70.0787 166.938 69.8156 166.85C68.5002 166.234 67.1849 165.619 66.0449 165.004C65.7819 164.828 65.5188 164.74 65.2557 164.564C63.1512 163.421 61.3097 162.19 60.082 161.135C59.9067 160.959 59.819 160.872 59.6436 160.696C59.4682 160.52 59.3805 160.432 59.2928 160.344C51.6638 151.992 37.8089 109.09 33.8629 88.3421C33.7752 88.0784 33.7752 87.9026 33.6875 87.6388C33.6875 87.5509 33.6875 87.5509 33.6875 87.463C33.4244 85.8805 33.1613 83.9464 32.986 81.8365C32.4598 71.5505 37.3704 69.8801 43.3333 74.4517C58.1529 106.804 80.7768 160.344 87.6166 174.059Z" fill="#263238"/>
<path d="M103.123 222.075L0 221.963C0.263069 219.386 29.2883 96.3413 49.1062 75.2736C57.5244 66.3086 73.0454 72.9203 74.9746 74.9374C94.0909 94.8845 104.526 220.618 103.123 222.075Z" fill="#FFB048"/>
<path d="M28.0606 124.581C27.7976 124.805 27.5345 125.029 27.2714 125.141C27.0961 125.253 26.833 125.253 26.6576 125.141C26.5699 125.477 26.4822 125.814 26.3068 126.15C26.7453 126.262 27.0961 126.262 27.4468 126.038C27.7976 125.814 28.1483 125.477 28.3237 125.141C28.4991 124.805 28.7622 124.357 28.9375 124.021C28.5868 124.133 28.3237 124.357 28.0606 124.581ZM31.1298 206.722C30.8667 206.947 30.6036 207.171 30.3406 207.171C29.8144 207.283 29.2006 207.059 28.8498 206.61C28.236 205.826 27.2714 205.602 26.4822 206.05C26.1315 206.274 25.7807 206.722 25.6053 207.059C25.43 207.395 25.1669 207.731 24.9915 208.179C25.3423 207.955 25.6053 207.731 25.8684 207.395C26.1315 207.059 26.3945 206.947 26.6576 206.835C27.1837 206.61 27.7976 206.835 28.1483 207.283C28.6745 208.067 29.7267 208.291 30.4283 207.955C30.779 207.731 31.1298 207.395 31.3052 207.059C31.4805 206.722 31.7436 206.386 31.919 205.938C31.7436 206.274 31.4805 206.498 31.1298 206.722ZM70.2393 201.119C69.9763 201.343 69.7132 201.568 69.4501 201.68C68.8363 201.792 68.3102 201.568 67.9594 201.119C67.3456 200.335 66.381 200.111 65.5918 200.559C65.241 200.783 64.8903 201.231 64.7149 201.568C64.5395 201.904 64.2764 202.24 64.1011 202.688C64.4518 202.464 64.7149 202.24 64.9779 201.904C65.241 201.568 65.5041 201.456 65.7672 201.343C66.2933 201.119 66.9071 201.343 67.2579 201.904C67.8717 202.688 68.8363 202.912 69.5378 202.576C69.8886 202.352 70.2393 202.016 70.4147 201.68C70.5901 201.343 70.8531 200.895 71.0285 200.559C70.8531 200.559 70.5901 200.895 70.2393 201.119ZM87.5142 166.38C87.2511 166.604 86.988 166.828 86.725 166.828C86.1111 166.94 85.585 166.716 85.2342 166.268C84.6204 165.484 83.6558 165.259 82.8666 165.708C82.5159 165.932 82.1651 166.38 81.9897 166.716C81.8143 167.052 81.5513 167.389 81.3759 167.837C81.7267 167.613 81.9897 167.389 82.2528 167.052C82.5159 166.716 82.7789 166.604 83.042 166.492C83.5681 166.268 84.182 166.492 84.5327 167.052C85.1466 167.837 86.1111 168.061 86.8127 167.613C87.1634 167.389 87.5142 167.052 87.6895 166.716C87.8649 166.38 88.128 166.044 88.3034 165.596C88.0403 165.82 87.7772 166.044 87.5142 166.38ZM50.7722 220.842C50.5092 221.066 50.2461 221.291 49.983 221.403C49.4569 221.515 48.8431 221.291 48.4923 220.842C47.8785 220.058 46.9139 219.834 46.1247 220.282C45.7739 220.506 45.4232 220.954 45.2478 221.291C45.0724 221.515 44.9847 221.851 44.8093 222.075H45.0724C45.2478 221.963 45.4232 221.851 45.5109 221.627C45.7739 221.291 46.037 221.179 46.3001 221.066C46.8262 220.842 47.44 221.066 47.7908 221.515C47.9662 221.739 48.0539 221.851 48.2292 221.963H50.3338C50.5969 221.739 50.8599 221.515 50.9476 221.179C51.123 220.842 51.3861 220.394 51.5614 220.058C51.3861 220.282 51.123 220.618 50.7722 220.842ZM42.6171 171.199C42.354 171.423 42.091 171.647 41.8279 171.647C41.3018 171.759 40.6879 171.535 40.3372 171.087C39.7234 170.302 38.7588 170.078 37.9696 170.526C37.6188 170.75 37.268 171.199 37.0927 171.535C36.9173 171.871 36.6542 172.319 36.4788 172.656C36.8296 172.431 37.0927 172.207 37.3557 171.871C37.6188 171.535 37.8819 171.423 38.1449 171.311C38.6711 171.087 39.2849 171.311 39.6357 171.759C40.1618 172.544 41.2141 172.768 41.9156 172.431C42.2663 172.207 42.6171 171.871 42.7925 171.423C42.9679 171.087 43.2309 170.751 43.4063 170.302C43.1432 170.751 42.8802 170.975 42.6171 171.199ZM65.0656 124.581C64.8026 124.805 64.5395 125.029 64.2764 125.141C63.6626 125.253 63.1365 125.029 62.7857 124.581C62.1719 123.796 61.2073 123.572 60.4181 124.021C60.0673 124.245 59.7166 124.693 59.5412 125.029C59.3658 125.365 59.1027 125.701 58.9274 126.15C59.2781 125.926 59.5412 125.701 59.8043 125.365C60.0673 125.029 60.3304 124.917 60.5935 124.805C61.1196 124.581 61.7334 124.805 62.0842 125.365C62.698 126.15 63.6626 126.374 64.3641 125.926C64.7149 125.701 65.0656 125.365 65.241 125.029C65.4164 124.693 65.6795 124.245 65.8548 123.908C65.6795 124.133 65.3287 124.357 65.0656 124.581ZM83.6558 92.3069C83.5681 92.419 83.5681 92.5311 83.4804 92.6431C83.5681 92.6431 83.6558 92.5311 83.6558 92.419C83.6558 92.3069 83.6558 92.3069 83.6558 92.3069ZM7.97973 191.258C7.89204 190.81 7.89204 190.361 7.80435 189.913C7.71666 190.361 7.62897 190.81 7.62897 191.258C7.62897 191.706 7.54128 192.042 7.3659 192.379C7.27821 192.603 7.19052 192.715 7.10283 192.827C7.01514 193.275 6.83976 193.835 6.75208 194.284C7.3659 194.059 7.80435 193.387 8.06742 192.715C8.06742 192.266 8.06742 191.706 7.97973 191.258ZM47.5277 194.844C47.44 194.396 47.44 193.947 47.3523 193.499C47.2647 193.947 47.177 194.396 47.177 194.844C47.177 195.292 47.0893 195.628 46.9139 195.965C46.6508 196.637 46.1247 196.973 45.5986 196.973C44.8093 196.973 43.9325 197.645 43.5817 198.654C43.4063 199.102 43.4063 199.663 43.494 200.111C43.5817 200.559 43.5817 201.007 43.6694 201.456C43.7571 201.007 43.8448 200.559 43.8448 200.111C43.8448 199.663 43.9324 199.326 44.1078 198.99C44.4586 198.43 44.9847 197.982 45.5109 198.094C46.3878 198.094 47.177 197.309 47.44 196.301C47.6154 195.852 47.6154 195.292 47.5277 194.844ZM90.3202 118.193C90.1449 118.305 89.9695 118.305 89.7941 118.305C88.9172 118.305 88.128 118.978 87.7772 119.986C87.6019 120.435 87.6019 120.995 87.6895 121.443C87.7772 121.891 87.7772 122.34 87.8649 122.788C87.9526 122.34 88.0403 121.891 88.0403 121.443C88.0403 120.995 88.128 120.659 88.3034 120.322C88.6541 119.762 89.0926 119.314 89.7064 119.426C89.9695 119.426 90.1449 119.314 90.4079 119.202C90.4956 118.866 90.4079 118.53 90.3202 118.193ZM43.9324 106.763C43.8448 106.315 43.8448 105.866 43.7571 105.418C43.6694 105.866 43.5817 106.315 43.5817 106.763C43.5817 107.211 43.494 107.547 43.3186 107.884C43.0556 108.556 42.5294 108.892 42.0033 108.892C41.2141 108.892 40.3372 109.565 40.0741 110.573C39.8987 111.021 39.8987 111.582 39.9864 112.03C40.0741 112.478 40.0741 112.926 40.1618 113.375C40.2495 112.926 40.3372 112.478 40.3372 112.03C40.3372 111.582 40.5126 111.245 40.6002 110.909C40.951 110.349 41.3895 109.901 42.0033 110.013C42.8802 110.013 43.6694 109.228 43.9324 108.22C44.0201 107.772 43.9324 107.099 43.9324 106.763ZM27.4468 151.7C27.3591 151.252 27.3591 150.803 27.2714 150.355C27.1837 150.803 27.0961 151.252 27.0961 151.7C27.0961 152.148 27.0084 152.484 26.833 152.821C26.5699 153.493 26.0438 153.829 25.5176 153.829C24.7284 153.829 23.8515 154.501 23.5885 155.51C23.4131 155.958 23.4131 156.519 23.5008 156.967C23.5885 157.415 23.5885 157.863 23.6762 158.312C23.7639 157.863 23.8515 157.415 23.8515 156.967C23.8515 156.519 23.9392 156.182 24.1146 155.846C24.4654 155.174 24.9038 154.838 25.5176 154.838C26.3945 154.838 27.1837 154.053 27.4468 153.045C27.5345 152.708 27.5345 152.148 27.4468 151.7ZM102.597 208.628C102.334 208.74 102.071 208.852 101.895 208.852C101.106 208.852 100.229 209.524 99.9661 210.533C99.7907 210.981 99.7907 211.541 99.8784 211.989C99.9661 212.438 99.9661 212.886 100.054 213.334C100.141 212.886 100.229 212.438 100.229 211.989C100.317 211.541 100.405 211.205 100.492 210.869C100.843 210.308 101.281 209.86 101.895 209.972C102.158 209.972 102.421 209.86 102.684 209.748C102.684 209.412 102.597 209.076 102.597 208.628ZM61.0319 149.01C60.9442 148.562 60.9442 148.114 60.8565 147.666C60.7688 148.114 60.6812 148.562 60.6812 149.01C60.6812 149.459 60.5935 149.795 60.4181 150.131C60.155 150.803 59.6289 151.14 59.1027 151.14C58.3135 151.14 57.4366 151.812 57.1736 152.821C56.9982 153.269 56.9982 153.829 57.0859 154.277C57.1736 154.726 57.1736 155.174 57.2613 155.622C57.349 155.174 57.4366 154.726 57.4366 154.277C57.5243 153.829 57.612 153.493 57.6997 153.157C58.0505 152.596 58.4889 152.148 59.1027 152.26C59.9796 152.26 60.7688 151.476 61.0319 150.467C61.1196 149.907 61.1196 149.347 61.0319 149.01ZM68.7486 71.9116C68.7486 72.0237 68.6609 72.1357 68.5732 72.2478C68.3102 72.8081 67.784 73.2564 67.2579 73.2564C66.4687 73.2564 65.5918 73.9287 65.3287 74.9373C65.1533 75.3855 65.1533 75.9459 65.241 76.3941C65.3287 76.8424 65.3287 77.2906 65.4164 77.7389C65.5041 77.2906 65.5918 76.8424 65.5918 76.3941C65.5918 75.9459 65.7672 75.6097 65.8548 75.2735C66.2056 74.7132 66.6441 74.2649 67.2579 74.377C68.1348 74.377 68.924 73.5926 69.187 72.584C69.2747 72.3599 69.2747 72.2478 69.2747 72.0237C69.0994 72.0237 68.924 72.0237 68.7486 71.9116ZM53.4029 87.8245C53.1399 88.1606 52.8768 88.2727 52.6137 88.3848C52.0876 88.6089 51.4738 88.3848 51.123 87.8245C50.5092 87.04 49.5446 86.8159 48.8431 87.1521C48.4923 87.3762 48.1416 87.7124 47.9662 88.1606C47.7908 88.4968 47.5277 88.833 47.3523 89.2813C47.7031 89.0571 47.9662 88.833 48.2292 88.4968C48.4923 88.2727 48.7554 88.0486 49.0184 87.9365C49.5446 87.8245 50.1584 88.0486 50.5092 88.4968C51.123 89.2813 52.0876 89.5054 52.8768 89.0571C53.2275 88.833 53.5783 88.3848 53.7537 88.0486C53.9291 87.7124 54.1921 87.2641 54.3675 86.928C54.0168 87.2641 53.7537 87.6003 53.4029 87.8245ZM79.9729 143.519C79.6221 143.519 79.359 143.407 79.096 143.183C78.5698 142.735 78.3068 142.175 78.3945 141.39C78.3945 140.27 77.7806 139.261 76.9914 138.925C76.6407 138.701 76.2022 138.701 75.8515 138.813C75.5007 138.925 75.1499 138.925 74.7992 139.037C75.1499 139.149 75.5007 139.261 75.8515 139.261C76.2022 139.261 76.4653 139.373 76.7284 139.597C77.2545 139.933 77.5176 140.606 77.5176 141.278C77.5176 142.287 78.0437 143.407 78.8329 143.744C79.1837 143.968 79.6221 143.968 79.9729 143.856C80.3236 143.744 80.6744 143.743 81.0251 143.631C80.6744 143.631 80.3236 143.519 79.9729 143.519ZM25.6053 187.336C25.2546 187.224 24.9915 187.224 24.7284 187C24.29 186.551 23.9392 185.991 24.0269 185.207C24.0269 184.086 23.4131 183.077 22.6239 182.741C22.2731 182.517 21.8347 182.517 21.4839 182.629C21.1332 182.741 20.7824 182.741 20.4316 182.853C20.7824 182.965 21.1332 183.077 21.4839 183.077C21.8347 183.077 22.0977 183.189 22.3608 183.414C22.7993 183.75 23.15 184.422 23.15 185.094C23.15 186.103 23.6762 187.224 24.4654 187.56C24.8161 187.784 25.2546 187.784 25.6053 187.672C25.9561 187.56 26.3068 187.56 26.6576 187.448C26.3068 187.448 25.9561 187.448 25.6053 187.336ZM62.8734 179.491C62.5226 179.379 62.2596 179.379 61.9965 179.155C61.5581 178.707 61.2073 178.147 61.295 177.362C61.295 176.242 60.6812 175.233 59.892 174.897C59.5412 174.673 59.1027 174.673 58.752 174.785C58.4012 174.897 58.0505 174.897 57.6997 175.009C58.0505 175.121 58.4012 175.121 58.752 175.233C59.1027 175.345 59.3658 175.345 59.6289 175.569C60.155 175.905 60.4181 176.578 60.4181 177.25C60.4181 178.259 60.9442 179.379 61.7334 179.715C62.0842 179.94 62.5226 179.94 62.8734 179.828C63.2242 179.715 63.5749 179.715 63.9257 179.603C63.5749 179.603 63.2242 179.603 62.8734 179.491ZM13.2411 220.394C12.8903 220.282 12.6273 220.17 12.3642 220.058C11.9258 219.61 11.575 219.049 11.575 218.265C11.575 217.144 10.9612 216.136 10.172 215.8C9.82121 215.575 9.38276 215.575 9.032 215.687C8.68125 215.8 8.33049 215.8 7.97973 215.912C8.33049 216.024 8.68125 216.136 9.032 216.136C9.38276 216.136 9.64583 216.248 9.9089 216.472C10.435 216.808 10.6981 217.48 10.6981 218.153C10.6981 219.161 11.2242 220.282 12.0134 220.618C12.3642 220.842 12.8027 220.842 13.1534 220.73C13.5042 220.618 13.8549 220.618 14.2057 220.506C13.8549 220.618 13.5919 220.506 13.2411 220.394ZM81.3759 220.394C81.3759 219.273 80.7621 218.265 79.9729 217.929C79.6221 217.705 79.1837 217.705 78.8329 217.817C78.4821 217.929 78.1314 217.929 77.7806 218.041C78.1314 218.153 78.4821 218.265 78.8329 218.265C79.1837 218.377 79.4467 218.377 79.7098 218.601C80.2359 218.937 80.499 219.61 80.499 220.282C80.499 220.842 80.6744 221.403 80.9375 221.963H81.9897C81.639 221.739 81.3759 221.066 81.3759 220.394ZM42.091 142.399C41.7402 142.399 41.4771 142.287 41.2141 142.063C40.7756 141.614 40.4249 141.054 40.5126 140.27C40.5126 139.149 39.8987 138.14 39.1095 137.804C38.7588 137.58 38.3203 137.58 37.9696 137.692C37.6188 137.804 37.268 137.804 36.9173 137.916C37.268 138.028 37.6188 138.14 37.9696 138.14C38.3203 138.14 38.5834 138.252 38.8465 138.477C39.2849 138.813 39.6357 139.485 39.6357 140.158C39.6357 141.166 40.1618 142.287 40.951 142.623C41.3018 142.847 41.7402 142.847 42.091 142.735C42.4417 142.623 42.7925 142.623 43.1432 142.511C42.7925 142.511 42.4417 142.511 42.091 142.399ZM88.3911 193.275C88.0403 193.275 87.7772 193.163 87.5142 192.939C87.0757 192.491 86.725 191.93 86.8127 191.146C86.8127 190.025 86.1988 189.017 85.4096 188.68C85.0589 188.456 84.6204 188.568 84.2697 188.568C83.9189 188.68 83.5681 188.68 83.2174 188.793C83.5681 188.905 83.9189 189.017 84.2697 189.017C84.6204 189.129 84.8835 189.129 85.1465 189.353C85.6727 189.689 85.9358 190.361 85.9358 191.034C85.9358 192.154 86.4619 193.163 87.2511 193.611C87.6019 193.835 88.0403 193.835 88.3911 193.723C88.7418 193.611 89.0926 193.611 89.4433 193.499C89.0926 193.387 88.7418 193.387 88.3911 193.275ZM72.1685 105.866C71.8177 105.754 71.5547 105.642 71.2916 105.53C70.8532 105.082 70.5024 104.522 70.5901 103.737C70.5901 102.617 69.9763 101.608 69.187 101.272C68.8363 101.048 68.3978 101.048 68.0471 101.16C67.6963 101.272 67.3456 101.272 66.9948 101.384C67.3456 101.496 67.6963 101.608 68.0471 101.608C68.3978 101.608 68.6609 101.72 68.924 101.944C69.4501 102.28 69.7132 102.953 69.7132 103.625C69.7132 104.634 70.2393 105.754 71.0285 106.091C71.3793 106.315 71.8177 106.315 72.1685 106.203C72.5193 106.091 72.87 106.091 73.2208 105.979C72.87 105.979 72.5193 105.866 72.1685 105.866Z" fill="white"/>
<path d="M24.4805 92.0539C14.5716 115.263 -0.686413 163.968 10.0994 179.529C20.5345 194.474 81.2156 161.858 93.4922 155.176C98.5782 152.451 85.6878 109.109 79.988 111.395C67.4484 116.318 41.7553 133.549 41.0538 133.198C40.44 132.934 41.4923 113.153 41.9307 93.6364C42.4569 65.3279 31.671 75.3502 24.4805 92.0539Z" fill="#EB9481"/>
<path d="M116.029 84.6691C120.15 88.1857 116.38 92.4055 116.38 92.4055C116.38 92.4055 120.15 92.2297 122.956 94.6034C126.113 97.4167 123.132 103.483 123.132 103.483C123.132 103.483 126.99 104.098 129.621 106.911C132.339 109.901 130.235 116.494 130.235 116.494C130.235 116.494 133.567 119.044 134.093 123.176C134.97 130.209 126.639 137.066 121.378 141.374C113.486 147.792 97.088 153.242 93.5804 155.089L65.1689 121.417C65.1689 121.417 83.4961 95.3946 90.1605 90.7352C96.9126 86.0757 111.995 81.1525 116.029 84.6691Z" fill="#EB9481"/>
<path d="M115.765 92.0537C108.662 94.4274 102.612 98.7352 96.2981 102.691C96.1227 102.779 96.2981 102.955 96.4735 102.867C102.699 98.8231 109.539 96.0978 115.941 92.3175C116.028 92.3175 115.941 92.0537 115.765 92.0537Z" fill="#263238"/>
<path d="M122.693 103.219C121.114 103.834 119.711 104.889 118.308 105.856C116.818 106.911 115.327 107.966 113.924 109.021C111.03 111.219 108.224 113.417 105.418 115.79C105.33 115.878 105.418 116.142 105.593 115.966C108.487 113.768 111.381 111.658 114.362 109.636C115.853 108.581 117.344 107.614 118.834 106.559C120.237 105.592 121.816 104.801 122.956 103.57C123.131 103.482 122.868 103.131 122.693 103.219Z" fill="#263238"/>
<path d="M130.147 116.758C128.744 117.197 127.516 118.428 126.376 119.395C125.061 120.45 123.745 121.417 122.43 122.472C119.799 124.494 117.169 126.516 114.538 128.45C114.363 128.538 114.538 128.802 114.713 128.626C117.432 126.692 120.238 124.758 122.956 122.824C124.272 121.857 125.587 120.89 126.99 119.923C128.13 119.131 129.621 118.164 130.41 116.933C130.322 116.758 130.234 116.67 130.147 116.758Z" fill="#263238"/>
<path d="M64.9939 117.285L87.6178 162.209C87.6178 162.209 35.4425 186.386 17.2031 183.748C-1.03637 181.111 7.82028 146.209 9.04794 138.297C9.92483 132.67 19.9214 98.6473 27.5504 84.9327C35.1794 71.1301 41.8438 71.0422 42.633 89.8559C43.4222 108.757 41.6685 131.703 42.37 131.351C43.0715 130.912 64.9939 117.285 64.9939 117.285Z" fill="#FFB048"/>
<path d="M75.7805 165.901C75.4297 165.901 75.1666 165.814 74.9036 165.638C74.4651 165.286 74.1144 164.846 74.202 164.231C74.202 163.352 73.5882 162.561 72.799 162.297C72.4483 162.121 72.0098 162.209 71.659 162.209C71.3083 162.297 70.9575 162.297 70.6068 162.385C70.9575 162.473 71.3083 162.561 71.659 162.561C72.0098 162.649 72.2729 162.649 72.5359 162.824C73.0621 163.088 73.3251 163.616 73.3251 164.143C73.3251 165.022 73.8513 165.814 74.6405 166.165C74.9912 166.341 75.4297 166.341 75.7805 166.253C76.1312 166.165 76.482 166.165 76.8327 166.077C76.482 165.989 76.1312 165.989 75.7805 165.901ZM29.4804 125.988C29.1296 125.988 28.8665 125.9 28.6035 125.725C28.165 125.373 27.8143 124.933 27.902 124.318C27.902 123.439 27.2881 122.648 26.4989 122.384C26.1482 122.208 25.7097 122.208 25.359 122.296C25.0082 122.384 24.6574 122.384 24.3067 122.472C24.6574 122.56 25.0082 122.648 25.359 122.648C25.7097 122.648 25.9728 122.735 26.2359 122.911C26.6743 123.175 27.0251 123.703 27.0251 124.23C27.0251 125.021 27.5512 125.9 28.3404 126.164C28.6912 126.34 29.1296 126.34 29.4804 126.252C29.8311 126.164 30.1819 126.164 30.5326 126.076C30.1819 126.076 29.8311 126.076 29.4804 125.988ZM50.2628 155.088C49.912 155 49.649 155 49.3859 154.824C48.9474 154.473 48.5967 154.033 48.6844 153.418C48.6844 152.538 48.0706 151.747 47.2813 151.483C46.9306 151.308 46.4921 151.308 46.1414 151.396C45.7906 151.483 45.4399 151.483 45.0891 151.571C45.4399 151.659 45.7906 151.659 46.1414 151.747C46.4921 151.835 46.7552 151.835 47.0183 152.011C47.5444 152.275 47.8075 152.802 47.8075 153.33C47.8075 154.121 48.3336 155 49.1228 155.264C49.4736 155.44 49.912 155.44 50.2628 155.352C50.6135 155.264 50.9643 155.264 51.3151 155.176C50.9643 155.176 50.6135 155.176 50.2628 155.088ZM12.9947 161.242C12.644 161.154 12.3809 161.154 12.1178 160.978C11.6794 160.627 11.3286 160.187 11.4163 159.572C11.4163 158.692 10.8025 157.901 10.0133 157.638C9.66253 157.462 9.22408 157.462 8.87332 157.55C8.52256 157.637 8.1718 157.637 7.82104 157.725C8.1718 157.813 8.52256 157.901 8.87332 157.901C9.22408 157.901 9.48715 157.989 9.75022 158.165C10.1887 158.429 10.5394 158.956 10.5394 159.484C10.5394 160.275 11.0656 161.154 11.8548 161.418C12.2055 161.594 12.644 161.594 12.9947 161.506C13.3455 161.418 13.6962 161.418 14.047 161.33C13.6962 161.33 13.3455 161.33 12.9947 161.242ZM67.3623 126.867C67.0115 126.867 66.7484 126.78 66.4854 126.604C65.9592 126.252 65.6962 125.812 65.7839 125.197C65.7839 124.318 65.17 123.527 64.3808 123.263C64.0301 123.087 63.5916 123.087 63.2409 123.175C62.8901 123.263 62.5393 123.263 62.1886 123.351C62.5393 123.439 62.8901 123.527 63.2409 123.527C63.5916 123.527 63.8547 123.615 64.1177 123.79C64.6439 124.054 64.907 124.582 64.907 125.109C64.907 125.9 65.4331 126.78 66.2223 127.043C66.5731 127.219 67.0115 127.219 67.3623 127.131C67.713 127.043 68.0638 127.043 68.4145 126.955C68.0638 126.955 67.713 126.867 67.3623 126.867ZM40.7923 83.174C40.5293 83.4378 40.2662 83.5257 40.0031 83.6136C39.477 83.7894 38.8632 83.6136 38.5124 83.174C37.8986 82.5586 36.934 82.3828 36.2325 82.6465C35.8817 82.8224 35.5309 83.0861 35.3556 83.4378C35.1802 83.7015 34.9171 83.9652 34.7417 84.3169C35.0925 84.1411 35.3556 83.9652 35.6186 83.7015C35.8817 83.5257 36.1448 83.3498 36.4078 83.2619C36.934 83.174 37.5478 83.3498 37.8986 83.7015C38.5124 84.3169 39.477 84.4927 40.2662 84.1411C40.6169 83.9652 40.9677 83.6136 41.1431 83.3498C41.3185 83.0861 41.5815 82.7344 41.7569 82.4707C41.4061 82.7344 41.1431 82.9982 40.7923 83.174ZM48.4213 131.175C48.3336 130.824 48.3336 130.472 48.2459 130.12C48.1582 130.472 48.0706 130.824 48.0706 131.175C48.0706 131.527 47.9829 131.791 47.8075 132.054C47.5444 132.582 47.0183 132.846 46.4921 132.846C45.7029 132.846 44.826 133.373 44.563 134.164C44.3876 134.516 44.3876 134.956 44.4753 135.307C44.563 135.659 44.563 136.011 44.6507 136.362C44.7384 136.011 44.826 135.659 44.826 135.307C44.9137 134.956 45.0014 134.692 45.0891 134.428C45.4399 133.989 45.8783 133.637 46.4921 133.725C47.369 133.725 48.1582 133.109 48.4213 132.318C48.509 131.879 48.509 131.439 48.4213 131.175ZM14.8362 133.285C14.7485 132.934 14.7485 132.582 14.6608 132.23C14.5731 132.582 14.4855 132.934 14.4855 133.285C14.4855 133.637 14.3978 133.901 14.2224 134.164C13.9593 134.692 13.4332 134.956 12.907 134.956C12.1178 134.956 11.2409 135.483 10.9779 136.274C10.8025 136.626 10.8025 137.066 10.8902 137.417C10.9779 137.769 10.9779 138.121 11.0656 138.472C11.1532 138.121 11.2409 137.769 11.2409 137.417C11.2409 137.066 11.3286 136.802 11.504 136.538C11.8548 136.011 12.2932 135.747 12.907 135.747C13.7839 135.747 14.5731 135.131 14.8362 134.34C14.9239 134.076 14.9239 133.637 14.8362 133.285ZM31.3218 98.0315C31.2342 97.6799 31.2342 97.3282 31.1465 96.9766C31.0588 97.3282 30.9711 97.6799 30.9711 98.0315C30.9711 98.3832 30.8834 98.6469 30.708 98.9107C30.445 99.4382 29.9188 99.7019 29.3927 99.7019C28.6035 99.7019 27.7266 100.229 27.4635 101.021C27.2881 101.372 27.2881 101.812 27.3758 102.164C27.4635 102.515 27.4635 102.867 27.5512 103.218C27.6389 102.867 27.7266 102.515 27.7266 102.164C27.7266 101.812 27.902 101.548 27.9896 101.284C28.3404 100.845 28.7789 100.493 29.3927 100.581C30.2696 100.581 31.0588 99.9657 31.3218 99.1744C31.4095 98.8228 31.3218 98.2953 31.3218 98.0315ZM34.9171 167.132C34.8294 166.781 34.8294 166.429 34.7417 166.077C34.6541 166.429 34.5664 166.781 34.5664 167.132C34.5664 167.484 34.4787 167.748 34.3033 168.011C34.0402 168.539 33.5141 168.803 32.9879 168.803C32.1987 168.803 31.3218 169.33 30.9711 170.121C30.7957 170.473 30.7957 170.913 30.8834 171.264C30.9711 171.616 30.9711 171.968 31.0588 172.319C31.1465 171.968 31.2342 171.616 31.2342 171.264C31.2342 170.913 31.3218 170.649 31.4972 170.385C31.848 169.946 32.3741 169.594 32.9003 169.682C33.7772 169.682 34.5664 169.066 34.8294 168.275C35.0048 167.923 35.0048 167.484 34.9171 167.132ZM30.0065 148.582C29.7434 148.758 29.4804 148.934 29.2173 148.934C28.6912 149.022 28.0773 148.846 27.7266 148.494C27.1127 147.879 26.1482 147.703 25.359 148.055C25.0082 148.231 24.6574 148.582 24.4821 148.846C24.3067 149.11 24.0436 149.461 23.8682 149.725C24.219 149.549 24.4821 149.374 24.7451 149.11C25.0082 148.846 25.2713 148.758 25.5343 148.67C26.0605 148.494 26.6743 148.67 27.0251 149.022C27.5512 149.637 28.6035 149.813 29.305 149.549C29.6557 149.374 30.0065 149.11 30.1819 148.758C30.3573 148.494 30.6203 148.231 30.7957 147.879C30.5326 148.231 30.2696 148.406 30.0065 148.582ZM74.9036 144.802C74.6405 144.978 74.3774 145.154 74.1144 145.154C73.5005 145.242 72.9744 145.066 72.6236 144.714C72.0098 144.099 71.0452 143.923 70.256 144.275C69.9053 144.45 69.5545 144.802 69.3791 145.066C69.2037 145.329 68.9407 145.593 68.7653 145.945C69.1161 145.769 69.3791 145.593 69.6422 145.329C69.9053 145.066 70.1683 144.978 70.4314 144.89C70.9575 144.714 71.5714 144.89 71.9221 145.329C72.5359 145.945 73.5005 146.121 74.202 145.769C74.5528 145.593 74.9036 145.329 75.0789 145.066C75.2543 144.802 75.5174 144.538 75.6928 144.187C75.4297 144.362 75.1666 144.538 74.9036 144.802ZM57.6287 172.055C57.3656 172.231 57.1026 172.407 56.8395 172.495C56.2257 172.583 55.6995 172.407 55.3488 172.055C54.735 171.44 53.7704 171.264 52.9812 171.616C52.6304 171.792 52.2797 172.143 52.1043 172.407C51.9289 172.671 51.6658 172.935 51.4904 173.286C51.8412 173.11 52.1043 172.935 52.3673 172.671C52.6304 172.407 52.8935 172.319 53.1565 172.231C53.6827 172.055 54.2965 172.231 54.6473 172.671C55.2611 173.286 56.2257 173.462 56.9272 173.198C57.278 173.023 57.6287 172.759 57.8041 172.495C57.9795 172.231 58.2425 171.88 58.4179 171.616C58.2425 171.616 57.9795 171.88 57.6287 172.055ZM18.5192 176.451C18.2561 176.627 17.993 176.803 17.73 176.803C17.2038 176.891 16.59 176.715 16.2392 176.363C15.6254 175.748 14.6608 175.572 13.8716 175.924C13.5209 176.1 13.1701 176.451 12.9947 176.715C12.8194 176.979 12.5563 177.242 12.3809 177.594C12.7317 177.418 12.9947 177.242 13.2578 176.979C13.5209 176.715 13.7839 176.627 14.047 176.539C14.5731 176.363 15.187 176.539 15.5377 176.891C16.0639 177.506 17.1161 177.682 17.8177 177.418C18.1684 177.242 18.5192 176.979 18.6946 176.715C18.8699 176.451 19.133 176.187 19.3084 175.836C19.133 176.1 18.8699 176.275 18.5192 176.451Z" fill="white"/>
<path d="M42.1937 130.648C39.7383 133.11 37.9846 135.835 36.1431 138.473C34.3016 141.198 32.8986 144.011 31.4078 146.737C31.4078 146.825 31.4955 146.825 31.5832 146.737C33.2493 144.011 35.2662 141.374 37.1077 138.737C38.9491 136.099 41.0537 133.462 42.7198 130.736C42.8075 130.648 42.369 130.473 42.1937 130.648Z" fill="#263238"/>
<path d="M12.3798 125.109C10.9768 130.736 9.66144 136.362 8.60916 142.077C7.55689 147.703 6.67999 153.506 6.41692 159.22C6.32923 162.121 6.32923 164.935 6.67999 167.748C7.03075 170.561 7.4692 173.374 8.60916 175.924C9.66144 178.473 11.5029 180.671 13.9582 181.726C16.4135 182.869 19.2196 183.133 22.0257 183.045C27.6378 182.781 33.2499 181.199 38.6867 179.616C44.2111 177.946 49.6479 176.1 55.0846 174.166C60.5214 172.231 65.9581 170.297 71.3072 168.275C76.744 166.253 82.093 164.231 87.4421 162.121L87.3544 162.297L85.9514 159.308L87.5298 162.209L87.6175 162.297L87.5298 162.385C82.2684 164.759 77.007 167.045 71.658 169.242C66.3089 171.44 60.9598 173.55 55.5231 175.66C50.0863 177.682 44.6496 179.616 39.1251 181.287C33.6007 182.957 27.9886 184.627 22.0257 184.891C19.0442 184.979 15.9751 184.715 13.169 183.309C11.766 182.605 10.5383 181.638 9.48606 180.495C8.43378 179.353 7.64457 177.946 7.11844 176.627C5.97847 173.814 5.45233 170.913 5.18927 167.924C4.83851 165.023 4.9262 162.033 5.10158 159.132C6.06616 147.44 8.87223 136.099 12.3798 125.109Z" fill="#263238"/>
<path d="M42.7202 100.845C42.8079 103.219 42.8079 105.593 42.8079 107.966V115.087C42.8079 119.835 42.7202 124.582 42.7202 129.329V130.209V130.648V130.824V130.912L42.6325 130.824C42.5448 130.736 42.4571 130.648 42.2817 130.56H42.194C42.1063 130.56 42.1063 130.56 42.0187 130.56H41.931C42.0187 130.56 42.0187 130.56 42.1063 130.472L42.4571 130.297L43.2463 129.857C44.2986 129.242 45.2632 128.626 46.3154 128.099L52.4537 124.494L58.592 120.89L64.7302 117.373H64.8179V117.461L65.2564 118.428L64.7302 117.461H64.8179C62.8888 118.868 60.9596 120.186 58.9427 121.505L52.9799 125.461C50.963 126.78 48.9461 128.011 46.9293 129.242C45.877 129.857 44.9124 130.472 43.8601 131.088L43.0709 131.527L42.6325 131.791C42.5448 131.791 42.4571 131.879 42.3694 131.879H42.2817H42.194C42.1063 131.879 42.0187 131.879 41.931 131.879C41.8433 131.879 41.8433 131.879 41.7556 131.879C41.6679 131.791 41.4925 131.703 41.4048 131.615C41.3171 131.527 41.3171 131.527 41.3171 131.527V131.439C41.3171 131.352 41.3171 131.352 41.3171 131.352V131.176V130.912V130.472V129.593C41.3171 124.846 41.4925 120.098 41.6679 115.351L42.0187 108.23C42.3694 105.593 42.4571 103.219 42.7202 100.845Z" fill="#263238"/>
<path d="M67.7995 149.022C65.2565 143.835 62.7135 138.649 59.9074 133.637C58.329 130.736 56.7506 127.835 55.1722 125.022C55.0845 124.934 54.9091 125.022 54.9968 125.11C57.3644 130.385 59.732 135.659 62.3627 140.846C64.9934 146.033 67.5364 151.132 70.1671 156.319C71.6578 159.22 73.3239 162.122 74.99 164.935C74.99 165.023 75.1654 164.935 75.0777 164.847C72.9732 159.484 70.4302 154.297 67.7995 149.022Z" fill="#263238"/>
<path d="M44.4746 106.472C44.2992 107.878 44.0362 109.285 43.6854 110.604C43.3347 111.922 42.9839 113.329 42.4578 114.648C42.6331 113.241 42.8962 111.834 43.247 110.516C43.5977 109.197 44.0362 107.79 44.4746 106.472Z" fill="#263238"/>
<path d="M61.5758 87.2187C56.2267 89.6803 44.9148 83.0867 39.7411 76.9327C39.3903 76.4932 39.1272 71.3062 38.4257 65.0643C37.9873 61.284 37.4611 57.0641 36.6719 53.2837C36.4966 52.4925 61.6635 54.2508 61.6635 54.2508C61.6635 54.2508 60.962 62.6906 62.365 69.3721C62.4527 69.8996 62.6281 70.4271 62.8034 70.8666C62.8034 70.9545 62.8911 71.0425 62.8911 71.1304C64.1188 73.9436 66.7495 84.845 61.5758 87.2187Z" fill="#EB9481"/>
<path d="M38.2491 53.1079C40.7045 59.3499 47.8073 74.0316 60.61 71.7458C61.4869 71.57 62.2761 71.3941 63.0653 71.1304C63.0653 71.0425 62.9776 70.9546 62.9776 70.8667C62.8022 70.4271 62.6268 69.8996 62.4515 69.3721C61.0484 62.6906 61.75 54.2508 61.75 54.2508C61.75 54.2508 43.5982 52.9321 38.2491 53.1079Z" fill="#263238"/>
<path d="M29.1297 23.4805C27.639 32.3599 35.4433 56.5363 42.2831 61.2837C52.192 68.141 66.6608 66.9102 72.0976 55.3934C77.2713 44.2283 66.5731 12.9308 59.1195 8.79879C48.1583 2.73269 31.3219 10.2933 29.1297 23.4805Z" fill="#EB9481"/>
<path d="M55.3483 35.3492C55.3483 35.2612 55.2606 35.4371 55.2606 35.525C55.8744 37.1074 56.3129 39.0416 55.0852 40.0965C55.0852 40.0965 55.0852 40.1845 55.1729 40.1845C56.839 39.3053 56.2252 36.7558 55.3483 35.3492Z" fill="#263238"/>
<path d="M53.3306 34.2061C50.6999 34.9094 52.366 40.1843 54.8213 39.481C57.1889 38.8656 55.5228 33.5907 53.3306 34.2061Z" fill="#263238"/>
<path d="M64.467 32.5359C64.467 32.448 64.6424 32.5359 64.6424 32.6238C65.0809 34.2942 65.9578 36.0525 67.5362 36.1404C67.6239 36.1404 67.6239 36.2283 67.5362 36.2283C65.6947 36.58 64.6424 34.1184 64.467 32.5359Z" fill="#263238"/>
<path d="M65.4328 30.3381C67.9758 29.2831 69.8172 34.4701 67.4496 35.4371C65.1697 36.4042 63.2405 31.2172 65.4328 30.3381Z" fill="#263238"/>
<path d="M50.525 33.1514C51.2265 32.8877 51.8404 32.4481 52.5419 32.0964C53.3311 31.6569 53.9449 31.481 54.3834 30.6898C54.6464 30.2502 54.3834 29.5469 54.0326 29.2832C53.1557 28.6678 52.0157 28.9315 51.1388 29.3711C50.0866 29.8986 49.4727 30.514 48.9466 31.481C48.5082 32.536 49.6481 33.5031 50.525 33.1514Z" fill="#263238"/>
<path d="M66.5722 25.7663C65.783 25.8543 65.0815 25.8543 64.2923 25.8543C63.4154 25.8543 62.7139 26.0301 61.9247 25.5026C61.4862 25.2389 61.3109 24.5355 61.5739 24.096C62.1001 23.1289 63.0646 22.7773 64.1169 22.6893C65.2569 22.6014 66.1338 22.7773 67.0984 23.4806C68.063 24.1839 67.6245 25.5905 66.5722 25.7663Z" fill="#263238"/>
<path d="M57.4516 51.3497C57.9778 51.6135 58.5039 52.053 59.1177 51.8772C59.7316 51.7014 60.2577 51.2618 60.6961 50.9102C60.7838 50.9102 60.7838 50.9102 60.7838 50.9981C60.5208 51.7893 59.8192 52.4047 59.03 52.5805C58.2408 52.6684 57.7147 52.141 57.2762 51.5256C57.2762 51.4376 57.3639 51.3497 57.4516 51.3497Z" fill="#263238"/>
<path d="M57.6284 45.9864C58.9438 47.1293 60.6099 47.481 62.1006 47.3051C62.8021 47.2172 63.5036 47.0414 64.1175 46.7776C64.2052 46.6897 64.3805 46.6897 64.4682 46.6018C64.5559 46.5139 64.6436 46.5139 64.819 46.426C64.9944 46.3381 65.082 46.1622 64.9944 45.9864C64.9944 45.8985 64.9944 45.8985 64.9067 45.8106L64.819 45.6348C64.4682 44.404 63.7667 42.4698 63.7667 42.4698C64.2928 42.5577 66.9235 42.8215 66.7481 42.2061C64.7313 36.8433 62.4514 30.953 59.2945 26.1178C59.2068 25.9419 58.9438 26.1178 59.0315 26.2936C60.7853 31.4805 63.4159 36.3158 65.3451 41.5028C64.4682 41.4149 63.1529 41.3269 62.4514 41.5028C62.276 41.5907 63.9421 45.1073 64.0298 45.6348C64.0298 45.6348 64.0298 45.6348 64.0298 45.7227C62.0129 46.6897 60.2591 46.5139 57.7161 45.7227C57.5407 45.7227 57.4531 45.8106 57.6284 45.9864Z" fill="#263238"/>
<path d="M63.152 46.3385C63.152 46.3385 62.5382 48.1847 61.1351 49.2396C60.609 49.5913 60.0829 49.855 59.3813 49.943C57.9783 50.0309 57.5399 48.8001 57.4522 47.7451C57.3645 46.866 57.5399 45.9868 57.5399 45.9868C57.5399 45.9868 60.0829 47.0418 63.152 46.3385Z" fill="#263238"/>
<path d="M61.2223 49.1516C60.6961 49.5032 60.17 49.767 59.4685 49.8549C58.0654 49.9428 57.627 48.712 57.5393 47.657C58.9423 47.3933 60.6084 47.8329 61.2223 49.1516Z" fill="#FF98B9"/>
<path d="M38.6882 36.6675C39.7405 31.3926 35.7944 23.3924 37.9867 20.8429C42.8096 15.3043 54.9985 23.2166 62.6274 22.2495C69.9934 21.3704 71.8349 16.2713 69.7303 10.469C67.7134 4.57872 62.1013 1.23797 53.6831 1.06215C45.0018 0.886317 37.6359 5.36995 33.7776 8.62279C33.7776 8.62279 35.2683 5.36995 34.4791 4.57872C33.6899 3.69958 30.4454 7.04033 29.4808 8.44696C28.5162 9.85359 28.1654 12.2273 28.1654 12.2273C28.1654 12.2273 26.7624 11.9635 24.7455 12.3152C22.9041 12.5789 20.7118 14.3372 20.6241 14.8647C20.5364 15.3043 23.2548 15.3043 25.184 15.2164C25.184 15.2164 22.2902 20.3154 22.9041 24.3595C23.5179 28.3156 32.1115 46.5139 33.6022 46.5139C35.4437 46.426 38.2497 38.7774 38.6882 36.6675Z" fill="#263238"/>
<path d="M25.7107 14.5135C25.7984 14.4256 25.8861 14.5135 25.7984 14.6014C24.22 16.3597 22.9924 18.3817 22.5539 20.7554C22.0278 23.5687 22.5539 26.3819 23.5185 29.0193C25.36 34.1184 28.5168 38.5141 31.3229 43.0857C31.4106 43.2615 31.1475 43.3494 31.0598 43.2615C27.7276 38.602 24.3077 33.5909 22.6416 28.0523C21.2386 23.3928 21.5893 17.7663 25.7107 14.5135Z" fill="#263238"/>
<path d="M37.4596 18.9089C39.5642 18.2935 42.0195 18.2055 44.2117 18.4693C46.404 18.733 48.3331 19.788 50.2623 20.5792C54.7345 22.3375 59.5574 23.4804 64.3803 22.6013C64.468 22.6013 64.468 22.6892 64.3803 22.6892C59.9958 23.8321 55.5237 23.0408 51.4023 21.6342C49.2977 20.9309 47.2809 19.7001 45.0886 19.2605C42.6333 18.733 40.0903 19.0847 37.5473 19.3484C37.2842 19.3484 37.1966 18.9968 37.4596 18.9089Z" fill="#263238"/>
<path d="M37.9873 5.89768C40.7934 4.05148 43.8625 2.64485 47.0193 1.58988C50.0885 0.62282 53.2453 -0.0804952 56.4898 0.00741926C62.1019 0.183248 67.5387 3.08442 69.5555 8.53512C70.6078 11.2605 70.6955 14.4254 69.5555 17.2386C69.4678 17.4145 69.2048 17.3266 69.2925 17.1507C70.8709 11.9638 69.2925 6.07351 64.6449 2.99651C59.6466 -0.344238 53.333 0.183248 47.8962 1.76571C44.3886 2.73277 41.1441 4.22731 37.9873 5.89768C37.9873 5.9856 37.9873 5.89768 37.9873 5.89768Z" fill="#263238"/>
<path d="M37.1096 42.9094C37.1096 42.9094 30.2699 35.7884 27.0253 38.3379C23.6931 40.8874 29.656 51.7888 34.2159 52.7558C38.6881 53.7229 39.6526 49.503 39.6526 49.503L37.1096 42.9094Z" fill="#EB9481"/>
<path d="M28.8654 41.503C28.7778 41.503 28.7778 41.5909 28.8654 41.5909C32.0223 42.3822 34.0391 44.8438 35.5299 47.5691C34.4776 46.6021 33.1622 46.1625 31.8469 47.4812C31.7592 47.5691 31.8469 47.657 31.9346 47.657C33.0745 47.2175 34.0391 47.3054 35.0037 48.0966C35.7052 48.712 36.2314 49.5032 36.7575 50.2065C36.9329 50.4703 37.3713 50.2065 37.2836 49.9428C37.2836 49.9428 37.2836 49.9428 37.2836 49.8549C36.7575 46.0746 32.9869 41.2393 28.8654 41.503Z" fill="#263238"/>
<path d="M62.8034 70.6904L59.5589 85.8117L38.9518 70.8663L34.9181 77.4598C34.9181 77.4598 56.9282 102.955 56.8405 101.636L60.6111 88.4491L70.4324 95.4823L66.1356 74.2949L62.8034 70.6904Z" fill="#EBEBEB"/>
<path d="M68.942 85.0204C68.1528 81.5038 67.3636 77.9872 66.399 74.5585C66.399 74.4706 66.1359 74.3827 66.1359 74.5585C66.0482 78.0751 69.2927 91.3502 69.8189 94.603C69.3804 94.3393 60.7869 88.449 60.6992 88.6249C59.7346 90.7348 57.0162 100.405 56.8408 101.285C53.3332 97.2405 38.7768 81.4159 34.8307 77.6356C34.7431 77.5476 34.5677 77.6355 34.6554 77.8114C37.8999 82.2071 56.7531 103.131 56.9285 103.043C57.1039 103.131 60.5238 91.2623 60.7869 89.0644C62.2776 90.3831 71.1342 97.1526 71.1342 96.6251C70.6958 92.9327 69.7312 88.449 68.942 85.0204Z" fill="#263238"/>
<path d="M147.322 197.59H54.5488V201.772H147.322V197.59Z" fill="#455A64"/>
<path d="M101.269 197.59H54.5488V201.772H101.269V197.59Z" fill="#263238"/>
<path d="M100.101 201.772H190.539L203.303 140.21H112.866L100.101 201.772Z" fill="#37474F"/>
<path d="M144.736 172.329C144.402 175.675 146.821 178.352 150.159 178.352C153.496 178.352 156.499 175.675 156.833 172.329C157.167 168.984 154.747 166.307 151.41 166.307C148.073 166.307 145.069 169.067 144.736 172.329Z" fill="white"/>
</svg>
