<svg width="59" height="36" viewBox="0 0 59 36" fill="none" xmlns="http://www.w3.org/2000/svg">
<path d="M2.88819 31.855L0 0H34.6582L31.7701 31.855L17.3291 35.6776L2.88819 31.855Z" fill="#37474F"/>
<path d="M22.3834 18.4756H7.94251L7.22046 14.0159L18.7732 10.8304H7.22046L6.49841 7.00781H28.8819L28.1598 11.4675L18.7732 14.653H27.4378L25.9937 26.7579L17.3291 29.3063L8.66456 26.7579L7.94251 20.3869H12.2748L12.9968 23.5724L17.3291 24.8466L21.6614 23.5724L22.3834 18.4756Z" fill="white"/>
<path d="M35.372 17.68C35.372 17.16 35.464 16.648 35.648 16.144C35.84 15.64 36.116 15.184 36.476 14.776C36.836 14.368 37.276 14.044 37.796 13.804C38.316 13.556 38.908 13.432 39.572 13.432C40.348 13.432 41.024 13.604 41.6 13.948C42.176 14.292 42.604 14.74 42.884 15.292L41.612 16.168C41.468 15.848 41.28 15.596 41.048 15.412C40.816 15.228 40.564 15.096 40.292 15.016C40.028 14.936 39.772 14.896 39.524 14.896C39.108 14.896 38.744 14.98 38.432 15.148C38.128 15.316 37.872 15.536 37.664 15.808C37.456 16.08 37.3 16.384 37.196 16.72C37.1 17.056 37.052 17.392 37.052 17.728C37.052 18.232 37.156 18.704 37.364 19.144C37.572 19.576 37.864 19.928 38.24 20.2C38.616 20.472 39.052 20.608 39.548 20.608C39.804 20.608 40.068 20.564 40.34 20.476C40.62 20.388 40.876 20.248 41.108 20.056C41.34 19.864 41.52 19.616 41.648 19.312L43.004 20.092C42.828 20.516 42.552 20.876 42.176 21.172C41.8 21.46 41.376 21.684 40.904 21.844C40.432 21.996 39.964 22.072 39.5 22.072C38.892 22.072 38.336 21.948 37.832 21.7C37.336 21.444 36.904 21.108 36.536 20.692C36.168 20.268 35.88 19.796 35.672 19.276C35.472 18.748 35.372 18.216 35.372 17.68ZM49.6906 15.712C49.6186 15.632 49.4666 15.528 49.2346 15.4C49.0026 15.264 48.7226 15.144 48.3946 15.04C48.0746 14.928 47.7426 14.872 47.3986 14.872C46.4946 14.872 46.0426 15.192 46.0426 15.832C46.0426 16.064 46.1146 16.248 46.2586 16.384C46.4026 16.52 46.6186 16.636 46.9066 16.732C47.1946 16.828 47.5546 16.932 47.9866 17.044C48.5466 17.188 49.0306 17.356 49.4386 17.548C49.8546 17.74 50.1706 17.996 50.3866 18.316C50.6106 18.628 50.7226 19.044 50.7226 19.564C50.7226 20.172 50.5746 20.664 50.2786 21.04C49.9906 21.408 49.6066 21.676 49.1266 21.844C48.6466 22.012 48.1266 22.096 47.5666 22.096C46.9266 22.096 46.2906 22 45.6586 21.808C45.0346 21.608 44.4786 21.336 43.9906 20.992L44.7226 19.564C44.7946 19.636 44.9226 19.732 45.1066 19.852C45.2906 19.964 45.5146 20.08 45.7786 20.2C46.0426 20.312 46.3306 20.408 46.6426 20.488C46.9546 20.568 47.2706 20.608 47.5906 20.608C48.5026 20.608 48.9586 20.316 48.9586 19.732C48.9586 19.484 48.8666 19.284 48.6826 19.132C48.4986 18.98 48.2386 18.852 47.9026 18.748C47.5746 18.644 47.1906 18.528 46.7506 18.4C46.2066 18.248 45.7546 18.08 45.3946 17.896C45.0426 17.704 44.7786 17.468 44.6026 17.188C44.4266 16.9 44.3386 16.536 44.3386 16.096C44.3386 15.512 44.4746 15.024 44.7466 14.632C45.0266 14.232 45.4026 13.932 45.8746 13.732C46.3466 13.524 46.8706 13.42 47.4466 13.42C48.0386 13.42 48.5906 13.516 49.1026 13.708C49.6146 13.9 50.0546 14.12 50.4226 14.368L49.6906 15.712ZM57.5499 15.712C57.4779 15.632 57.3259 15.528 57.0939 15.4C56.8619 15.264 56.5819 15.144 56.2539 15.04C55.9339 14.928 55.6019 14.872 55.2579 14.872C54.3539 14.872 53.9019 15.192 53.9019 15.832C53.9019 16.064 53.9739 16.248 54.1179 16.384C54.2619 16.52 54.4779 16.636 54.7659 16.732C55.0539 16.828 55.4139 16.932 55.8459 17.044C56.4059 17.188 56.8899 17.356 57.2979 17.548C57.7139 17.74 58.0299 17.996 58.2459 18.316C58.4699 18.628 58.5819 19.044 58.5819 19.564C58.5819 20.172 58.4339 20.664 58.1379 21.04C57.8499 21.408 57.4659 21.676 56.9859 21.844C56.5059 22.012 55.9859 22.096 55.4259 22.096C54.7859 22.096 54.1499 22 53.5179 21.808C52.8939 21.608 52.3379 21.336 51.8499 20.992L52.5819 19.564C52.6539 19.636 52.7819 19.732 52.9659 19.852C53.1499 19.964 53.3739 20.08 53.6379 20.2C53.9019 20.312 54.1899 20.408 54.5019 20.488C54.8139 20.568 55.1299 20.608 55.4499 20.608C56.3619 20.608 56.8179 20.316 56.8179 19.732C56.8179 19.484 56.7259 19.284 56.5419 19.132C56.3579 18.98 56.0979 18.852 55.7619 18.748C55.4339 18.644 55.0499 18.528 54.6099 18.4C54.0659 18.248 53.6139 18.08 53.2539 17.896C52.9019 17.704 52.6379 17.468 52.4619 17.188C52.2859 16.9 52.1979 16.536 52.1979 16.096C52.1979 15.512 52.3339 15.024 52.6059 14.632C52.8859 14.232 53.2619 13.932 53.7339 13.732C54.2059 13.524 54.7299 13.42 55.3059 13.42C55.8979 13.42 56.4499 13.516 56.9619 13.708C57.4739 13.9 57.9139 14.12 58.2819 14.368L57.5499 15.712Z" fill="#2E4B48"/>
</svg>
