<svg width="337" height="582" viewBox="0 0 337 582" fill="none" xmlns="http://www.w3.org/2000/svg">
<g filter="url(#filter0_dd)">
<path d="M256.516 56.0544V377.274C256.516 390.525 245.79 401.251 232.537 401.251H104.057C90.8044 401.251 80.0775 390.525 80.0775 377.274V56.0544C80.0775 42.8029 90.8044 32.0771 104.057 32.0771H232.537C245.79 32.0771 256.516 42.8029 256.516 56.0544Z" fill="url(#paint0_linear)"/>
<path d="M252.507 56.0544V377.274C252.507 388.31 243.575 397.241 232.537 397.241H104.057C93.0185 397.241 84.0872 388.31 84.0872 377.274V56.0544C84.0872 45.0178 93.0185 36.0868 104.057 36.0868H232.537C243.576 36.0868 252.507 45.0178 252.507 56.0544Z" stroke="#2F4949" stroke-width="8.01939"/>
</g>
<path d="M79.8691 63.7318C97.4698 63.7318 111.738 49.4649 111.738 31.8659C111.738 14.2668 97.4698 0 79.8691 0C62.2683 0 48 14.2668 48 31.8659C48 49.4649 62.2683 63.7318 79.8691 63.7318Z" fill="url(#paint1_linear)"/>
<path d="M88.6985 42.2451H92.0204V13.6661H88.6985V42.2451Z" fill="white"/>
<path d="M81.7794 42.2285H85.1012V21.988H81.7794V42.2285Z" fill="white"/>
<path d="M74.9983 42.2256H78.3202V17.937H74.9983V42.2256Z" fill="white"/>
<path d="M68.2521 42.2451H71.574V13.6661H68.2521V42.2451Z" fill="white"/>
<path d="M61.4717 42.248H64.7936V25.7096H61.4717V42.248Z" fill="white"/>
<path d="M61.4946 44.9441H96.0627V13.6318H95.8897V44.8057H61.4946V44.9441Z" fill="white"/>
<path d="M205.424 54.7892C207.584 54.7892 209.334 53.0387 209.334 50.8794C209.334 48.7202 207.584 46.9697 205.424 46.9697C203.265 46.9697 201.514 48.7202 201.514 50.8794C201.514 53.0387 203.265 54.7892 205.424 54.7892Z" fill="white"/>
<path d="M220.546 54.7892C222.705 54.7892 224.456 53.0387 224.456 50.8794C224.456 48.7202 222.705 46.9697 220.546 46.9697C218.386 46.9697 216.635 48.7202 216.635 50.8794C216.635 53.0387 218.386 54.7892 220.546 54.7892Z" fill="white"/>
<path d="M235.667 54.7892C237.827 54.7892 239.578 53.0387 239.578 50.8794C239.578 48.7202 237.827 46.9697 235.667 46.9697C233.508 46.9697 231.757 48.7202 231.757 50.8794C231.757 53.0387 233.508 54.7892 235.667 54.7892Z" fill="white"/>
<ellipse cx="169.943" cy="187.945" rx="73.827" ry="73.3823" fill="#E5EEEE"/>
<path d="M163.527 264.029C173.336 265.991 189.291 250.422 195.438 238.255C195.83 237.47 194.261 228.836 192.822 218.239C191.907 211.828 191.122 204.632 190.86 198.091C190.86 196.783 149.926 209.735 149.926 209.735C149.926 209.735 154.503 223.341 154.896 234.854C154.896 235.77 154.896 236.685 154.765 237.601C154.765 237.732 154.765 237.863 154.765 237.994C154.111 243.096 153.98 262.066 163.527 264.029Z" fill="#DA877B"/>
<path d="M158.95 237.994C157.381 238.124 155.942 238.124 154.765 237.994C154.765 237.863 154.765 237.732 154.765 237.601C154.896 236.685 155.027 235.9 154.896 234.854C154.504 223.341 149.926 209.735 149.926 209.735C149.926 209.735 183.145 199.137 189.684 198.091C188.768 205.679 183.275 236.554 158.95 237.994Z" fill="#263238"/>
<path d="M201.062 157.533C204.2 172.578 192.822 214.051 181.706 222.555C165.489 234.853 140.641 234.068 130.702 214.967C121.024 196.389 136.848 142.488 149.142 135.031C167.19 123.91 196.354 135.292 201.062 157.533Z" fill="#DA877B"/>
<path d="M158.426 181.477C158.426 181.346 158.557 181.608 158.557 181.739C157.772 184.486 157.249 187.888 159.473 189.458C159.603 189.458 159.473 189.588 159.342 189.588C156.465 188.411 157.119 183.963 158.426 181.477Z" fill="#263238"/>
<path d="M161.695 179.253C166.272 180.169 164.18 189.196 159.995 188.411C155.81 187.626 157.902 178.468 161.695 179.253Z" fill="#263238"/>
<path d="M141.163 177.159C141.163 177.028 140.902 177.29 140.902 177.42C140.379 180.299 139.202 183.439 136.455 183.831C136.324 183.831 136.324 183.962 136.455 183.962C139.594 184.093 141.033 179.906 141.163 177.159Z" fill="#263238"/>
<path d="M139.333 173.627C134.886 172.188 132.401 181.345 136.586 182.523C140.64 183.831 142.994 174.804 139.333 173.627Z" fill="#263238"/>
<path d="M165.751 178.336C164.443 178.074 163.266 177.681 162.089 177.42C160.65 177.027 159.473 176.897 158.427 175.719C157.904 175.065 158.035 173.887 158.558 173.364C159.866 172.056 161.697 172.056 163.397 172.448C165.228 172.841 166.666 173.626 167.843 175.196C169.02 176.504 167.451 178.597 165.751 178.336Z" fill="#263238"/>
<path d="M136.848 168.132C138.156 168.262 139.333 168.132 140.64 168.001C142.079 168.001 143.256 168.001 144.564 167.085C145.218 166.562 145.349 165.384 144.956 164.73C144.041 163.16 142.21 162.768 140.379 162.768C138.417 162.768 136.979 163.291 135.409 164.468C134.101 165.777 135.017 168.132 136.848 168.132Z" fill="#263238"/>
<path d="M155.027 207.38C154.242 207.903 153.326 208.688 152.28 208.557C151.234 208.426 150.188 207.772 149.403 207.118C149.272 207.118 149.272 207.118 149.272 207.249C149.795 208.557 151.103 209.473 152.542 209.604C153.85 209.735 154.765 208.688 155.288 207.641C155.419 207.38 155.157 207.249 155.027 207.38Z" fill="#263238"/>
<path d="M153.981 198.223C151.888 200.316 149.142 201.101 146.526 201.101C145.349 201.101 144.172 200.839 142.995 200.447C142.733 200.447 142.603 200.316 142.341 200.185C142.08 200.054 141.949 200.054 141.687 199.923C141.426 199.793 141.295 199.531 141.295 199.138C141.295 199.008 141.295 199.008 141.426 198.877V198.615C141.818 196.391 142.864 193.12 142.864 193.12C141.949 193.382 137.502 194.298 137.764 193.12C140.51 183.832 143.518 173.496 148.095 164.861C148.226 164.6 148.749 164.731 148.619 164.992C146.395 174.019 142.603 182.654 140.118 191.681C141.556 191.42 143.78 191.027 144.957 191.289C145.218 191.42 142.995 197.569 142.864 198.615C142.864 198.615 142.864 198.615 142.864 198.746C146.395 200.054 149.403 199.531 153.588 197.961C153.981 197.699 154.242 197.961 153.981 198.223Z" fill="#263238"/>
<path d="M192.953 194.557C192.953 194.557 208.124 172.055 207.47 158.58C207.208 152.431 199.1 147.982 199.1 147.982C199.1 147.982 201.977 140.787 195.438 133.984C188.638 126.919 171.244 127.573 171.244 127.573C171.244 127.573 160.781 110.696 144.565 116.453C128.348 122.078 137.764 140.656 137.764 140.656C137.764 140.656 131.486 148.637 145.48 155.832C159.081 162.897 187.722 158.056 187.722 158.056C187.722 158.056 184.714 172.447 186.676 187.493C187.461 192.988 192.953 194.557 192.953 194.557Z" fill="#263238"/>
<path d="M168.498 127.704C172.029 126.396 175.952 126.003 179.745 126.265C183.145 126.396 186.545 127.05 189.684 128.358C195.308 130.713 200.146 135.161 200.8 141.572C201.062 144.712 200.146 147.852 198.185 150.337C198.054 150.468 197.923 150.337 198.054 150.207C201.977 145.889 200.408 138.694 196.746 134.638C192.692 130.059 186.153 128.097 180.268 127.573C176.344 127.181 172.421 127.704 168.498 128.227C168.367 128.097 168.236 127.704 168.498 127.704Z" fill="#263238"/>
<path d="M132.794 123.518C134.364 119.07 138.287 116.453 142.603 115.276C147.573 113.967 152.935 114.491 157.643 116.584C162.482 118.677 166.405 122.21 169.544 126.396C169.674 126.527 169.413 126.658 169.413 126.527C163.789 119.201 154.635 114.622 145.219 116.192C141.034 116.846 136.849 118.808 134.625 122.602C132.664 126.135 132.794 130.844 134.364 134.508C136.325 139.087 140.118 142.619 144.042 145.236C144.172 145.236 144.042 145.497 143.911 145.366C139.987 143.011 136.456 140.133 134.102 136.208C132.14 132.283 131.356 127.704 132.794 123.518Z" fill="#263238"/>
<path d="M141.949 156.355C148.095 159.365 155.027 160.673 161.827 160.804C169.02 161.065 176.082 160.28 183.014 158.972C187.068 158.187 191.122 157.271 195.176 156.225C195.307 156.225 195.307 156.355 195.176 156.486C188.114 158.972 180.79 161.065 173.336 162.112C166.405 163.028 159.342 162.766 152.542 160.934C148.88 159.888 145.218 158.449 141.949 156.355C141.818 156.486 141.949 156.355 141.949 156.355Z" fill="#263238"/>
<path d="M157.381 198.091C162.482 198.745 167.713 195.997 169.675 191.026C172.159 185.139 169.282 178.336 163.266 175.85C157.381 173.364 150.581 176.242 148.096 182.26C145.611 188.148 148.488 194.951 154.504 197.437C155.55 197.698 156.466 197.96 157.381 198.091ZM160.389 176.635C161.174 176.766 161.959 177.027 162.743 177.289C167.844 179.382 170.329 185.27 168.236 190.372C166.144 195.474 160.258 197.96 155.158 195.867C150.058 193.773 147.573 187.886 149.665 182.784C151.496 178.466 155.943 175.981 160.389 176.635Z" fill="#EBEBEB"/>
<path d="M131.748 191.156C136.194 191.81 140.772 187.885 142.341 181.998C143.126 178.989 142.995 175.98 142.079 173.494C141.033 170.878 139.202 169.177 136.979 168.523C134.756 167.869 132.271 168.523 130.048 170.354C127.955 172.055 126.386 174.672 125.601 177.55C124.032 183.699 126.386 189.717 130.963 191.025C131.225 191.156 131.486 191.156 131.748 191.156ZM135.802 169.962C135.933 169.962 136.194 169.962 136.325 170.093C138.156 170.616 139.595 171.924 140.379 174.148C141.295 176.372 141.295 178.989 140.641 181.606C139.202 186.97 135.017 190.502 131.225 189.586C127.432 188.54 125.47 183.437 126.909 178.073C127.563 175.457 129.001 173.102 130.832 171.663C132.532 170.354 134.233 169.7 135.802 169.962Z" fill="#EBEBEB"/>
<path d="M148.357 183.567L149.664 182.652C148.357 180.82 144.956 177.811 141.425 180.035L142.21 181.343C145.349 179.381 148.226 183.437 148.357 183.567Z" fill="#EBEBEB"/>
<path d="M197.661 199.529L199.231 199.137C199.1 198.482 197.531 192.203 194.392 190.764C191.384 189.455 170.721 186.054 169.936 185.923L169.674 187.493C175.56 188.409 191.515 191.156 193.738 192.203C195.7 193.249 197.269 197.828 197.661 199.529Z" fill="#EBEBEB"/>
<path d="M186.415 192.203C186.415 192.203 197.4 179.643 203.155 183.699C208.909 187.755 199.754 206.725 192.169 208.687C184.584 210.65 182.753 203.716 182.753 203.716L186.415 192.203Z" fill="#DA877B"/>
<path d="M200.408 189.062C200.539 189.062 200.539 189.193 200.408 189.324C195.046 190.894 191.907 195.211 189.553 199.921C191.253 198.22 193.477 197.435 195.831 199.397C195.961 199.528 195.831 199.659 195.7 199.659C193.607 199.005 192.169 199.136 190.469 200.706C189.292 201.752 188.507 203.192 187.592 204.5C187.33 204.892 186.545 204.631 186.676 204.107V203.976C187.33 197.566 193.346 188.931 200.408 189.062Z" fill="#263238"/>
<path d="M134.904 282.122C134.904 285.842 134.988 288.278 135.156 289.43C135.156 289.718 134.88 289.952 134.328 290.132C133.776 290.324 133.32 290.42 132.96 290.42C132.6 290.42 132.42 290.366 132.42 290.258C132.42 290.186 132.438 290.096 132.474 289.988C132.702 289.484 132.816 287.456 132.816 283.904C132.816 280.544 132.672 278.678 132.384 278.306L132.312 278.198C132.24 278.138 132.204 278.066 132.204 277.982C132.204 277.886 132.27 277.808 132.402 277.748C132.582 277.64 132.9 277.532 133.356 277.424C133.824 277.316 134.244 277.262 134.616 277.262C134.988 277.262 135.174 277.346 135.174 277.514V277.568C135.03 278.816 134.94 280.334 134.904 282.122ZM140.696 278.306C140.696 279.614 140.378 280.424 139.742 280.736C139.658 280.784 139.574 280.82 139.49 280.844C139.406 280.844 139.364 280.784 139.364 280.664C139.664 280.304 139.814 279.878 139.814 279.386C139.814 279.17 139.706 279.062 139.49 279.062C139.178 279.062 138.986 278.996 138.914 278.864C138.818 278.672 138.77 278.432 138.77 278.144C138.77 277.844 138.83 277.634 138.95 277.514C139.07 277.382 139.31 277.316 139.67 277.316C140.03 277.316 140.288 277.394 140.444 277.55C140.612 277.706 140.696 277.958 140.696 278.306ZM138.32 278.306C138.32 279.614 138.002 280.424 137.366 280.736C137.282 280.784 137.198 280.82 137.114 280.844C137.03 280.844 136.988 280.784 136.988 280.664C137.288 280.304 137.438 279.878 137.438 279.386C137.438 279.17 137.33 279.062 137.114 279.062C136.802 279.062 136.61 278.996 136.538 278.864C136.442 278.672 136.394 278.432 136.394 278.144C136.394 277.844 136.454 277.634 136.574 277.514C136.694 277.382 136.934 277.316 137.294 277.316C137.654 277.316 137.912 277.394 138.068 277.55C138.236 277.706 138.32 277.958 138.32 278.306ZM145.965 290.204C146.133 289.364 146.217 288.188 146.217 286.676C146.217 285.152 146.211 284.252 146.199 283.976C146.187 283.7 146.103 283.478 145.947 283.31C145.791 283.142 145.653 283.046 145.533 283.022C145.425 282.998 145.269 282.986 145.065 282.986C144.861 282.986 144.663 283.082 144.471 283.274C144.279 283.454 144.165 283.64 144.129 283.832L144.057 284.12C144.021 284.48 144.003 285.278 144.003 286.514C144.003 287.75 144.027 288.53 144.075 288.854C144.135 289.166 144.165 289.376 144.165 289.484C144.165 289.592 144.117 289.7 144.021 289.808C143.613 290.24 143.037 290.456 142.293 290.456C142.029 290.456 141.897 290.378 141.897 290.222C142.137 288.782 142.257 286.946 142.257 284.714C142.257 283.886 142.239 283.328 142.203 283.04L142.131 282.464C142.119 282.332 142.095 282.188 142.059 282.032C142.059 281.888 142.245 281.816 142.617 281.816C143.169 281.816 143.535 282.02 143.715 282.428C143.727 282.476 143.751 282.5 143.787 282.5C143.823 282.5 143.907 282.452 144.039 282.356C144.435 282.044 144.969 281.888 145.641 281.888C146.025 281.888 146.403 281.96 146.775 282.104C147.147 282.248 147.405 282.44 147.549 282.68C147.561 282.704 147.579 282.716 147.603 282.716C147.627 282.716 147.663 282.692 147.711 282.644C148.215 282.14 148.869 281.888 149.673 281.888C150.741 281.888 151.473 282.272 151.869 283.04C152.013 283.34 152.085 283.718 152.085 284.174C152.085 284.63 152.049 285.278 151.977 286.118C151.905 286.958 151.869 287.6 151.869 288.044C151.869 288.488 151.911 288.89 151.995 289.25C152.091 289.61 152.181 289.868 152.265 290.024C152.361 290.18 152.409 290.27 152.409 290.294C152.409 290.45 152.241 290.528 151.905 290.528C151.077 290.528 150.501 290.36 150.177 290.024C149.853 289.688 149.691 289.25 149.691 288.71C149.691 288.158 149.799 287.42 150.015 286.496C150.243 285.56 150.357 284.858 150.357 284.39C150.357 283.442 149.973 282.968 149.205 282.968C148.881 282.968 148.623 283.064 148.431 283.256C148.239 283.448 148.125 283.64 148.089 283.832L148.053 284.12C148.005 284.672 147.981 285.338 147.981 286.118C147.981 286.898 147.993 287.51 148.017 287.954C148.041 288.386 148.065 288.728 148.089 288.98C148.113 289.22 148.125 289.364 148.125 289.412C148.125 289.748 147.915 290.006 147.495 290.186C147.075 290.366 146.667 290.456 146.271 290.456C146.067 290.456 145.965 290.372 145.965 290.204ZM161.197 279.782C160.249 280.97 159.565 282.158 159.145 283.346H159.163C160.831 283.346 161.785 283.352 162.025 283.364C162.277 283.364 162.415 283.352 162.439 283.328C162.463 283.304 162.481 283.274 162.493 283.238C162.289 281.762 162.127 280.76 162.007 280.232C161.887 279.692 161.767 279.422 161.647 279.422C161.527 279.422 161.377 279.542 161.197 279.782ZM159.595 288.26L159.991 288.188C160.111 288.188 160.171 288.254 160.171 288.386C160.171 288.806 160.087 289.16 159.919 289.448C159.751 289.736 159.541 289.94 159.289 290.06C158.881 290.264 158.533 290.366 158.245 290.366C157.693 290.366 157.279 290.162 157.003 289.754C156.727 289.334 156.589 288.71 156.589 287.882C156.589 287.042 156.817 285.956 157.273 284.624H156.229C156.097 284.624 156.031 284.558 156.031 284.426C156.031 284.294 156.133 284.084 156.337 283.796C156.541 283.496 156.757 283.346 156.985 283.346H157.795C158.647 281.45 159.649 279.812 160.801 278.432C161.101 278.072 161.467 277.736 161.899 277.424C162.343 277.112 162.685 276.956 162.925 276.956C163.165 276.956 163.345 277.064 163.465 277.28C163.777 277.784 164.143 279.626 164.563 282.806C164.707 284.174 164.953 285.59 165.301 287.054C165.661 288.506 165.991 289.352 166.291 289.592C166.363 289.64 166.399 289.7 166.399 289.772C166.399 289.952 166.141 290.12 165.625 290.276C165.121 290.432 164.731 290.51 164.455 290.51C164.191 290.51 163.987 290.474 163.843 290.402C163.699 290.342 163.609 290.276 163.573 290.204C163.357 289.736 163.141 288.62 162.925 286.856L162.817 286.01C162.769 285.446 162.721 285.02 162.673 284.732L162.547 284.642L158.785 284.624C158.641 285.236 158.569 285.77 158.569 286.226C158.569 286.682 158.581 287.018 158.605 287.234C158.641 287.438 158.743 287.66 158.911 287.9C159.079 288.14 159.307 288.26 159.595 288.26ZM170.574 282.014C170.79 282.014 170.982 282.044 171.15 282.104C171.33 282.152 171.426 282.176 171.438 282.176L171.546 282.086L171.474 280.124C171.45 279.788 171.378 279.5 171.258 279.26C171.138 279.02 171.03 278.864 170.934 278.792L170.772 278.702C170.7 278.654 170.664 278.6 170.664 278.54C170.664 278.36 170.94 278.15 171.492 277.91C172.056 277.67 172.494 277.55 172.806 277.55C173.118 277.55 173.286 277.616 173.31 277.748C173.37 278.156 173.4 278.936 173.4 280.088C173.4 281.228 173.37 282.35 173.31 283.454C173.262 284.558 173.238 285.812 173.238 287.216C173.238 288.608 173.328 289.484 173.508 289.844C173.556 289.928 173.58 290.006 173.58 290.078C173.58 290.258 173.322 290.348 172.806 290.348C171.822 290.348 171.33 290.114 171.33 289.646C171.306 289.454 171.294 289.16 171.294 288.764C171.294 288.356 171.33 287.606 171.402 286.514C171.486 285.41 171.528 284.564 171.528 283.976C171.528 283.376 171.228 283.076 170.628 283.076C170.04 283.076 169.59 283.424 169.278 284.12C168.966 284.816 168.81 285.512 168.81 286.208C168.81 287.684 169.182 288.422 169.926 288.422C170.034 288.422 170.136 288.404 170.232 288.368C170.34 288.32 170.406 288.296 170.43 288.296C170.526 288.296 170.598 288.356 170.646 288.476C170.706 288.596 170.736 288.716 170.736 288.836C170.736 289.244 170.574 289.592 170.25 289.88C169.926 290.156 169.53 290.294 169.062 290.294C168.342 290.294 167.796 289.982 167.424 289.358C167.064 288.722 166.884 287.936 166.884 287C166.884 285.812 167.166 284.708 167.73 283.688C168.018 283.184 168.408 282.782 168.9 282.482C169.392 282.17 169.95 282.014 170.574 282.014ZM176.24 285.524L176.258 285.974C176.258 286.046 176.306 286.082 176.402 286.082C176.786 286.046 177.122 285.95 177.41 285.794C177.698 285.626 177.914 285.44 178.058 285.236C178.346 284.792 178.502 284.408 178.526 284.084L178.544 283.868C178.544 283.22 178.286 282.896 177.77 282.896C177.386 282.896 177.074 283.064 176.834 283.4C176.438 283.928 176.24 284.636 176.24 285.524ZM180.164 287.918C180.164 288.374 180.068 288.776 179.876 289.124C179.696 289.46 179.486 289.712 179.246 289.88C179.018 290.036 178.748 290.162 178.436 290.258C178.04 290.378 177.662 290.438 177.302 290.438C176.294 290.438 175.55 290.06 175.07 289.304C174.59 288.548 174.35 287.588 174.35 286.424C174.35 285.248 174.644 284.204 175.232 283.292C175.832 282.38 176.726 281.924 177.914 281.924C178.994 281.924 179.726 282.302 180.11 283.058C180.266 283.346 180.344 283.622 180.344 283.886C180.344 284.138 180.332 284.342 180.308 284.498C180.284 284.642 180.2 284.864 180.056 285.164C179.912 285.464 179.72 285.734 179.48 285.974C179.24 286.214 178.862 286.442 178.346 286.658C177.83 286.874 177.224 287.018 176.528 287.09C176.432 287.09 176.384 287.132 176.384 287.216C176.384 287.324 176.42 287.486 176.492 287.702C176.576 287.906 176.666 288.08 176.762 288.224C177.026 288.56 177.416 288.728 177.932 288.728C178.448 288.728 178.886 288.56 179.246 288.224C179.438 288.044 179.594 287.822 179.714 287.558C179.762 287.462 179.822 287.414 179.894 287.414C179.978 287.414 180.044 287.48 180.092 287.612C180.14 287.744 180.164 287.846 180.164 287.918ZM184.481 295.082C184.481 295.226 184.409 295.298 184.265 295.298H184.247C183.851 295.298 183.401 295.16 182.897 294.884C182.405 294.608 182.159 294.29 182.159 293.93C182.159 293.57 182.387 292.94 182.843 292.04C183.299 291.152 183.527 290.558 183.527 290.258C183.527 289.934 183.371 289.352 183.059 288.512C182.663 287.42 182.345 286.532 182.105 285.848C181.877 285.164 181.625 284.564 181.349 284.048C181.085 283.52 180.893 283.208 180.773 283.112L180.593 282.986C180.461 282.914 180.395 282.836 180.395 282.752C180.395 282.584 180.653 282.416 181.169 282.248C181.697 282.068 182.159 281.978 182.555 281.978C182.735 281.978 182.885 282.122 183.005 282.41C183.221 282.974 183.455 283.754 183.707 284.75C184.319 286.79 184.703 287.81 184.859 287.81C184.967 287.81 185.183 287.39 185.507 286.55C185.843 285.71 186.011 285.032 186.011 284.516C186.011 283.616 185.747 283.088 185.219 282.932C185.099 282.908 185.039 282.848 185.039 282.752C185.039 282.536 185.321 282.332 185.885 282.14C186.449 281.936 186.959 281.834 187.415 281.834C187.811 281.834 188.009 282.092 188.009 282.608C188.009 283.004 187.925 283.466 187.757 283.994C187.589 284.522 187.433 284.942 187.289 285.254C187.145 285.554 186.785 286.262 186.209 287.378C185.645 288.482 185.177 289.454 184.805 290.294C184.397 291.302 184.193 292.328 184.193 293.372C184.193 293.924 184.241 294.338 184.337 294.614C184.433 294.89 184.481 295.046 184.481 295.082ZM190.139 285.524L190.157 285.974C190.157 286.046 190.205 286.082 190.301 286.082C190.685 286.046 191.021 285.95 191.309 285.794C191.597 285.626 191.813 285.44 191.957 285.236C192.245 284.792 192.401 284.408 192.425 284.084L192.443 283.868C192.443 283.22 192.185 282.896 191.669 282.896C191.285 282.896 190.973 283.064 190.733 283.4C190.337 283.928 190.139 284.636 190.139 285.524ZM194.063 287.918C194.063 288.374 193.967 288.776 193.775 289.124C193.595 289.46 193.385 289.712 193.145 289.88C192.917 290.036 192.647 290.162 192.335 290.258C191.939 290.378 191.561 290.438 191.201 290.438C190.193 290.438 189.449 290.06 188.969 289.304C188.489 288.548 188.249 287.588 188.249 286.424C188.249 285.248 188.543 284.204 189.131 283.292C189.731 282.38 190.625 281.924 191.813 281.924C192.893 281.924 193.625 282.302 194.009 283.058C194.165 283.346 194.243 283.622 194.243 283.886C194.243 284.138 194.231 284.342 194.207 284.498C194.183 284.642 194.099 284.864 193.955 285.164C193.811 285.464 193.619 285.734 193.379 285.974C193.139 286.214 192.761 286.442 192.245 286.658C191.729 286.874 191.123 287.018 190.427 287.09C190.331 287.09 190.283 287.132 190.283 287.216C190.283 287.324 190.319 287.486 190.391 287.702C190.475 287.906 190.565 288.08 190.661 288.224C190.925 288.56 191.315 288.728 191.831 288.728C192.347 288.728 192.785 288.56 193.145 288.224C193.337 288.044 193.493 287.822 193.613 287.558C193.661 287.462 193.721 287.414 193.793 287.414C193.877 287.414 193.943 287.48 193.991 287.612C194.039 287.744 194.063 287.846 194.063 287.918ZM199.262 290.204C199.43 289.364 199.514 288.188 199.514 286.676C199.514 285.152 199.508 284.252 199.496 283.976C199.484 283.7 199.4 283.478 199.244 283.31C199.088 283.142 198.95 283.046 198.83 283.022C198.722 282.998 198.566 282.986 198.362 282.986C198.158 282.986 197.96 283.082 197.768 283.274C197.576 283.454 197.462 283.64 197.426 283.832L197.354 284.12C197.318 284.48 197.3 285.278 197.3 286.514C197.3 287.75 197.324 288.53 197.372 288.854C197.432 289.166 197.462 289.376 197.462 289.484C197.462 289.592 197.414 289.7 197.318 289.808C196.91 290.24 196.334 290.456 195.59 290.456C195.326 290.456 195.194 290.378 195.194 290.222C195.434 288.782 195.554 286.946 195.554 284.714C195.554 283.886 195.536 283.328 195.5 283.04L195.428 282.464C195.416 282.332 195.392 282.188 195.356 282.032C195.356 281.888 195.542 281.816 195.914 281.816C196.466 281.816 196.832 282.02 197.012 282.428C197.024 282.476 197.048 282.5 197.084 282.5C197.12 282.5 197.204 282.452 197.336 282.356C197.732 282.044 198.266 281.888 198.938 281.888C199.322 281.888 199.7 281.96 200.072 282.104C200.444 282.248 200.702 282.44 200.846 282.68C200.858 282.704 200.876 282.716 200.9 282.716C200.924 282.716 200.96 282.692 201.008 282.644C201.512 282.14 202.166 281.888 202.97 281.888C204.038 281.888 204.77 282.272 205.166 283.04C205.31 283.34 205.382 283.718 205.382 284.174C205.382 284.63 205.346 285.278 205.274 286.118C205.202 286.958 205.166 287.6 205.166 288.044C205.166 288.488 205.208 288.89 205.292 289.25C205.388 289.61 205.478 289.868 205.562 290.024C205.658 290.18 205.706 290.27 205.706 290.294C205.706 290.45 205.538 290.528 205.202 290.528C204.374 290.528 203.798 290.36 203.474 290.024C203.15 289.688 202.988 289.25 202.988 288.71C202.988 288.158 203.096 287.42 203.312 286.496C203.54 285.56 203.654 284.858 203.654 284.39C203.654 283.442 203.27 282.968 202.502 282.968C202.178 282.968 201.92 283.064 201.728 283.256C201.536 283.448 201.422 283.64 201.386 283.832L201.35 284.12C201.302 284.672 201.278 285.338 201.278 286.118C201.278 286.898 201.29 287.51 201.314 287.954C201.338 288.386 201.362 288.728 201.386 288.98C201.41 289.22 201.422 289.364 201.422 289.412C201.422 289.748 201.212 290.006 200.792 290.186C200.372 290.366 199.964 290.456 199.568 290.456C199.364 290.456 199.262 290.372 199.262 290.204ZM208.295 280.466L207.863 280.448C207.539 280.448 207.329 280.526 207.233 280.682C207.209 280.718 207.179 280.736 207.143 280.736C206.987 280.736 206.909 280.472 206.909 279.944C206.909 279.404 206.987 279.062 207.143 278.918C207.311 278.774 207.593 278.702 207.989 278.702C208.397 278.702 208.673 278.774 208.817 278.918C208.961 279.05 209.033 279.278 209.033 279.602C209.033 279.926 208.979 280.154 208.871 280.286C208.763 280.406 208.571 280.466 208.295 280.466ZM206.855 289.556L207.053 285.362C207.053 284.366 206.939 283.688 206.711 283.328C206.639 283.208 206.555 283.118 206.459 283.058C206.387 283.034 206.351 282.986 206.351 282.914C206.351 282.698 206.657 282.488 207.269 282.284C207.881 282.08 208.325 281.978 208.601 281.978C208.889 281.978 209.039 282.05 209.051 282.194C209.051 282.434 209.015 283.118 208.943 284.246C208.883 285.362 208.853 286.538 208.853 287.774C208.853 289.01 208.925 289.778 209.069 290.078C209.105 290.138 209.123 290.198 209.123 290.258C209.123 290.414 208.895 290.492 208.439 290.492C207.983 290.492 207.515 290.372 207.035 290.132C206.915 290.072 206.855 289.88 206.855 289.556ZM129.321 301.696L129.285 304C129.285 305.596 129.459 306.556 129.807 306.88C129.855 306.928 129.879 306.982 129.879 307.042C129.879 307.222 129.489 307.312 128.709 307.312C127.941 307.312 127.533 307.084 127.485 306.628C127.473 306.52 127.467 306.298 127.467 305.962L127.539 303.082C127.539 302.998 127.491 302.956 127.395 302.956C126.819 302.956 126.279 303.118 125.775 303.442C125.271 303.766 125.019 304.18 125.019 304.684C125.019 304.948 125.091 305.17 125.235 305.35C125.379 305.53 125.553 305.62 125.757 305.62C125.973 305.62 126.147 305.578 126.279 305.494C126.423 305.41 126.507 305.362 126.531 305.35C126.735 305.374 126.837 305.59 126.837 305.998C126.837 306.394 126.651 306.718 126.279 306.97C125.907 307.21 125.517 307.33 125.109 307.33C124.701 307.33 124.347 307.258 124.047 307.114C123.759 306.97 123.549 306.808 123.417 306.628C123.285 306.448 123.177 306.244 123.093 306.016C123.009 305.74 122.967 305.5 122.967 305.296C122.967 304.456 123.231 303.784 123.759 303.28C124.287 302.776 124.965 302.416 125.793 302.2C126.885 301.984 127.455 301.786 127.503 301.606C127.539 301.474 127.557 301.252 127.557 300.94C127.557 300.304 127.233 299.986 126.585 299.986C126.309 299.986 126.063 300.076 125.847 300.256C125.631 300.424 125.523 300.64 125.523 300.904L125.631 301.336C125.607 301.54 125.391 301.66 124.983 301.696L124.785 301.714C124.425 301.714 124.137 301.624 123.921 301.444C123.717 301.264 123.615 301.024 123.615 300.724C123.615 300.532 123.675 300.322 123.795 300.094C123.927 299.854 124.089 299.662 124.281 299.518C124.473 299.374 124.767 299.248 125.163 299.14C125.571 299.02 125.961 298.96 126.333 298.96C126.705 298.96 126.993 298.972 127.197 298.996C127.401 299.02 127.677 299.08 128.025 299.176C128.385 299.26 128.679 299.428 128.907 299.68C129.147 299.932 129.273 300.202 129.285 300.49C129.309 300.766 129.321 301.168 129.321 301.696ZM140.563 307.456C140.443 307.54 140.353 307.582 140.293 307.582C140.161 307.582 140.071 307.528 140.023 307.42C139.663 306.7 139.363 305.728 139.123 304.504C139.111 304.456 139.093 304.432 139.069 304.432L138.961 304.504C138.637 305.08 138.259 305.614 137.827 306.106C137.407 306.598 137.065 306.946 136.801 307.15L136.405 307.456C136.285 307.564 136.189 307.618 136.117 307.618C135.985 307.618 135.895 307.558 135.847 307.438C135.583 306.934 135.277 305.956 134.929 304.504L134.767 303.766C134.539 302.71 134.305 301.864 134.065 301.228C133.837 300.592 133.663 300.22 133.543 300.112L133.363 299.95C133.255 299.914 133.201 299.854 133.201 299.77C133.201 299.602 133.447 299.422 133.939 299.23C134.443 299.038 134.833 298.942 135.109 298.942C135.385 298.942 135.565 299.056 135.649 299.284C135.745 299.5 135.889 300.118 136.081 301.138C136.585 303.826 136.951 305.17 137.179 305.17C137.251 305.17 137.329 305.11 137.413 304.99C137.509 304.858 137.617 304.702 137.737 304.522C137.869 304.342 138.043 304.03 138.259 303.586C138.475 303.142 138.583 302.752 138.583 302.416C138.583 302.356 138.541 302.14 138.457 301.768C138.373 301.384 138.247 301.018 138.079 300.67C137.923 300.31 137.797 300.106 137.701 300.058C137.485 299.938 137.377 299.836 137.377 299.752C137.377 299.608 137.623 299.44 138.115 299.248C138.607 299.044 139.051 298.942 139.447 298.942C139.627 298.942 139.753 299.05 139.825 299.266C140.005 299.83 140.221 300.844 140.473 302.308C140.797 304.18 141.097 305.116 141.373 305.116C141.469 305.116 141.613 304.984 141.805 304.72C141.997 304.444 142.183 304.048 142.363 303.532C142.555 303.016 142.651 302.578 142.651 302.218C142.651 301.846 142.633 301.564 142.597 301.372C142.573 301.168 142.471 300.934 142.291 300.67C142.111 300.406 141.907 300.256 141.679 300.22C141.451 300.172 141.337 300.094 141.337 299.986C141.337 299.818 141.583 299.602 142.075 299.338C142.579 299.074 143.095 298.942 143.623 298.942C144.127 298.942 144.379 299.446 144.379 300.454C144.379 301.714 144.007 303.01 143.263 304.342C142.519 305.674 141.619 306.712 140.563 307.456ZM146.615 302.524L146.633 302.974C146.633 303.046 146.681 303.082 146.777 303.082C147.161 303.046 147.497 302.95 147.785 302.794C148.073 302.626 148.289 302.44 148.433 302.236C148.721 301.792 148.877 301.408 148.901 301.084L148.919 300.868C148.919 300.22 148.661 299.896 148.145 299.896C147.761 299.896 147.449 300.064 147.209 300.4C146.813 300.928 146.615 301.636 146.615 302.524ZM150.539 304.918C150.539 305.374 150.443 305.776 150.251 306.124C150.071 306.46 149.861 306.712 149.621 306.88C149.393 307.036 149.123 307.162 148.811 307.258C148.415 307.378 148.037 307.438 147.677 307.438C146.669 307.438 145.925 307.06 145.445 306.304C144.965 305.548 144.725 304.588 144.725 303.424C144.725 302.248 145.019 301.204 145.607 300.292C146.207 299.38 147.101 298.924 148.289 298.924C149.369 298.924 150.101 299.302 150.485 300.058C150.641 300.346 150.719 300.622 150.719 300.886C150.719 301.138 150.707 301.342 150.683 301.498C150.659 301.642 150.575 301.864 150.431 302.164C150.287 302.464 150.095 302.734 149.855 302.974C149.615 303.214 149.237 303.442 148.721 303.658C148.205 303.874 147.599 304.018 146.903 304.09C146.807 304.09 146.759 304.132 146.759 304.216C146.759 304.324 146.795 304.486 146.867 304.702C146.951 304.906 147.041 305.08 147.137 305.224C147.401 305.56 147.791 305.728 148.307 305.728C148.823 305.728 149.261 305.56 149.621 305.224C149.813 305.044 149.969 304.822 150.089 304.558C150.137 304.462 150.197 304.414 150.269 304.414C150.353 304.414 150.419 304.48 150.467 304.612C150.515 304.744 150.539 304.846 150.539 304.918ZM155.13 300.886L154.716 300.994C154.5 300.994 154.392 300.796 154.392 300.4C154.392 299.992 154.536 299.668 154.824 299.428C155.124 299.176 155.502 299.05 155.958 299.05C156.21 299.05 156.48 299.128 156.768 299.284C157.056 299.428 157.296 299.614 157.488 299.842C157.68 300.058 157.848 300.406 157.992 300.886C158.148 301.354 158.226 301.906 158.226 302.542C158.226 304.006 157.83 305.194 157.038 306.106C156.258 307.018 155.124 307.474 153.636 307.474C153.204 307.474 152.778 307.432 152.358 307.348L152.178 307.312C152.022 307.264 151.932 307.18 151.908 307.06C151.872 306.808 151.854 306.214 151.854 305.278L151.962 299.446C151.962 298.546 151.938 297.856 151.89 297.376L151.854 297.124C151.83 296.788 151.758 296.5 151.638 296.26C151.53 296.02 151.422 295.864 151.314 295.792L151.17 295.702C151.086 295.654 151.044 295.6 151.044 295.54C151.044 295.36 151.344 295.15 151.944 294.91C152.544 294.658 152.982 294.532 153.258 294.532C153.534 294.532 153.678 294.604 153.69 294.748C153.774 295.48 153.816 296.524 153.816 297.88L153.726 302.2C153.726 304.084 153.78 305.386 153.888 306.106C153.9 306.274 154.086 306.358 154.446 306.358C154.818 306.358 155.136 306.256 155.4 306.052C155.664 305.848 155.862 305.578 155.994 305.242C156.234 304.63 156.354 303.952 156.354 303.208C156.354 302.86 156.306 302.482 156.21 302.074C156.042 301.282 155.682 300.886 155.13 300.886ZM166.145 299.014C166.361 299.014 166.553 299.044 166.721 299.104C166.901 299.152 166.997 299.176 167.009 299.176L167.117 299.086L167.045 297.124C167.021 296.788 166.949 296.5 166.829 296.26C166.709 296.02 166.601 295.864 166.505 295.792L166.343 295.702C166.271 295.654 166.235 295.6 166.235 295.54C166.235 295.36 166.511 295.15 167.063 294.91C167.627 294.67 168.065 294.55 168.377 294.55C168.689 294.55 168.857 294.616 168.881 294.748C168.941 295.156 168.971 295.936 168.971 297.088C168.971 298.228 168.941 299.35 168.881 300.454C168.833 301.558 168.809 302.812 168.809 304.216C168.809 305.608 168.899 306.484 169.079 306.844C169.127 306.928 169.151 307.006 169.151 307.078C169.151 307.258 168.893 307.348 168.377 307.348C167.393 307.348 166.901 307.114 166.901 306.646C166.877 306.454 166.865 306.16 166.865 305.764C166.865 305.356 166.901 304.606 166.973 303.514C167.057 302.41 167.099 301.564 167.099 300.976C167.099 300.376 166.799 300.076 166.199 300.076C165.611 300.076 165.161 300.424 164.849 301.12C164.537 301.816 164.381 302.512 164.381 303.208C164.381 304.684 164.753 305.422 165.497 305.422C165.605 305.422 165.707 305.404 165.803 305.368C165.911 305.32 165.977 305.296 166.001 305.296C166.097 305.296 166.169 305.356 166.217 305.476C166.277 305.596 166.307 305.716 166.307 305.836C166.307 306.244 166.145 306.592 165.821 306.88C165.497 307.156 165.101 307.294 164.633 307.294C163.913 307.294 163.367 306.982 162.995 306.358C162.635 305.722 162.455 304.936 162.455 304C162.455 302.812 162.737 301.708 163.301 300.688C163.589 300.184 163.979 299.782 164.471 299.482C164.963 299.17 165.521 299.014 166.145 299.014ZM171.811 302.524L171.829 302.974C171.829 303.046 171.877 303.082 171.973 303.082C172.357 303.046 172.693 302.95 172.981 302.794C173.269 302.626 173.485 302.44 173.629 302.236C173.917 301.792 174.073 301.408 174.097 301.084L174.115 300.868C174.115 300.22 173.857 299.896 173.341 299.896C172.957 299.896 172.645 300.064 172.405 300.4C172.009 300.928 171.811 301.636 171.811 302.524ZM175.735 304.918C175.735 305.374 175.639 305.776 175.447 306.124C175.267 306.46 175.057 306.712 174.817 306.88C174.589 307.036 174.319 307.162 174.007 307.258C173.611 307.378 173.233 307.438 172.873 307.438C171.865 307.438 171.121 307.06 170.641 306.304C170.161 305.548 169.921 304.588 169.921 303.424C169.921 302.248 170.215 301.204 170.803 300.292C171.403 299.38 172.297 298.924 173.485 298.924C174.565 298.924 175.297 299.302 175.681 300.058C175.837 300.346 175.915 300.622 175.915 300.886C175.915 301.138 175.903 301.342 175.879 301.498C175.855 301.642 175.771 301.864 175.627 302.164C175.483 302.464 175.291 302.734 175.051 302.974C174.811 303.214 174.433 303.442 173.917 303.658C173.401 303.874 172.795 304.018 172.099 304.09C172.003 304.09 171.955 304.132 171.955 304.216C171.955 304.324 171.991 304.486 172.063 304.702C172.147 304.906 172.237 305.08 172.333 305.224C172.597 305.56 172.987 305.728 173.503 305.728C174.019 305.728 174.457 305.56 174.817 305.224C175.009 305.044 175.165 304.822 175.285 304.558C175.333 304.462 175.393 304.414 175.465 304.414C175.549 304.414 175.615 304.48 175.663 304.612C175.711 304.744 175.735 304.846 175.735 304.918ZM180.916 299.32C181.432 299.068 181.942 298.942 182.446 298.942C182.95 298.942 183.202 299.464 183.202 300.508C183.202 301.276 183.058 302.056 182.77 302.848C182.494 303.64 182.146 304.336 181.726 304.936C180.862 306.196 180.082 307.036 179.386 307.456C179.218 307.552 179.092 307.6 179.008 307.6C178.924 307.6 178.834 307.51 178.738 307.33C178.654 307.15 178.516 306.754 178.324 306.142C178.144 305.53 177.994 304.984 177.874 304.504L177.712 303.766C177.472 302.71 177.238 301.87 177.01 301.246C176.782 300.61 176.614 300.244 176.506 300.148L176.326 299.986C176.206 299.926 176.146 299.854 176.146 299.77L176.236 299.608C176.392 299.464 176.65 299.32 177.01 299.176C177.382 299.02 177.79 298.942 178.234 298.942C178.438 298.942 178.564 299.056 178.612 299.284C178.792 299.836 178.948 300.484 179.08 301.228C179.212 301.972 179.386 302.812 179.602 303.748C179.83 304.684 180.016 305.158 180.16 305.17C180.232 305.17 180.31 305.116 180.394 305.008C180.49 304.9 180.598 304.756 180.718 304.576C180.85 304.396 181.006 304.048 181.186 303.532C181.378 303.016 181.474 302.578 181.474 302.218C181.474 301.846 181.456 301.564 181.42 301.372C181.396 301.168 181.294 300.934 181.114 300.67C180.934 300.406 180.73 300.256 180.502 300.22C180.274 300.172 180.16 300.094 180.16 299.986C180.16 299.794 180.412 299.572 180.916 299.32ZM185.675 302.524L185.693 302.974C185.693 303.046 185.741 303.082 185.837 303.082C186.221 303.046 186.557 302.95 186.845 302.794C187.133 302.626 187.349 302.44 187.493 302.236C187.781 301.792 187.937 301.408 187.961 301.084L187.979 300.868C187.979 300.22 187.721 299.896 187.205 299.896C186.821 299.896 186.509 300.064 186.269 300.4C185.873 300.928 185.675 301.636 185.675 302.524ZM189.599 304.918C189.599 305.374 189.503 305.776 189.311 306.124C189.131 306.46 188.921 306.712 188.681 306.88C188.453 307.036 188.183 307.162 187.871 307.258C187.475 307.378 187.097 307.438 186.737 307.438C185.729 307.438 184.985 307.06 184.505 306.304C184.025 305.548 183.785 304.588 183.785 303.424C183.785 302.248 184.079 301.204 184.667 300.292C185.267 299.38 186.161 298.924 187.349 298.924C188.429 298.924 189.161 299.302 189.545 300.058C189.701 300.346 189.779 300.622 189.779 300.886C189.779 301.138 189.767 301.342 189.743 301.498C189.719 301.642 189.635 301.864 189.491 302.164C189.347 302.464 189.155 302.734 188.915 302.974C188.675 303.214 188.297 303.442 187.781 303.658C187.265 303.874 186.659 304.018 185.963 304.09C185.867 304.09 185.819 304.132 185.819 304.216C185.819 304.324 185.855 304.486 185.927 304.702C186.011 304.906 186.101 305.08 186.197 305.224C186.461 305.56 186.851 305.728 187.367 305.728C187.883 305.728 188.321 305.56 188.681 305.224C188.873 305.044 189.029 304.822 189.149 304.558C189.197 304.462 189.257 304.414 189.329 304.414C189.413 304.414 189.479 304.48 189.527 304.612C189.575 304.744 189.599 304.846 189.599 304.918ZM192.984 296.8L192.876 303.406C192.876 305.47 192.942 306.706 193.074 307.114C193.11 307.186 193.128 307.258 193.128 307.33C193.128 307.474 192.954 307.546 192.606 307.546C192.258 307.546 191.868 307.456 191.436 307.276C191.016 307.108 190.806 306.886 190.806 306.61C191.046 304.93 191.166 302.686 191.166 299.878L191.094 297.124C191.07 296.788 190.998 296.5 190.878 296.26C190.77 296.02 190.662 295.864 190.554 295.792L190.41 295.702C190.326 295.654 190.284 295.6 190.284 295.54C190.284 295.372 190.542 295.168 191.058 294.928C191.586 294.676 192.096 294.55 192.588 294.55C192.78 294.55 192.888 294.616 192.912 294.748C192.96 295.06 192.984 295.744 192.984 296.8ZM196.113 300.31C195.801 300.322 195.573 300.334 195.429 300.346C195.297 300.346 195.231 300.31 195.231 300.238C195.231 300.166 195.267 300.094 195.339 300.022C196.107 299.314 197.403 298.96 199.227 298.96C199.851 298.96 200.343 299.014 200.703 299.122L200.883 299.176C201.027 299.236 201.099 299.302 201.099 299.374C201.099 299.434 201.057 299.482 200.973 299.518C200.649 299.614 200.337 299.77 200.037 299.986C199.737 300.19 199.587 300.334 199.587 300.418L199.695 300.544C200.079 300.76 200.373 301.102 200.577 301.57C200.793 302.038 200.913 302.452 200.937 302.812L200.973 303.37C200.973 304.558 200.643 305.536 199.983 306.304C199.323 307.072 198.423 307.456 197.283 307.456C196.707 307.456 196.209 307.354 195.789 307.15C195.369 306.946 195.057 306.718 194.853 306.466C194.661 306.202 194.505 305.908 194.385 305.584C194.241 305.14 194.169 304.684 194.169 304.216C194.169 303.736 194.247 303.256 194.403 302.776C194.571 302.296 194.757 301.942 194.961 301.714C195.177 301.486 195.417 301.3 195.681 301.156C196.017 300.976 196.287 300.886 196.491 300.886C196.695 300.886 196.797 300.928 196.797 301.012L196.689 301.192C196.425 301.504 196.233 301.912 196.113 302.416C196.005 302.92 195.951 303.37 195.951 303.766C195.951 304.15 195.999 304.534 196.095 304.918C196.191 305.302 196.299 305.59 196.419 305.782C196.539 305.962 196.677 306.1 196.833 306.196C197.061 306.34 197.301 306.412 197.553 306.412C197.805 306.412 198.051 306.316 198.291 306.124C198.531 305.92 198.705 305.656 198.813 305.332C199.029 304.732 199.137 304.114 199.137 303.478C199.137 302.47 198.879 301.69 198.363 301.138C197.859 300.586 197.109 300.31 196.113 300.31ZM202.014 304.342C202.038 303.13 202.05 302.134 202.05 301.354C202.05 300.574 201.996 299.83 201.888 299.122C201.888 299.002 202.008 298.942 202.248 298.942C202.488 298.942 202.692 298.972 202.86 299.032C203.04 299.092 203.166 299.158 203.238 299.23C203.43 299.422 203.538 299.518 203.562 299.518C203.598 299.518 203.694 299.464 203.85 299.356C204.318 299.056 204.834 298.906 205.398 298.906C205.974 298.906 206.472 299.05 206.892 299.338C207.324 299.626 207.63 300.004 207.81 300.472C208.134 301.276 208.296 302.128 208.296 303.028C208.296 303.916 208.134 304.804 207.81 305.692C207.63 306.172 207.366 306.568 207.018 306.88C206.67 307.18 206.262 307.33 205.794 307.33C204.87 307.33 204.408 306.796 204.408 305.728C204.408 305.44 204.468 305.296 204.588 305.296C204.612 305.296 204.678 305.326 204.786 305.386C204.906 305.434 205.02 305.458 205.128 305.458C205.98 305.458 206.406 304.558 206.406 302.758C206.406 300.946 205.95 300.04 205.038 300.04C204.786 300.04 204.57 300.1 204.39 300.22C204.222 300.328 204.114 300.436 204.066 300.544L203.994 300.724C203.826 301.804 203.742 303.886 203.742 306.97C203.742 308.362 203.766 309.358 203.814 309.958C203.874 310.57 203.904 310.936 203.904 311.056C203.904 311.176 203.868 311.284 203.796 311.38C203.556 311.692 203.232 311.968 202.824 312.208C202.416 312.46 202.056 312.586 201.744 312.586C201.624 312.586 201.564 312.508 201.564 312.352C201.756 311.14 201.906 308.47 202.014 304.342ZM211.03 302.524L211.048 302.974C211.048 303.046 211.096 303.082 211.192 303.082C211.576 303.046 211.912 302.95 212.2 302.794C212.488 302.626 212.704 302.44 212.848 302.236C213.136 301.792 213.292 301.408 213.316 301.084L213.334 300.868C213.334 300.22 213.076 299.896 212.56 299.896C212.176 299.896 211.864 300.064 211.624 300.4C211.228 300.928 211.03 301.636 211.03 302.524ZM214.954 304.918C214.954 305.374 214.858 305.776 214.666 306.124C214.486 306.46 214.276 306.712 214.036 306.88C213.808 307.036 213.538 307.162 213.226 307.258C212.83 307.378 212.452 307.438 212.092 307.438C211.084 307.438 210.34 307.06 209.86 306.304C209.38 305.548 209.14 304.588 209.14 303.424C209.14 302.248 209.434 301.204 210.022 300.292C210.622 299.38 211.516 298.924 212.704 298.924C213.784 298.924 214.516 299.302 214.9 300.058C215.056 300.346 215.134 300.622 215.134 300.886C215.134 301.138 215.122 301.342 215.098 301.498C215.074 301.642 214.99 301.864 214.846 302.164C214.702 302.464 214.51 302.734 214.27 302.974C214.03 303.214 213.652 303.442 213.136 303.658C212.62 303.874 212.014 304.018 211.318 304.09C211.222 304.09 211.174 304.132 211.174 304.216C211.174 304.324 211.21 304.486 211.282 304.702C211.366 304.906 211.456 305.08 211.552 305.224C211.816 305.56 212.206 305.728 212.722 305.728C213.238 305.728 213.676 305.56 214.036 305.224C214.228 305.044 214.384 304.822 214.504 304.558C214.552 304.462 214.612 304.414 214.684 304.414C214.768 304.414 214.834 304.48 214.882 304.612C214.93 304.744 214.954 304.846 214.954 304.918ZM221.399 302.272L221.471 302.902C221.471 303.13 221.255 303.244 220.823 303.244C219.947 303.244 219.509 302.914 219.509 302.254C219.509 302.098 219.551 301.882 219.635 301.606C219.719 301.33 219.761 301.09 219.761 300.886C219.761 300.682 219.701 300.508 219.581 300.364C219.461 300.208 219.287 300.13 219.059 300.13C218.831 300.13 218.633 300.214 218.465 300.382C218.309 300.538 218.213 300.7 218.177 300.868L218.105 301.12C218.033 301.492 217.997 302.116 217.997 302.992C217.997 303.856 218.009 304.54 218.033 305.044C218.057 305.536 218.081 305.878 218.105 306.07C218.129 306.25 218.141 306.358 218.141 306.394C218.141 306.694 217.955 306.934 217.583 307.114C217.211 307.306 216.839 307.402 216.467 307.402C216.095 307.402 215.909 307.324 215.909 307.168L215.999 306.61C216.167 305.566 216.251 304.204 216.251 302.524C216.251 300.844 216.191 299.704 216.071 299.104C216.071 298.96 216.197 298.888 216.449 298.888C217.097 298.888 217.529 299.11 217.745 299.554C217.757 299.602 217.775 299.626 217.799 299.626C217.835 299.626 217.919 299.572 218.051 299.464C218.447 299.14 218.915 298.978 219.455 298.978C219.791 298.978 220.127 299.044 220.463 299.176C221.147 299.452 221.489 300.028 221.489 300.904L221.399 302.272Z" fill="#2E4B48"/>
<circle cx="168.291" cy="372.328" r="11.4563" fill="#E5EEEE"/>
<circle cx="168.291" cy="372.329" r="8.01939" fill="#2E4B48"/>
<defs>
<filter id="filter0_dd" x="0.0775146" y="32.0771" width="336.439" height="549.174" filterUnits="userSpaceOnUse" color-interpolation-filters="sRGB">
<feFlood flood-opacity="0" result="BackgroundImageFix"/>
<feColorMatrix in="SourceAlpha" type="matrix" values="0 0 0 0 0 0 0 0 0 0 0 0 0 0 0 0 0 0 127 0"/>
<feOffset dy="12.5216"/>
<feGaussianBlur stdDeviation="5.00862"/>
<feColorMatrix type="matrix" values="0 0 0 0 0.156863 0 0 0 0 0.156863 0 0 0 0 0.156863 0 0 0 0.19 0"/>
<feBlend mode="normal" in2="BackgroundImageFix" result="effect1_dropShadow"/>
<feColorMatrix in="SourceAlpha" type="matrix" values="0 0 0 0 0 0 0 0 0 0 0 0 0 0 0 0 0 0 127 0"/>
<feOffset dy="100"/>
<feGaussianBlur stdDeviation="40"/>
<feColorMatrix type="matrix" values="0 0 0 0 0.156863 0 0 0 0 0.156863 0 0 0 0 0.156863 0 0 0 0.095 0"/>
<feBlend mode="normal" in2="effect1_dropShadow" result="effect2_dropShadow"/>
<feBlend mode="normal" in="SourceGraphic" in2="effect2_dropShadow" result="shape"/>
</filter>
<linearGradient id="paint0_linear" x1="296.85" y1="339.231" x2="-191.524" y2="-126.475" gradientUnits="userSpaceOnUse">
<stop stop-color="#2CCC9C"/>
<stop offset="1" stop-color="#4ABBBA"/>
</linearGradient>
<linearGradient id="paint1_linear" x1="153.579" y1="117.738" x2="64.7494" y2="14.2213" gradientUnits="userSpaceOnUse">
<stop stop-color="#05A660"/>
<stop offset="1" stop-color="#49BCBB"/>
</linearGradient>
</defs>
</svg>
