<svg width="83" height="73" viewBox="0 0 83 73" fill="none" xmlns="http://www.w3.org/2000/svg">
<g filter="url(#filter0_ddd)">
<path d="M20.1875 44.434L18.125 14.582H42.875L40.8125 44.434L30.5 48.0162L20.1875 44.434Z" fill="#455A64"/>
<path d="M40.8125 16.9702H30.5V46.2252L38.75 43.24L40.8125 16.9702Z" fill="#3E3E3E"/>
<path d="M23.7969 31.8965L22.7656 20.5527H38.75L38.2344 24.135H25.8594L26.375 28.3142H37.7187L36.6875 39.658L30.5 42.0462L24.3125 39.658L23.7969 33.6876H26.8906L27.4062 36.6728L30.5 37.8669L33.5937 36.6728L34.1094 31.8965H23.7969Z" fill="white"/>
</g>
<path d="M53.71 25.9V33H52.34V29.97H49.12V33H47.74V25.9H49.12V28.77H52.34V25.9H53.71ZM61.0012 27.11H58.7312V33H57.3612V27.11H55.0912V25.9H61.0012V27.11ZM68.1726 33V28.34L66.3526 31.81H65.5826L63.7626 28.34V33H62.3826V25.9H63.8626L65.9626 29.94L68.0826 25.9H69.5526V33H68.1726ZM71.5349 33V25.9H72.9149V31.79H76.5349V33H71.5349ZM79.7548 34.49C79.2414 34.49 78.7781 34.38 78.3648 34.16C77.9514 33.94 77.6381 33.64 77.4248 33.26L78.1948 32.46C78.3814 32.72 78.6148 32.9267 78.8948 33.08C79.1748 33.2333 79.4648 33.31 79.7648 33.31C80.1248 33.31 80.4181 33.2 80.6448 32.98C80.8781 32.76 80.9948 32.4733 80.9948 32.12C80.9948 31.7733 80.8848 31.4933 80.6648 31.28C80.4448 31.0667 80.1714 30.96 79.8448 30.96C79.6248 30.96 79.4181 31.01 79.2248 31.11C79.0381 31.2033 78.8881 31.34 78.7748 31.52H77.6048L78.4248 27.29H81.9248V28.51H79.3948L79.1048 30.1C79.1848 30.02 79.3014 29.9533 79.4548 29.9C79.6148 29.84 79.8081 29.81 80.0348 29.81C80.4814 29.81 80.8781 29.9067 81.2248 30.1C81.5781 30.2933 81.8548 30.5633 82.0548 30.91C82.2614 31.25 82.3648 31.6433 82.3648 32.09C82.3648 32.57 82.2514 32.99 82.0248 33.35C81.7981 33.71 81.4881 33.99 81.0948 34.19C80.7014 34.39 80.2548 34.49 79.7548 34.49Z" fill="#37474F"/>
<defs>
<filter id="filter0_ddd" x="-3.86308" y="-3.36813" width="68.7262" height="76.655" filterUnits="userSpaceOnUse" color-interpolation-filters="sRGB">
<feFlood flood-opacity="0" result="BackgroundImageFix"/>
<feColorMatrix in="SourceAlpha" type="matrix" values="0 0 0 0 0 0 0 0 0 0 0 0 0 0 0 0 0 0 127 0"/>
<feOffset dy="9.31987"/>
<feGaussianBlur stdDeviation="7.37823"/>
<feColorMatrix type="matrix" values="0 0 0 0 0 0 0 0 0 0 0 0 0 0 0 0 0 0 0.14 0"/>
<feBlend mode="normal" in2="BackgroundImageFix" result="effect1_dropShadow"/>
<feColorMatrix in="SourceAlpha" type="matrix" values="0 0 0 0 0 0 0 0 0 0 0 0 0 0 0 0 0 0 127 0"/>
<feOffset dy="3.49495"/>
<feGaussianBlur stdDeviation="8.93154"/>
<feColorMatrix type="matrix" values="0 0 0 0 0 0 0 0 0 0 0 0 0 0 0 0 0 0 0.12 0"/>
<feBlend mode="normal" in2="effect1_dropShadow" result="effect2_dropShadow"/>
<feColorMatrix in="SourceAlpha" type="matrix" values="0 0 0 0 0 0 0 0 0 0 0 0 0 0 0 0 0 0 127 0"/>
<feOffset dy="4.27161"/>
<feGaussianBlur stdDeviation="2.91246"/>
<feColorMatrix type="matrix" values="0 0 0 0 0 0 0 0 0 0 0 0 0 0 0 0 0 0 0.2 0"/>
<feBlend mode="normal" in2="effect2_dropShadow" result="effect3_dropShadow"/>
<feBlend mode="normal" in="SourceGraphic" in2="effect3_dropShadow" result="shape"/>
</filter>
</defs>
</svg>
