<svg width="102" height="33" viewBox="0 0 102 33" fill="none" xmlns="http://www.w3.org/2000/svg">
<rect width="35" height="33" fill="#2E4B48"/>
<path d="M18.7231 20.016L20.6761 18.5801C20.8291 19.1144 21.7984 20.3833 23.0227 20.3833C24.247 20.3833 24.8154 19.6403 24.8154 19.1478C24.8154 17.8055 23.5652 17.3322 22.9648 17.1049C22.8669 17.0678 22.7863 17.0373 22.7312 17.0106C22.7029 16.9969 22.6602 16.9788 22.6053 16.9555C21.9375 16.672 19.4737 15.6261 19.4737 12.5944C19.4737 9.25511 22.3741 8.87109 23.03 8.87109C23.4591 8.87109 25.5223 8.92953 26.5498 11.075L24.6551 12.5443C24.2397 11.6093 23.5495 11.3004 23.1247 11.3004C22.0753 11.3004 21.8567 12.1552 21.8567 12.5443C21.8567 13.6361 22.9968 14.1255 23.9595 14.5387C24.2114 14.6468 24.4511 14.7497 24.6551 14.8568C25.7045 15.4078 27.2494 16.3094 27.2494 19.1478C27.2494 20.5694 26.1762 22.8711 23.4745 22.8711C19.8453 22.8711 18.8834 20.4501 18.7231 20.016Z" fill="#F0F0F0"/>
<path d="M9.24939 20.3011L11.285 18.866C11.4445 19.4 12.0643 20.3846 12.9636 20.3846C13.8629 20.3846 14.3232 19.3583 14.3232 18.866V9.18689H16.8266V18.866C16.8671 20.201 16.2008 22.8711 13.2598 22.8711C10.5558 22.8711 9.43168 21.0855 9.24939 20.3011Z" fill="#F0F0F0"/>
<path d="M38.38 18.55C38.4667 18.61 38.62 18.6833 38.84 18.77C39.06 18.85 39.32 18.89 39.62 18.89C39.9733 18.89 40.24 18.8133 40.42 18.66C40.6 18.5 40.72 18.2533 40.78 17.92C40.84 17.5867 40.87 17.1533 40.87 16.62V12.9H42.25V16.51C42.25 17.0433 42.22 17.53 42.16 17.97C42.1 18.41 41.9833 18.79 41.81 19.11C41.6367 19.43 41.3733 19.6767 41.02 19.85C40.6733 20.0233 40.21 20.11 39.63 20.11C39.31 20.11 39.0233 20.0733 38.77 20C38.5167 19.9267 38.2833 19.8167 38.07 19.67L38.38 18.55ZM45.9161 12.9H47.3161L49.9261 20H48.5061L47.8461 18.23H45.3661L44.7161 20H43.2961L45.9161 12.9ZM47.5961 17.26L46.6161 14.33L45.5961 17.26H47.5961ZM51.3587 12.9L53.2787 18.36L55.1787 12.9H56.6287L53.9387 20H52.6087L49.9087 12.9H51.3587ZM59.2403 12.9H60.6403L63.2503 20H61.8303L61.1703 18.23H58.6903L58.0403 20H56.6203L59.2403 12.9ZM60.9203 17.26L59.9403 14.33L58.9203 17.26H60.9203ZM68.6712 14.76C68.6112 14.6933 68.4845 14.6067 68.2912 14.5C68.0978 14.3867 67.8645 14.2867 67.5912 14.2C67.3245 14.1067 67.0478 14.06 66.7612 14.06C66.0078 14.06 65.6312 14.3267 65.6312 14.86C65.6312 15.0533 65.6912 15.2067 65.8112 15.32C65.9312 15.4333 66.1112 15.53 66.3512 15.61C66.5912 15.69 66.8912 15.7767 67.2512 15.87C67.7178 15.99 68.1212 16.13 68.4612 16.29C68.8078 16.45 69.0712 16.6633 69.2512 16.93C69.4378 17.19 69.5312 17.5367 69.5312 17.97C69.5312 18.4767 69.4078 18.8867 69.1612 19.2C68.9212 19.5067 68.6012 19.73 68.2012 19.87C67.8012 20.01 67.3678 20.08 66.9012 20.08C66.3678 20.08 65.8378 20 65.3112 19.84C64.7912 19.6733 64.3278 19.4467 63.9212 19.16L64.5312 17.97C64.5912 18.03 64.6978 18.11 64.8512 18.21C65.0045 18.3033 65.1912 18.4 65.4112 18.5C65.6312 18.5933 65.8712 18.6733 66.1312 18.74C66.3912 18.8067 66.6545 18.84 66.9212 18.84C67.6812 18.84 68.0612 18.5967 68.0612 18.11C68.0612 17.9033 67.9845 17.7367 67.8312 17.61C67.6778 17.4833 67.4612 17.3767 67.1812 17.29C66.9078 17.2033 66.5878 17.1067 66.2212 17C65.7678 16.8733 65.3912 16.7333 65.0912 16.58C64.7978 16.42 64.5778 16.2233 64.4312 15.99C64.2845 15.75 64.2112 15.4467 64.2112 15.08C64.2112 14.5933 64.3245 14.1867 64.5512 13.86C64.7845 13.5267 65.0978 13.2767 65.4912 13.11C65.8845 12.9367 66.3212 12.85 66.8012 12.85C67.2945 12.85 67.7545 12.93 68.1812 13.09C68.6078 13.25 68.9745 13.4333 69.2812 13.64L68.6712 14.76ZM70.644 16.4C70.644 15.9667 70.7207 15.54 70.874 15.12C71.034 14.7 71.264 14.32 71.564 13.98C71.864 13.64 72.2307 13.37 72.664 13.17C73.0973 12.9633 73.5907 12.86 74.144 12.86C74.7907 12.86 75.354 13.0033 75.834 13.29C76.314 13.5767 76.6707 13.95 76.904 14.41L75.844 15.14C75.724 14.8733 75.5673 14.6633 75.374 14.51C75.1807 14.3567 74.9707 14.2467 74.744 14.18C74.524 14.1133 74.3107 14.08 74.104 14.08C73.7573 14.08 73.454 14.15 73.194 14.29C72.9407 14.43 72.7273 14.6133 72.554 14.84C72.3807 15.0667 72.2507 15.32 72.164 15.6C72.084 15.88 72.044 16.16 72.044 16.44C72.044 16.86 72.1307 17.2533 72.304 17.62C72.4773 17.98 72.7207 18.2733 73.034 18.5C73.3473 18.7267 73.7107 18.84 74.124 18.84C74.3373 18.84 74.5573 18.8033 74.784 18.73C75.0173 18.6567 75.2307 18.54 75.424 18.38C75.6173 18.22 75.7673 18.0133 75.874 17.76L77.004 18.41C76.8573 18.7633 76.6273 19.0633 76.314 19.31C76.0007 19.55 75.6473 19.7367 75.254 19.87C74.8607 19.9967 74.4707 20.06 74.084 20.06C73.5773 20.06 73.114 19.9567 72.694 19.75C72.2807 19.5367 71.9207 19.2567 71.614 18.91C71.3073 18.5567 71.0673 18.1633 70.894 17.73C70.7273 17.29 70.644 16.8467 70.644 16.4ZM78.4295 20V12.9H81.5695C81.8961 12.9 82.1961 12.9667 82.4695 13.1C82.7495 13.2333 82.9895 13.4133 83.1895 13.64C83.3961 13.8667 83.5528 14.12 83.6595 14.4C83.7728 14.68 83.8295 14.9667 83.8295 15.26C83.8295 15.7133 83.7128 16.13 83.4795 16.51C83.2528 16.89 82.9428 17.1633 82.5495 17.33L84.1695 20H82.6495L81.1895 17.62H79.8095V20H78.4295ZM79.8095 16.41H81.5395C81.7995 16.41 82.0128 16.3 82.1795 16.08C82.3528 15.8533 82.4395 15.58 82.4395 15.26C82.4395 15.04 82.3928 14.8433 82.2995 14.67C82.2061 14.4967 82.0861 14.36 81.9395 14.26C81.7995 14.16 81.6461 14.11 81.4795 14.11H79.8095V16.41ZM85.5798 20V12.9H86.9598V20H85.5798ZM88.9412 20V12.9H91.9512C92.2778 12.9 92.5778 12.9667 92.8512 13.1C93.1312 13.2333 93.3712 13.4133 93.5712 13.64C93.7712 13.8667 93.9278 14.12 94.0412 14.4C94.1545 14.68 94.2112 14.9667 94.2112 15.26C94.2112 15.66 94.1178 16.04 93.9312 16.4C93.7445 16.76 93.4845 17.0533 93.1512 17.28C92.8245 17.5067 92.4412 17.62 92.0012 17.62H90.3212V20H88.9412ZM90.3212 16.41H91.9212C92.1745 16.41 92.3845 16.3067 92.5512 16.1C92.7245 15.8867 92.8112 15.6067 92.8112 15.26C92.8112 14.8933 92.7145 14.61 92.5212 14.41C92.3278 14.21 92.1078 14.11 91.8612 14.11H90.3212V16.41ZM100.982 14.11H98.7116V20H97.3416V14.11H95.0716V12.9H100.982V14.11Z" fill="#455A64"/>
</svg>
