<svg width="400" height="592" viewBox="0 0 400 592" fill="none" xmlns="http://www.w3.org/2000/svg">
<g filter="url(#filter0_d)">
<path d="M288.516 77.0544V398.274C288.516 411.525 277.79 422.251 264.537 422.251H136.057C122.804 422.251 112.078 411.525 112.078 398.274V77.0544C112.078 63.8029 122.804 53.0771 136.057 53.0771H264.537C277.79 53.0771 288.516 63.8029 288.516 77.0544Z" fill="url(#paint0_linear)"/>
<path d="M284.507 77.0544V398.274C284.507 409.31 275.576 418.241 264.537 418.241H136.057C125.018 418.241 116.087 409.31 116.087 398.274V77.0544C116.087 66.0178 125.018 57.0868 136.057 57.0868H264.537C275.576 57.0868 284.507 66.0178 284.507 77.0544Z" stroke="#2F4949" stroke-width="8.01939"/>
</g>
<path d="M111.869 84.7318C129.47 84.7318 143.738 70.4649 143.738 52.8659C143.738 35.2668 129.47 21 111.869 21C94.2683 21 80 35.2668 80 52.8659C80 70.4649 94.2683 84.7318 111.869 84.7318Z" fill="url(#paint1_linear)"/>
<path d="M120.699 63.2451H124.02V34.6661H120.699V63.2451Z" fill="white"/>
<path d="M113.779 63.2285H117.101V42.988H113.779V63.2285Z" fill="white"/>
<path d="M106.998 63.2256H110.32V38.937H106.998V63.2256Z" fill="white"/>
<path d="M100.252 63.2451H103.574V34.6661H100.252V63.2451Z" fill="white"/>
<path d="M93.4717 63.248H96.7936V46.7096H93.4717V63.248Z" fill="white"/>
<path d="M93.4946 65.9441H128.063V34.6318H127.89V65.8057H93.4946V65.9441Z" fill="white"/>
<path d="M237.424 75.7892C239.584 75.7892 241.334 74.0387 241.334 71.8794C241.334 69.7202 239.584 67.9697 237.424 67.9697C235.265 67.9697 233.514 69.7202 233.514 71.8794C233.514 74.0387 235.265 75.7892 237.424 75.7892Z" fill="white"/>
<path d="M252.546 75.7892C254.705 75.7892 256.456 74.0387 256.456 71.8794C256.456 69.7202 254.705 67.9697 252.546 67.9697C250.386 67.9697 248.635 69.7202 248.635 71.8794C248.635 74.0387 250.386 75.7892 252.546 75.7892Z" fill="white"/>
<path d="M267.667 75.7892C269.827 75.7892 271.578 74.0387 271.578 71.8794C271.578 69.7202 269.827 67.9697 267.667 67.9697C265.508 67.9697 263.757 69.7202 263.757 71.8794C263.757 74.0387 265.508 75.7892 267.667 75.7892Z" fill="white"/>
<ellipse cx="201.943" cy="208.945" rx="73.827" ry="73.3823" fill="#E5EEEE"/>
<path d="M195.527 285.029C205.336 286.991 221.291 271.422 227.438 259.255C227.83 258.47 226.261 249.836 224.822 239.239C223.907 232.828 223.122 225.632 222.86 219.091C222.86 217.783 181.926 230.735 181.926 230.735C181.926 230.735 186.503 244.341 186.896 255.854C186.896 256.77 186.896 257.685 186.765 258.601C186.765 258.732 186.765 258.863 186.765 258.994C186.111 264.096 185.98 283.066 195.527 285.029Z" fill="#AD6359"/>
<path d="M190.95 258.994C189.381 259.124 187.942 259.124 186.765 258.994C186.765 258.863 186.765 258.732 186.765 258.601C186.896 257.685 187.027 256.9 186.896 255.854C186.504 244.341 181.926 230.735 181.926 230.735C181.926 230.735 215.145 220.137 221.684 219.091C220.768 226.679 215.275 257.554 190.95 258.994Z" fill="#263238"/>
<path d="M233.062 178.533C236.2 193.578 224.822 235.051 213.706 243.555C197.489 255.853 172.641 255.068 162.702 235.967C153.024 217.389 168.848 163.488 181.142 156.031C199.19 144.91 228.354 156.292 233.062 178.533Z" fill="#AD6359"/>
<path d="M190.426 202.477C190.426 202.346 190.557 202.608 190.557 202.739C189.772 205.486 189.249 208.888 191.473 210.458C191.603 210.458 191.473 210.588 191.342 210.588C188.465 209.411 189.119 204.963 190.426 202.477Z" fill="#263238"/>
<path d="M193.695 200.253C198.272 201.169 196.18 210.196 191.995 209.411C187.81 208.626 189.902 199.468 193.695 200.253Z" fill="#263238"/>
<path d="M173.163 198.159C173.163 198.028 172.902 198.29 172.902 198.42C172.379 201.299 171.202 204.439 168.455 204.831C168.324 204.831 168.324 204.962 168.455 204.962C171.594 205.093 173.033 200.906 173.163 198.159Z" fill="#263238"/>
<path d="M171.333 194.627C166.886 193.188 164.401 202.345 168.586 203.523C172.64 204.831 174.994 195.804 171.333 194.627Z" fill="#263238"/>
<path d="M197.751 199.336C196.443 199.074 195.266 198.681 194.089 198.42C192.65 198.027 191.473 197.897 190.427 196.719C189.904 196.065 190.035 194.887 190.558 194.364C191.866 193.056 193.697 193.056 195.397 193.448C197.228 193.841 198.666 194.626 199.843 196.196C201.02 197.504 199.451 199.597 197.751 199.336Z" fill="#263238"/>
<path d="M168.848 189.132C170.156 189.262 171.333 189.132 172.64 189.001C174.079 189.001 175.256 189.001 176.564 188.085C177.218 187.562 177.349 186.384 176.956 185.73C176.041 184.16 174.21 183.768 172.379 183.768C170.417 183.768 168.979 184.291 167.409 185.468C166.101 186.777 167.017 189.132 168.848 189.132Z" fill="#263238"/>
<path d="M187.027 228.38C186.242 228.903 185.326 229.688 184.28 229.557C183.234 229.426 182.188 228.772 181.403 228.118C181.272 228.118 181.272 228.118 181.272 228.249C181.795 229.557 183.103 230.473 184.542 230.604C185.85 230.735 186.765 229.688 187.288 228.641C187.419 228.38 187.157 228.249 187.027 228.38Z" fill="#263238"/>
<path d="M185.981 219.223C183.888 221.316 181.142 222.101 178.526 222.101C177.349 222.101 176.172 221.839 174.995 221.447C174.733 221.447 174.603 221.316 174.341 221.185C174.08 221.054 173.949 221.054 173.687 220.923C173.426 220.793 173.295 220.531 173.295 220.138C173.295 220.008 173.295 220.008 173.426 219.877V219.615C173.818 217.391 174.864 214.12 174.864 214.12C173.949 214.382 169.502 215.298 169.764 214.12C172.51 204.832 175.518 194.496 180.095 185.861C180.226 185.6 180.749 185.731 180.619 185.992C178.395 195.019 174.603 203.654 172.118 212.681C173.556 212.42 175.78 212.027 176.957 212.289C177.218 212.42 174.995 218.569 174.864 219.615C174.864 219.615 174.864 219.615 174.864 219.746C178.395 221.054 181.403 220.531 185.588 218.961C185.981 218.699 186.242 218.961 185.981 219.223Z" fill="#263238"/>
<path d="M224.953 215.557C224.953 215.557 240.124 193.055 239.47 179.58C239.208 173.431 231.1 168.982 231.1 168.982C231.1 168.982 233.977 161.787 227.438 154.984C220.638 147.919 203.244 148.573 203.244 148.573C203.244 148.573 192.781 131.696 176.565 137.453C160.348 143.078 169.764 161.656 169.764 161.656C169.764 161.656 163.486 169.637 177.48 176.832C191.081 183.897 219.722 179.056 219.722 179.056C219.722 179.056 216.714 193.447 218.676 208.493C219.461 213.988 224.953 215.557 224.953 215.557Z" fill="#263238"/>
<path d="M200.498 148.704C204.029 147.396 207.952 147.003 211.745 147.265C215.145 147.396 218.545 148.05 221.684 149.358C227.308 151.713 232.146 156.161 232.8 162.572C233.062 165.712 232.146 168.852 230.185 171.337C230.054 171.468 229.923 171.337 230.054 171.207C233.977 166.889 232.408 159.694 228.746 155.638C224.692 151.059 218.153 149.097 212.268 148.573C208.344 148.181 204.421 148.704 200.498 149.227C200.367 149.097 200.236 148.704 200.498 148.704Z" fill="#263238"/>
<path d="M164.794 144.518C166.364 140.07 170.287 137.453 174.603 136.276C179.573 134.967 184.935 135.491 189.643 137.584C194.482 139.677 198.405 143.21 201.544 147.396C201.674 147.527 201.413 147.658 201.413 147.527C195.789 140.201 186.635 135.622 177.219 137.192C173.034 137.846 168.849 139.808 166.625 143.602C164.664 147.135 164.794 151.844 166.364 155.508C168.325 160.087 172.118 163.619 176.042 166.236C176.172 166.236 176.042 166.497 175.911 166.366C171.987 164.011 168.456 161.133 166.102 157.208C164.14 153.283 163.356 148.704 164.794 144.518Z" fill="#263238"/>
<path d="M173.949 177.355C180.095 180.365 187.027 181.673 193.827 181.804C201.02 182.065 208.082 181.28 215.014 179.972C219.068 179.187 223.122 178.271 227.176 177.225C227.307 177.225 227.307 177.355 227.176 177.486C220.114 179.972 212.79 182.065 205.336 183.112C198.405 184.028 191.342 183.766 184.542 181.934C180.88 180.888 177.218 179.449 173.949 177.355C173.818 177.486 173.949 177.355 173.949 177.355Z" fill="#263238"/>
<path d="M189.381 219.091C194.482 219.745 199.713 216.997 201.675 212.026C204.159 206.139 201.282 199.336 195.266 196.85C189.381 194.364 182.581 197.242 180.096 203.26C177.611 209.148 180.488 215.951 186.504 218.437C187.55 218.698 188.466 218.96 189.381 219.091ZM192.389 197.635C193.174 197.766 193.959 198.027 194.743 198.289C199.844 200.382 202.329 206.27 200.236 211.372C198.144 216.474 192.258 218.96 187.158 216.867C182.058 214.773 179.573 208.886 181.665 203.784C183.496 199.466 187.943 196.981 192.389 197.635Z" fill="#EBEBEB"/>
<path d="M163.748 212.156C168.194 212.81 172.772 208.885 174.341 202.998C175.126 199.989 174.995 196.98 174.079 194.494C173.033 191.878 171.202 190.177 168.979 189.523C166.756 188.869 164.271 189.523 162.048 191.354C159.955 193.055 158.386 195.672 157.601 198.55C156.032 204.699 158.386 210.717 162.963 212.025C163.225 212.156 163.486 212.156 163.748 212.156ZM167.802 190.962C167.933 190.962 168.194 190.962 168.325 191.093C170.156 191.616 171.595 192.924 172.379 195.148C173.295 197.372 173.295 199.989 172.641 202.606C171.202 207.97 167.017 211.502 163.225 210.586C159.432 209.54 157.47 204.437 158.909 199.073C159.563 196.457 161.001 194.102 162.832 192.663C164.532 191.354 166.233 190.7 167.802 190.962Z" fill="#EBEBEB"/>
<path d="M180.357 204.567L181.664 203.652C180.357 201.82 176.956 198.811 173.425 201.035L174.21 202.343C177.349 200.381 180.226 204.437 180.357 204.567Z" fill="#EBEBEB"/>
<path d="M229.661 220.529L231.231 220.137C231.1 219.482 229.531 213.203 226.392 211.764C223.384 210.455 202.721 207.054 201.936 206.923L201.674 208.493C207.56 209.409 223.515 212.156 225.738 213.203C227.7 214.249 229.269 218.828 229.661 220.529Z" fill="#EBEBEB"/>
<path d="M218.415 213.203C218.415 213.203 229.4 200.643 235.155 204.699C240.909 208.755 231.754 227.725 224.169 229.687C216.584 231.65 214.753 224.716 214.753 224.716L218.415 213.203Z" fill="#AD6359"/>
<path d="M232.408 210.062C232.539 210.062 232.539 210.193 232.408 210.324C227.046 211.894 223.907 216.211 221.553 220.921C223.253 219.22 225.477 218.435 227.831 220.397C227.961 220.528 227.831 220.659 227.7 220.659C225.607 220.005 224.169 220.136 222.469 221.706C221.292 222.752 220.507 224.192 219.592 225.5C219.33 225.892 218.545 225.631 218.676 225.107V224.976C219.33 218.566 225.346 209.931 232.408 210.062Z" fill="#263238"/>
<path d="M163.348 310.096H161.968V299.629H163.348V310.096ZM165.988 302.577L165.233 302.059C165.678 301.436 165.908 300.78 165.923 300.09V299.054H167.238V299.989C167.234 300.468 167.114 300.947 166.879 301.427C166.649 301.901 166.352 302.284 165.988 302.577ZM168.194 302.577L167.44 302.059C167.885 301.436 168.115 300.78 168.13 300.09V299.054H169.445V299.989C169.44 300.468 169.321 300.947 169.086 301.427C168.856 301.901 168.559 302.284 168.194 302.577ZM172.315 302.318L172.351 303.181C172.921 302.51 173.69 302.174 174.658 302.174C175.746 302.174 176.486 302.591 176.879 303.425C177.138 303.051 177.474 302.749 177.886 302.519C178.303 302.289 178.794 302.174 179.359 302.174C181.065 302.174 181.933 303.077 181.961 304.884V310.096H180.632V304.963C180.632 304.407 180.505 303.993 180.251 303.72C179.997 303.442 179.57 303.303 178.971 303.303C178.478 303.303 178.068 303.451 177.742 303.748C177.416 304.041 177.227 304.436 177.174 304.934V310.096H175.837V304.999C175.837 303.868 175.284 303.303 174.176 303.303C173.304 303.303 172.708 303.674 172.387 304.417V310.096H171.057V302.318H172.315ZM193.89 307.364H189.505L188.52 310.096H187.097L191.094 299.629H192.301L196.305 310.096H194.889L193.89 307.364ZM189.922 306.228H193.48L191.697 301.333L189.922 306.228ZM197.32 306.142C197.32 304.949 197.603 303.99 198.168 303.267C198.734 302.538 199.474 302.174 200.39 302.174C201.3 302.174 202.021 302.486 202.553 303.109V299.054H203.883V310.096H202.661L202.596 309.262C202.064 309.914 201.324 310.239 200.375 310.239C199.474 310.239 198.739 309.87 198.168 309.132C197.603 308.394 197.32 307.431 197.32 306.243V306.142ZM198.65 306.293C198.65 307.175 198.832 307.865 199.196 308.363C199.561 308.862 200.064 309.111 200.706 309.111C201.549 309.111 202.165 308.732 202.553 307.975V304.403C202.156 303.669 201.544 303.303 200.72 303.303C200.068 303.303 199.561 303.554 199.196 304.057C198.832 304.561 198.65 305.306 198.65 306.293ZM209.319 310.239C208.265 310.239 207.407 309.894 206.746 309.204C206.084 308.509 205.754 307.582 205.754 306.422V306.178C205.754 305.406 205.9 304.719 206.192 304.115C206.489 303.506 206.901 303.032 207.428 302.692C207.96 302.347 208.535 302.174 209.154 302.174C210.165 302.174 210.951 302.507 211.511 303.173C212.072 303.839 212.352 304.793 212.352 306.034V306.588H207.083C207.103 307.355 207.325 307.975 207.752 308.45C208.183 308.919 208.729 309.154 209.391 309.154C209.86 309.154 210.258 309.058 210.584 308.866C210.91 308.675 211.195 308.421 211.44 308.105L212.252 308.737C211.6 309.739 210.622 310.239 209.319 310.239ZM209.154 303.267C208.617 303.267 208.166 303.463 207.802 303.856C207.438 304.244 207.213 304.791 207.126 305.495H211.023V305.395C210.984 304.719 210.802 304.196 210.476 303.827C210.15 303.454 209.71 303.267 209.154 303.267ZM216.48 308.148L218.291 302.318H219.715L216.588 311.296C216.104 312.59 215.335 313.237 214.28 313.237L214.029 313.215L213.533 313.122V312.044L213.892 312.073C214.343 312.073 214.692 311.981 214.942 311.799C215.196 311.617 215.404 311.284 215.567 310.8L215.862 310.009L213.087 302.318H214.539L216.48 308.148ZM224.173 310.239C223.119 310.239 222.261 309.894 221.6 309.204C220.938 308.509 220.608 307.582 220.608 306.422V306.178C220.608 305.406 220.754 304.719 221.046 304.115C221.343 303.506 221.755 303.032 222.282 302.692C222.814 302.347 223.389 302.174 224.008 302.174C225.019 302.174 225.805 302.507 226.365 303.173C226.926 303.839 227.206 304.793 227.206 306.034V306.588H221.937C221.957 307.355 222.179 307.975 222.606 308.45C223.037 308.919 223.584 309.154 224.245 309.154C224.714 309.154 225.112 309.058 225.438 308.866C225.764 308.675 226.049 308.421 226.294 308.105L227.106 308.737C226.454 309.739 225.476 310.239 224.173 310.239ZM224.008 303.267C223.471 303.267 223.02 303.463 222.656 303.856C222.292 304.244 222.067 304.791 221.981 305.495H225.877V305.395C225.838 304.719 225.656 304.196 225.33 303.827C225.004 303.454 224.564 303.267 224.008 303.267ZM230.141 302.318L230.177 303.181C230.747 302.51 231.516 302.174 232.484 302.174C233.572 302.174 234.312 302.591 234.705 303.425C234.964 303.051 235.3 302.749 235.712 302.519C236.129 302.289 236.62 302.174 237.185 302.174C238.891 302.174 239.759 303.077 239.788 304.884V310.096H238.458V304.963C238.458 304.407 238.331 303.993 238.077 303.72C237.823 303.442 237.396 303.303 236.797 303.303C236.304 303.303 235.894 303.451 235.568 303.748C235.242 304.041 235.053 304.436 235 304.934V310.096H233.663V304.999C233.663 303.868 233.11 303.303 232.003 303.303C231.13 303.303 230.534 303.674 230.213 304.417V310.096H228.883V302.318H230.141ZM243.383 310.096H242.053V302.318H243.383V310.096ZM241.945 300.255C241.945 300.039 242.01 299.857 242.14 299.709C242.274 299.56 242.47 299.486 242.729 299.486C242.988 299.486 243.184 299.56 243.318 299.709C243.453 299.857 243.52 300.039 243.52 300.255C243.52 300.47 243.453 300.65 243.318 300.794C243.184 300.938 242.988 301.01 242.729 301.01C242.47 301.01 242.274 300.938 242.14 300.794C242.01 300.65 241.945 300.47 241.945 300.255ZM156.147 327.096C156.07 326.942 156.008 326.669 155.96 326.276C155.342 326.918 154.604 327.239 153.746 327.239C152.979 327.239 152.349 327.024 151.855 326.593C151.366 326.156 151.122 325.605 151.122 324.939C151.122 324.129 151.429 323.502 152.042 323.056C152.66 322.605 153.528 322.38 154.644 322.38H155.938V321.769C155.938 321.304 155.799 320.935 155.521 320.662C155.243 320.384 154.834 320.245 154.292 320.245C153.818 320.245 153.42 320.365 153.099 320.605C152.778 320.844 152.617 321.134 152.617 321.474H151.28C151.28 321.086 151.417 320.712 151.69 320.353C151.968 319.989 152.342 319.701 152.811 319.49C153.286 319.28 153.806 319.174 154.371 319.174C155.267 319.174 155.969 319.399 156.477 319.85C156.985 320.296 157.249 320.911 157.268 321.697V325.277C157.268 325.991 157.359 326.559 157.541 326.981V327.096H156.147ZM153.94 326.082C154.357 326.082 154.752 325.974 155.126 325.759C155.5 325.543 155.77 325.263 155.938 324.918V323.322H154.896C153.267 323.322 152.452 323.799 152.452 324.752C152.452 325.169 152.591 325.495 152.869 325.73C153.147 325.965 153.504 326.082 153.94 326.082ZM170.167 325.263L171.662 319.318H172.992L170.728 327.096H169.649L167.759 321.201L165.919 327.096H164.84L162.583 319.318H163.906L165.437 325.14L167.248 319.318H168.319L170.167 325.263ZM177.716 327.239C176.662 327.239 175.804 326.894 175.143 326.204C174.481 325.509 174.151 324.582 174.151 323.422V323.178C174.151 322.406 174.297 321.719 174.589 321.115C174.886 320.506 175.298 320.032 175.826 319.692C176.357 319.347 176.933 319.174 177.551 319.174C178.562 319.174 179.348 319.507 179.908 320.173C180.469 320.839 180.75 321.793 180.75 323.034V323.588H175.48C175.5 324.355 175.722 324.975 176.149 325.45C176.58 325.919 177.127 326.154 177.788 326.154C178.258 326.154 178.655 326.058 178.981 325.866C179.307 325.675 179.592 325.421 179.837 325.105L180.649 325.737C179.997 326.739 179.02 327.239 177.716 327.239ZM177.551 320.267C177.014 320.267 176.564 320.463 176.199 320.856C175.835 321.244 175.61 321.791 175.524 322.495H179.42V322.395C179.381 321.719 179.199 321.196 178.873 320.827C178.548 320.454 178.107 320.267 177.551 320.267ZM189.018 323.293C189.018 324.482 188.744 325.438 188.198 326.161C187.652 326.88 186.919 327.239 185.998 327.239C185.016 327.239 184.256 326.892 183.72 326.197L183.655 327.096H182.433V316.054H183.763V320.173C184.3 319.507 185.04 319.174 185.984 319.174C186.928 319.174 187.669 319.531 188.205 320.245C188.747 320.959 189.018 321.937 189.018 323.178V323.293ZM187.688 323.142C187.688 322.236 187.513 321.537 187.163 321.043C186.813 320.55 186.31 320.303 185.653 320.303C184.776 320.303 184.146 320.71 183.763 321.525V324.889C184.17 325.704 184.805 326.111 185.668 326.111C186.305 326.111 186.801 325.864 187.156 325.37C187.51 324.877 187.688 324.134 187.688 323.142ZM194.304 323.142C194.304 321.949 194.587 320.99 195.152 320.267C195.718 319.538 196.458 319.174 197.373 319.174C198.284 319.174 199.005 319.486 199.537 320.109V316.054H200.867V327.096H199.645L199.58 326.262C199.048 326.914 198.308 327.239 197.359 327.239C196.458 327.239 195.722 326.87 195.152 326.132C194.587 325.394 194.304 324.431 194.304 323.243V323.142ZM195.634 323.293C195.634 324.175 195.816 324.865 196.18 325.363C196.544 325.862 197.047 326.111 197.69 326.111C198.533 326.111 199.149 325.732 199.537 324.975V321.403C199.139 320.669 198.528 320.303 197.704 320.303C197.052 320.303 196.544 320.554 196.18 321.057C195.816 321.561 195.634 322.306 195.634 323.293ZM206.303 327.239C205.248 327.239 204.391 326.894 203.729 326.204C203.068 325.509 202.737 324.582 202.737 323.422V323.178C202.737 322.406 202.883 321.719 203.176 321.115C203.473 320.506 203.885 320.032 204.412 319.692C204.944 319.347 205.519 319.174 206.137 319.174C207.149 319.174 207.934 319.507 208.495 320.173C209.056 320.839 209.336 321.793 209.336 323.034V323.588H204.067C204.086 324.355 204.309 324.975 204.736 325.45C205.167 325.919 205.713 326.154 206.375 326.154C206.844 326.154 207.242 326.058 207.568 325.866C207.894 325.675 208.179 325.421 208.423 325.105L209.236 325.737C208.584 326.739 207.606 327.239 206.303 327.239ZM206.137 320.267C205.601 320.267 205.15 320.463 204.786 320.856C204.422 321.244 204.197 321.791 204.11 322.495H208.006V322.395C207.968 321.719 207.786 321.196 207.46 320.827C207.134 320.454 206.693 320.267 206.137 320.267ZM213.485 325.291L215.412 319.318H216.77L213.981 327.096H212.968L210.15 319.318H211.509L213.485 325.291ZM221.315 327.239C220.261 327.239 219.403 326.894 218.741 326.204C218.08 325.509 217.749 324.582 217.749 323.422V323.178C217.749 322.406 217.896 321.719 218.188 321.115C218.485 320.506 218.897 320.032 219.424 319.692C219.956 319.347 220.531 319.174 221.15 319.174C222.161 319.174 222.947 319.507 223.507 320.173C224.068 320.839 224.348 321.793 224.348 323.034V323.588H219.079C219.098 324.355 219.321 324.975 219.748 325.45C220.179 325.919 220.725 326.154 221.387 326.154C221.856 326.154 222.254 326.058 222.58 325.866C222.906 325.675 223.191 325.421 223.435 325.105L224.248 325.737C223.596 326.739 222.618 327.239 221.315 327.239ZM221.15 320.267C220.613 320.267 220.162 320.463 219.798 320.856C219.434 321.244 219.209 321.791 219.122 322.495H223.019V322.395C222.98 321.719 222.798 321.196 222.472 320.827C222.146 320.454 221.705 320.267 221.15 320.267ZM227.477 327.096H226.147V316.054H227.477V327.096ZM229.397 323.135C229.397 322.373 229.546 321.688 229.843 321.079C230.145 320.47 230.562 320.001 231.094 319.67C231.631 319.339 232.242 319.174 232.927 319.174C233.986 319.174 234.841 319.541 235.493 320.274C236.15 321.007 236.478 321.982 236.478 323.2V323.293C236.478 324.05 236.332 324.731 236.04 325.335C235.752 325.934 235.337 326.401 234.796 326.736C234.259 327.072 233.641 327.239 232.941 327.239C231.887 327.239 231.032 326.873 230.375 326.14C229.723 325.406 229.397 324.436 229.397 323.228V323.135ZM230.735 323.293C230.735 324.156 230.933 324.848 231.331 325.37C231.734 325.893 232.27 326.154 232.941 326.154C233.617 326.154 234.154 325.89 234.552 325.363C234.949 324.831 235.148 324.089 235.148 323.135C235.148 322.282 234.944 321.592 234.537 321.065C234.135 320.533 233.598 320.267 232.927 320.267C232.27 320.267 231.741 320.528 231.338 321.05C230.936 321.573 230.735 322.32 230.735 323.293ZM244.854 323.293C244.854 324.477 244.583 325.43 244.042 326.154C243.5 326.878 242.767 327.239 241.842 327.239C240.898 327.239 240.155 326.94 239.614 326.341V330.086H238.284V319.318H239.499L239.563 320.181C240.105 319.51 240.857 319.174 241.82 319.174C242.755 319.174 243.493 319.526 244.034 320.231C244.581 320.935 244.854 321.915 244.854 323.171V323.293ZM243.524 323.142C243.524 322.265 243.337 321.573 242.963 321.065C242.59 320.557 242.077 320.303 241.425 320.303C240.62 320.303 240.016 320.66 239.614 321.374V325.09C240.011 325.799 240.62 326.154 241.439 326.154C242.077 326.154 242.582 325.902 242.956 325.399C243.335 324.891 243.524 324.139 243.524 323.142ZM249.916 327.239C248.862 327.239 248.004 326.894 247.342 326.204C246.681 325.509 246.35 324.582 246.35 323.422V323.178C246.35 322.406 246.497 321.719 246.789 321.115C247.086 320.506 247.498 320.032 248.025 319.692C248.557 319.347 249.132 319.174 249.751 319.174C250.762 319.174 251.548 319.507 252.108 320.173C252.669 320.839 252.949 321.793 252.949 323.034V323.588H247.68C247.7 324.355 247.922 324.975 248.349 325.45C248.78 325.919 249.326 326.154 249.988 326.154C250.457 326.154 250.855 326.058 251.181 325.866C251.507 325.675 251.792 325.421 252.036 325.105L252.849 325.737C252.197 326.739 251.219 327.239 249.916 327.239ZM249.751 320.267C249.214 320.267 248.763 320.463 248.399 320.856C248.035 321.244 247.81 321.791 247.723 322.495H251.62V322.395C251.581 321.719 251.399 321.196 251.073 320.827C250.747 320.454 250.306 320.267 249.751 320.267ZM258.392 320.511C258.191 320.478 257.973 320.461 257.738 320.461C256.866 320.461 256.274 320.832 255.963 321.575V327.096H254.633V319.318H255.927L255.948 320.216C256.384 319.522 257.003 319.174 257.803 319.174C258.062 319.174 258.258 319.208 258.392 319.275V320.511Z" fill="#2E4B48"/>
<circle cx="200.291" cy="393.328" r="11.4563" fill="#E5EEEE"/>
<circle cx="200.291" cy="393.329" r="8.01939" fill="#2E4B48"/>
<defs>
<filter id="filter0_d" x="0.951691" y="0.378304" width="398.691" height="591.425" filterUnits="userSpaceOnUse" color-interpolation-filters="sRGB">
<feFlood flood-opacity="0" result="BackgroundImageFix"/>
<feColorMatrix in="SourceAlpha" type="matrix" values="0 0 0 0 0 0 0 0 0 0 0 0 0 0 0 0 0 0 127 0"/>
<feOffset dy="58.427"/>
<feGaussianBlur stdDeviation="55.5629"/>
<feColorMatrix type="matrix" values="0 0 0 0 0 0 0 0 0 0 0 0 0 0 0 0 0 0 0.11 0"/>
<feBlend mode="normal" in2="BackgroundImageFix" result="effect1_dropShadow"/>
<feBlend mode="normal" in="SourceGraphic" in2="effect1_dropShadow" result="shape"/>
</filter>
<linearGradient id="paint0_linear" x1="328.85" y1="360.231" x2="-159.524" y2="-105.475" gradientUnits="userSpaceOnUse">
<stop stop-color="#2CCC9C"/>
<stop offset="1" stop-color="#4ABBBA"/>
</linearGradient>
<linearGradient id="paint1_linear" x1="185.579" y1="138.738" x2="96.7494" y2="35.2213" gradientUnits="userSpaceOnUse">
<stop stop-color="#05A660"/>
<stop offset="1" stop-color="#49BCBB"/>
</linearGradient>
</defs>
</svg>
