<svg width="50" height="54" viewBox="0 0 50 54" fill="none" xmlns="http://www.w3.org/2000/svg">
<circle cx="24.5" cy="27.5" r="24.5" fill="#DEFAED"/>
<path d="M17.8766 29.7527C19.4654 29.7527 20.7533 28.4649 20.7533 26.8764C20.7533 25.2878 19.4654 24 17.8766 24C16.2879 24 15 25.2878 15 26.8764C15 28.4649 16.2879 29.7527 17.8766 29.7527Z" fill="url(#paint0_linear)"/>
<path d="M28.8766 43.7527C30.4653 43.7527 31.7533 42.4649 31.7533 40.8764C31.7533 39.2878 30.4653 38 28.8766 38C27.2879 38 26 39.2878 26 40.8764C26 42.4649 27.2879 43.7527 28.8766 43.7527Z" fill="url(#paint1_linear)"/>
<path d="M10.1869 7.71777H17.4869L27.55 37H20.6213L18.3529 30.4424H9.23834L7.01124 37H0.0824851L10.1869 7.71777ZM17.2394 25.782L13.8163 14.5228L10.3106 25.782H17.2394Z" fill="#4ABBBA"/>
<path d="M22.8045 45V15.7178H33.7338C36.9507 15.7178 39.6315 16.3777 41.7761 17.6974C43.9482 18.9897 45.5841 20.7494 46.6839 22.9765C47.7837 25.1761 48.3336 27.6231 48.3336 30.3176C48.3336 33.2871 47.7288 35.8716 46.519 38.0712C45.3092 40.2709 43.6045 41.9755 41.4049 43.1853C39.2328 44.3951 36.6757 45 33.7338 45H22.8045ZM41.4461 30.3176C41.4461 27.7331 40.7725 25.6435 39.4253 24.0488C38.078 22.4541 36.1808 21.6567 33.7338 21.6567H29.5683V39.0611H33.7338C35.3835 39.0611 36.7857 38.6899 37.9405 37.9475C39.0953 37.1777 39.9614 36.1328 40.5388 34.8131C41.1437 33.4933 41.4461 31.9948 41.4461 30.3176Z" fill="#4ABBBA"/>
<defs>
<linearGradient id="paint0_linear" x1="18.8492" y1="11.3934" x2="18.1769" y2="22.1522" gradientUnits="userSpaceOnUse">
<stop offset="0.00498992" stop-color="#AD2D24"/>
<stop offset="1" stop-color="#FBB037"/>
</linearGradient>
<linearGradient id="paint1_linear" x1="29.9284" y1="24.0063" x2="29.256" y2="34.765" gradientUnits="userSpaceOnUse">
<stop offset="0.00498992" stop-color="#AD2D24"/>
<stop offset="1" stop-color="#FBB037"/>
</linearGradient>
</defs>
</svg>
