<svg width="107" height="77" viewBox="0 0 107 77" fill="none" xmlns="http://www.w3.org/2000/svg">
<g filter="url(#filter0_d)">
<path d="M35.5904 6.79379C34.574 6.13497 33.249 6.13793 32.2317 6.79379C27.1367 10.0344 22.0417 13.276 16.9459 16.5152C15.9543 17.1164 15.2855 18.3437 15.2961 19.6175V39.1977C15.289 40.4964 15.9923 41.7356 17.0094 42.3285C18.4731 43.226 19.8952 44.2147 21.3853 45.0524C23.1067 46.0272 25.2602 46.2428 27.0026 45.2262C28.4169 44.3835 29.045 42.5096 29.0433 40.7874C29.0547 34.3254 29.045 27.8633 29.0477 21.4013C29.0813 21.1141 28.8942 20.8071 28.6225 20.814C27.9713 20.8022 27.3193 20.8071 26.6682 20.8121C26.4222 20.7852 26.1821 21.0208 26.2006 21.3058C26.1919 27.7262 26.2024 34.1485 26.1954 40.5698C26.2095 41.4581 25.6889 42.3118 24.9462 42.6118C23.2308 43.3047 18.3346 39.6408 18.3346 39.6408C18.1549 39.5448 18.0408 39.3202 18.0584 39.0971C18.0584 32.6371 18.0593 26.177 18.0584 19.7179C18.0337 19.4576 18.173 19.223 18.3805 19.1167C23.4587 15.8952 28.5342 12.6656 33.6124 9.44208C33.7887 9.3064 34.0346 9.30681 34.2106 9.44307C39.2888 12.6656 44.3652 15.8922 49.4442 19.1139C49.6525 19.2201 49.7857 19.4585 49.7645 19.7179C49.7637 26.177 49.7663 32.6371 49.7628 39.0962C49.7778 39.3248 49.6754 39.5463 49.4901 39.6467C44.4594 42.8507 39.3713 45.9514 34.3861 49.2485C34.1686 49.3924 33.9223 49.5553 33.6786 49.3969C32.3676 48.5611 31.0725 47.6928 29.7659 46.849C29.6238 46.7468 29.4429 46.703 29.2948 46.8172C28.7088 47.173 28.1579 47.4612 27.4852 47.7681C26.5403 48.1992 26.6913 48.3756 27.5433 48.9477C29.0715 49.9444 30.6021 50.9372 32.1301 51.9349C33.136 52.6584 34.4876 52.7099 35.526 52.0412C40.6218 48.8047 45.7159 45.5642 50.8127 42.3277C51.8272 41.7314 52.534 40.4972 52.5268 39.1975V19.6175C52.5366 18.3695 51.8934 17.1641 50.9318 16.554C45.8191 13.2976 40.704 10.0482 35.5904 6.79379Z" fill="#2E4B48"/>
<path d="M43.2791 21.4947C41.2792 20.2615 38.8998 20.1958 36.6773 20.357C35.0717 20.5398 33.383 21.0505 32.2131 22.377C31.0133 23.7106 30.7522 25.864 31.3221 27.6049C31.7305 28.835 32.7585 29.635 33.8215 30.0582C35.1909 30.6153 36.6292 30.7876 38.0679 30.9599C39.3802 31.1171 40.6928 31.2744 41.9541 31.7237C42.4693 31.9206 43.0693 32.2216 43.2271 32.8676C43.3728 33.6327 43.2131 34.5221 42.674 35.0537C40.9619 36.6155 36.1996 36.3762 34.508 35.147C33.8241 34.6233 33.5294 33.6962 33.4096 32.8129C33.3963 32.5376 33.204 32.2851 32.9446 32.306C32.2952 32.2971 31.6459 32.2991 30.9965 32.305C30.7699 32.2831 30.5343 32.469 30.5219 32.7354C30.3885 36.7816 33.6127 38.5456 36.6377 38.934C38.3661 39.1238 40.1322 39.1129 41.8341 38.6855C43.1134 38.3498 44.3961 37.7316 45.2768 36.5958C46.3628 35.2156 46.5763 33.1607 46.0892 31.4415C45.7169 30.1587 44.6528 29.3358 43.5651 28.9125C42.086 28.3279 40.3329 28.0138 38.9932 27.8667C37.0459 27.6529 34.7318 27.7402 34.1807 26.2654C33.9609 25.4932 34.1479 24.5343 34.7637 24.0594C36.3928 22.7857 39.7084 22.9549 41.3956 23.9063C42.1704 24.3535 42.6192 25.2717 42.8045 26.1988C42.8389 26.4711 42.9979 26.7552 43.2714 26.7433C43.9162 26.7582 44.5612 26.7473 45.2061 26.7483C45.4276 26.7662 45.6701 26.6221 45.7134 26.3607C45.6861 24.4231 44.8276 22.4397 43.2791 21.4947Z" fill="#2E4B48"/>
</g>
<path d="M59.544 27.528V33H57.888V24.48H59.208L63.612 30.096V24.492H65.268V33H63.888L59.544 27.528ZM71.1763 33.06C70.5523 33.06 69.9843 32.94 69.4723 32.7C68.9683 32.46 68.5323 32.136 68.1643 31.728C67.8043 31.312 67.5243 30.848 67.3243 30.336C67.1243 29.816 67.0243 29.284 67.0243 28.74C67.0243 28.172 67.1283 27.632 67.3363 27.12C67.5443 26.6 67.8363 26.14 68.2123 25.74C68.5883 25.332 69.0283 25.012 69.5323 24.78C70.0443 24.54 70.6043 24.42 71.2123 24.42C71.8283 24.42 72.3883 24.544 72.8923 24.792C73.4043 25.04 73.8403 25.372 74.2003 25.788C74.5683 26.204 74.8483 26.672 75.0403 27.192C75.2403 27.704 75.3403 28.228 75.3403 28.764C75.3403 29.324 75.2363 29.864 75.0283 30.384C74.8203 30.896 74.5283 31.356 74.1523 31.764C73.7843 32.164 73.3443 32.48 72.8323 32.712C72.3283 32.944 71.7763 33.06 71.1763 33.06ZM68.7043 28.74C68.7043 29.236 68.8003 29.7 68.9923 30.132C69.1923 30.564 69.4763 30.916 69.8443 31.188C70.2203 31.46 70.6683 31.596 71.1883 31.596C71.7243 31.596 72.1763 31.456 72.5443 31.176C72.9123 30.896 73.1923 30.536 73.3843 30.096C73.5763 29.656 73.6723 29.204 73.6723 28.74C73.6723 28.244 73.5723 27.78 73.3723 27.348C73.1723 26.916 72.8843 26.568 72.5083 26.304C72.1403 26.032 71.7003 25.896 71.1883 25.896C70.6523 25.896 70.2003 26.036 69.8323 26.316C69.4643 26.596 69.1843 26.956 68.9923 27.396C68.8003 27.828 68.7043 28.276 68.7043 28.74ZM77.1107 33V24.48H80.2067C81.1347 24.48 81.9107 24.672 82.5347 25.056C83.1587 25.432 83.6267 25.944 83.9387 26.592C84.2507 27.232 84.4067 27.944 84.4067 28.728C84.4067 29.592 84.2347 30.344 83.8907 30.984C83.5467 31.624 83.0587 32.12 82.4267 32.472C81.7947 32.824 81.0547 33 80.2067 33H77.1107ZM82.7387 28.728C82.7387 28.176 82.6387 27.692 82.4387 27.276C82.2387 26.852 81.9507 26.524 81.5747 26.292C81.1987 26.052 80.7427 25.932 80.2067 25.932H78.7667V31.548H80.2067C80.7507 31.548 81.2107 31.428 81.5867 31.188C81.9627 30.94 82.2467 30.604 82.4387 30.18C82.6387 29.748 82.7387 29.264 82.7387 28.728ZM92.1165 31.548V33H86.2005V24.48H92.0085V25.932H87.8565V27.984H91.4445V29.328H87.8565V31.548H92.1165ZM93.4755 31.26C93.5795 31.332 93.7635 31.42 94.0275 31.524C94.2915 31.62 94.6035 31.668 94.9635 31.668C95.3875 31.668 95.7075 31.576 95.9235 31.392C96.1395 31.2 96.2835 30.904 96.3555 30.504C96.4275 30.104 96.4635 29.584 96.4635 28.944V24.48H98.1195V28.812C98.1195 29.452 98.0835 30.036 98.0115 30.564C97.9395 31.092 97.7995 31.548 97.5915 31.932C97.3835 32.316 97.0675 32.612 96.6435 32.82C96.2275 33.028 95.6715 33.132 94.9755 33.132C94.5915 33.132 94.2475 33.088 93.9435 33C93.6395 32.912 93.3595 32.78 93.1035 32.604L93.4755 31.26ZM105.378 26.712C105.306 26.632 105.154 26.528 104.922 26.4C104.69 26.264 104.41 26.144 104.082 26.04C103.762 25.928 103.43 25.872 103.086 25.872C102.182 25.872 101.73 26.192 101.73 26.832C101.73 27.064 101.802 27.248 101.946 27.384C102.09 27.52 102.306 27.636 102.594 27.732C102.882 27.828 103.242 27.932 103.674 28.044C104.234 28.188 104.718 28.356 105.126 28.548C105.542 28.74 105.858 28.996 106.074 29.316C106.298 29.628 106.41 30.044 106.41 30.564C106.41 31.172 106.262 31.664 105.966 32.04C105.678 32.408 105.294 32.676 104.814 32.844C104.334 33.012 103.814 33.096 103.254 33.096C102.614 33.096 101.978 33 101.346 32.808C100.722 32.608 100.166 32.336 99.6781 31.992L100.41 30.564C100.482 30.636 100.61 30.732 100.794 30.852C100.978 30.964 101.202 31.08 101.466 31.2C101.73 31.312 102.018 31.408 102.33 31.488C102.642 31.568 102.958 31.608 103.278 31.608C104.19 31.608 104.646 31.316 104.646 30.732C104.646 30.484 104.554 30.284 104.37 30.132C104.186 29.98 103.926 29.852 103.59 29.748C103.262 29.644 102.878 29.528 102.438 29.4C101.894 29.248 101.442 29.08 101.082 28.896C100.73 28.704 100.466 28.468 100.29 28.188C100.114 27.9 100.026 27.536 100.026 27.096C100.026 26.512 100.162 26.024 100.434 25.632C100.714 25.232 101.09 24.932 101.562 24.732C102.034 24.524 102.558 24.42 103.134 24.42C103.726 24.42 104.278 24.516 104.79 24.708C105.302 24.9 105.742 25.12 106.11 25.368L105.378 26.712Z" fill="#455A64"/>
<defs>
<filter id="filter0_d" x="-3.75645" y="-2.43659" width="75.3356" height="82.3255" filterUnits="userSpaceOnUse" color-interpolation-filters="sRGB">
<feFlood flood-opacity="0" result="BackgroundImageFix"/>
<feColorMatrix in="SourceAlpha" type="matrix" values="0 0 0 0 0 0 0 0 0 0 0 0 0 0 0 0 0 0 127 0"/>
<feOffset dy="9.31987"/>
<feGaussianBlur stdDeviation="7.37823"/>
<feColorMatrix type="matrix" values="0 0 0 0 0 0 0 0 0 0 0 0 0 0 0 0 0 0 0.14 0"/>
<feBlend mode="normal" in2="BackgroundImageFix" result="effect1_dropShadow"/>
<feBlend mode="normal" in="SourceGraphic" in2="effect1_dropShadow" result="shape"/>
</filter>
</defs>
</svg>
