<svg width="374" height="293" viewBox="0 0 374 293" fill="none" xmlns="http://www.w3.org/2000/svg">
<path d="M374 244.896H0V245.083H374V244.896Z" fill="#EBEBEB"/>
<path d="M129.569 249.668H112.23V249.855H129.569V249.668Z" fill="#EBEBEB"/>
<path d="M343.16 253.677H300.771V253.864H343.16V253.677Z" fill="#EBEBEB"/>
<path d="M74.3437 253.677H31.9546V253.864H74.3437V253.677Z" fill="#EBEBEB"/>
<path d="M177.276 211.534H32.8447C31.7132 211.532 30.6287 211.082 29.8294 210.281C29.03 209.48 28.5811 208.395 28.5811 207.263V4.23368C28.5909 3.10871 29.0442 2.03305 29.8425 1.24035C30.6408 0.447647 31.7196 0.00192714 32.8447 0H177.276C178.409 0 179.495 0.449988 180.296 1.25097C181.097 2.05195 181.547 3.13832 181.547 4.27108V4.27108V207.263C181.547 208.396 181.097 209.482 180.296 210.283C179.495 211.084 178.409 211.534 177.276 211.534V211.534ZM32.8447 0.149601C31.7628 0.151582 30.7259 0.582741 29.9616 1.34844C29.1973 2.11414 28.7681 3.15181 28.7681 4.23368V207.263C28.7681 208.345 29.1973 209.383 29.9616 210.149C30.7259 210.914 31.7628 211.345 32.8447 211.347H177.276C178.358 211.343 179.394 210.912 180.159 210.147C180.925 209.382 181.356 208.345 181.36 207.263V4.23368C181.356 3.15173 180.925 2.11522 180.159 1.35015C179.394 0.585094 178.358 0.153542 177.276 0.149601H32.8447Z" fill="#EBEBEB"/>
<path d="M339.076 211.534H194.637C193.505 211.53 192.421 211.079 191.621 210.279C190.821 209.479 190.37 208.395 190.366 207.263V4.23368C190.378 3.10802 190.833 2.03237 191.632 1.23988C192.432 0.447385 193.511 0.00190612 194.637 0H339.076C340.2 0.00389296 341.276 0.450482 342.073 1.24297C342.87 2.03546 343.322 3.11 343.332 4.23368V207.263C343.333 207.823 343.224 208.378 343.01 208.896C342.797 209.413 342.484 209.884 342.088 210.28C341.693 210.677 341.224 210.992 340.707 211.207C340.19 211.422 339.636 211.533 339.076 211.534V211.534ZM194.637 0.149601C193.555 0.153542 192.519 0.585094 191.754 1.35015C190.988 2.11522 190.557 3.15173 190.553 4.23368V207.263C190.557 208.345 190.988 209.382 191.754 210.147C192.519 210.912 193.555 211.343 194.637 211.347H339.076C340.158 211.343 341.194 210.912 341.959 210.147C342.724 209.382 343.156 208.345 343.16 207.263V4.23368C343.156 3.15173 342.724 2.11522 341.959 1.35015C341.194 0.585094 340.158 0.153542 339.076 0.149601H194.637Z" fill="#EBEBEB"/>
<path d="M337.079 268.016H320.922V268.203H337.079V268.016Z" fill="#EBEBEB"/>
<path d="M350.169 178.241C348.605 173.753 336.271 179.857 331.297 187.284C327.968 192.229 325.933 197.517 324.991 204.608C325.103 196.5 325.23 187.815 325.357 179.61C326.367 177.568 328.671 172.84 330.339 169.138C335.874 156.661 349.039 152.024 353.587 144.14C359.571 133.817 359.511 118.341 354.44 112.761C350.064 107.877 335.426 140.699 333.78 144.364C329.301 154.18 326.478 164.669 325.425 175.406C325.537 167.694 325.657 160.618 325.754 155.128C326.061 137.318 326.45 131.588 326.622 129.83C327.235 128.963 327.953 127.96 328.364 127.422C331.895 122.874 339.734 117.459 343.654 110.846C349.376 101.19 348.448 89.6329 344.439 85.3618C340.243 80.8738 332.823 91.4954 328.888 102.027C324.954 112.559 326.644 122.65 325.53 131.401C325.298 133.144 325.058 139.629 324.834 148.68C323.637 138.956 321.258 132.433 316.853 126.36C311.422 118.88 306.74 109.792 302.274 110.966C297.809 112.14 300.21 124.183 303.77 132.658C306.919 140.183 322.47 147.685 324.714 153.737C324.452 165.989 324.206 181.54 324.034 195.976C322.814 188.496 323.652 187.868 318.633 176.453C315.641 169.654 303.419 161.269 301.968 165.944C300.516 170.619 302.716 179.408 307.338 185.639C311.078 190.628 319.306 190.62 321.243 193.717C321.685 194.465 323.158 197.188 324.004 198.796C323.802 216.441 323.712 232.022 323.817 237.34L324.617 237.393C324.58 236.024 324.677 227.041 324.834 215.155C326.839 208.842 340.355 205.147 344.529 198.572C348.905 191.653 352.039 183.627 350.169 178.241Z" fill="#E6E6E6"/>
<path d="M337.46 245.299H311.535C310.852 245.291 310.193 245.05 309.667 244.616C309.14 244.182 308.778 243.581 308.64 242.913L306.792 233.832H342.247L340.407 242.913C340.267 243.59 339.897 244.197 339.36 244.632C338.823 245.067 338.152 245.303 337.46 245.299V245.299Z" fill="#E6E6E6"/>
<path d="M342.966 237.348H306.029C305.601 237.35 305.187 237.194 304.866 236.91C304.546 236.625 304.342 236.233 304.294 235.807L303.546 229.075C303.495 228.622 303.623 228.168 303.902 227.809C304.182 227.45 304.591 227.214 305.042 227.152H343.699C343.927 227.15 344.154 227.194 344.366 227.279C344.577 227.365 344.77 227.492 344.933 227.653C345.095 227.813 345.225 228.004 345.313 228.215C345.402 228.426 345.448 228.652 345.449 228.88C345.453 228.948 345.453 229.015 345.449 229.082L344.701 235.814C344.654 236.24 344.451 236.633 344.13 236.917C343.809 237.2 343.394 237.354 342.966 237.348V237.348Z" fill="#F0F0F0"/>
<path d="M91.7871 25.4395H39.5767V82.7662H91.7871V25.4395Z" fill="#E6E6E6"/>
<path d="M96.2526 25.4395H40.2723V82.7662H96.2526V25.4395Z" fill="#F5F5F5"/>
<path d="M92.6847 29.0078H43.8403V79.1911H92.6847V29.0078Z" fill="white"/>
<path d="M60.947 71.9494C58.1553 69.1555 56.587 65.3673 56.587 61.4176C56.587 57.4679 58.1553 53.6797 60.947 50.8858V50.8858L75.548 36.2549C78.3398 39.0489 79.908 42.837 79.908 46.7867C79.908 50.7365 78.3398 54.5246 75.548 57.3186L60.947 71.9494Z" fill="#F5F5F5"/>
<path d="M75.8845 112.993H40.347V153.101H75.8845V112.993Z" fill="#E6E6E6"/>
<path d="M81.0233 112.993H41.2147V153.101H81.0233V112.993Z" fill="#F5F5F5"/>
<path d="M76.9244 117.1H45.3289V149.002H76.9244V117.1Z" fill="white"/>
<path d="M58.2567 126.571L54.6336 130.194C53.0562 131.771 53.0562 134.329 54.6336 135.906L58.2567 139.529C59.8341 141.106 62.3916 141.106 63.969 139.529L67.592 135.906C69.1695 134.329 69.1695 131.771 67.5921 130.194L63.969 126.571C62.3916 124.993 59.8341 124.993 58.2567 126.571Z" fill="#F5F5F5"/>
<path d="M153.983 163.093H137.789V244.782H153.983V163.093Z" fill="#E6E6E6"/>
<path d="M137.789 163.102H67.9183V244.791H137.789V163.102Z" fill="#F0F0F0"/>
<path d="M131.424 194.525H74.2839V213.353H131.424V194.525Z" fill="#E6E6E6"/>
<path d="M131.424 217.556H74.2839V236.383H131.424V217.556Z" fill="#E6E6E6"/>
<path d="M96.4322 197.054H109.268C109.685 197.05 110.084 196.883 110.38 196.587C110.675 196.292 110.842 195.893 110.846 195.476V195.476C110.844 195.058 110.677 194.657 110.382 194.362C110.086 194.066 109.686 193.899 109.268 193.897H96.4322C96.015 193.899 95.6154 194.067 95.3211 194.362C95.0267 194.658 94.8614 195.058 94.8615 195.476V195.476C94.8614 195.893 95.0267 196.293 95.3211 196.589C95.6154 196.885 96.015 197.052 96.4322 197.054V197.054Z" fill="#F0F0F0"/>
<path d="M131.424 171.502H74.2839V190.329H131.424V171.502Z" fill="#E6E6E6"/>
<path d="M96.4322 174.022H109.268C109.686 174.02 110.086 173.853 110.382 173.557C110.677 173.262 110.844 172.862 110.846 172.444V172.444C110.842 172.026 110.675 171.627 110.38 171.332C110.084 171.037 109.685 170.869 109.268 170.865H96.4322C96.015 170.867 95.6154 171.034 95.3211 171.33C95.0267 171.626 94.8614 172.026 94.8615 172.444V172.444C94.8614 172.861 95.0267 173.261 95.3211 173.557C95.6154 173.853 96.015 174.02 96.4322 174.022Z" fill="#F0F0F0"/>
<path d="M96.4321 220.084H109.268C109.687 220.082 110.089 219.914 110.384 219.617C110.68 219.32 110.846 218.918 110.846 218.499V218.499C110.844 218.081 110.677 217.682 110.381 217.387C110.085 217.093 109.685 216.928 109.268 216.928H96.4321C96.2259 216.928 96.0216 216.968 95.831 217.047C95.6404 217.126 95.4673 217.242 95.3214 217.388C95.1756 217.534 95.0599 217.707 94.9809 217.897C94.902 218.088 94.8613 218.292 94.8613 218.499V218.499C94.8604 218.706 94.9002 218.911 94.9786 219.103C95.057 219.295 95.1725 219.469 95.3183 219.617C95.4642 219.764 95.6376 219.881 95.8287 219.961C96.0198 220.042 96.2249 220.083 96.4321 220.084V220.084Z" fill="#F0F0F0"/>
<path d="M137.789 158.801H65.7567V163.094H137.789V158.801Z" fill="#E6E6E6"/>
<path d="M156.242 158.809H137.789V163.102H156.242V158.809Z" fill="#E0E0E0"/>
<path d="M191.488 292.946C263.852 292.946 322.515 288.318 322.515 282.609C322.515 276.9 263.852 272.271 191.488 272.271C119.124 272.271 60.4608 276.9 60.4608 282.609C60.4608 288.318 119.124 292.946 191.488 292.946Z" fill="#F5F5F5"/>
<path d="M297.435 55.2251C296.357 51.6549 294.928 48.1998 293.171 44.9102V44.9102L295.827 36.2184L278.668 19.0145L269.961 21.6923C266.682 19.9139 263.228 18.48 259.653 17.4137V17.4137L255.39 9.3877H231.132L226.861 17.4137C223.275 18.4809 219.808 19.9146 216.516 21.6923V21.6923L207.817 19.0219L190.613 36.2259L193.276 44.9252C191.51 48.2106 190.081 51.6666 189.012 55.2401L181.016 59.5112V83.7763L189.042 88.0474C190.111 91.6199 191.542 95.0737 193.313 98.3548V98.3548L190.65 107.039L207.854 124.243L216.554 121.588C219.838 123.355 223.294 124.781 226.869 125.844L231.132 133.892H255.427L259.691 125.866C263.262 124.795 266.716 123.364 269.998 121.595L278.705 124.251L295.909 107.047L293.216 98.3698C294.972 95.0838 296.395 91.6309 297.465 88.0623V88.0623L305.461 83.7763V59.4887L297.435 55.2251ZM243.235 115.686C234.523 115.684 226.007 113.1 218.764 108.259C211.521 103.417 205.876 96.5373 202.543 88.4882C199.211 80.439 198.339 71.5823 200.04 63.038C201.74 54.4937 205.936 46.6455 212.097 40.4857C218.258 34.326 226.107 30.1315 234.651 28.4324C243.196 26.7333 252.052 27.6061 260.101 30.9403C268.15 34.2746 275.029 39.9205 279.869 47.1643C284.709 54.4081 287.292 62.9244 287.292 71.6362C287.29 83.3196 282.647 94.5238 274.385 102.785C266.123 111.045 254.918 115.686 243.235 115.686V115.686Z" fill="url(#paint0_linear)"/>
<path d="M243.235 33.7656C235.744 33.7686 228.422 35.9926 222.194 40.1566C215.967 44.3206 211.115 50.2375 208.25 57.1592C205.385 64.0808 204.637 71.6965 206.101 79.0433C207.564 86.3901 211.173 93.138 216.471 98.4339C221.769 103.73 228.518 107.336 235.865 108.796C243.213 110.257 250.828 109.506 257.749 106.638C264.669 103.771 270.584 98.9159 274.746 92.6871C278.907 86.4583 281.128 79.1354 281.128 71.6443C281.128 66.6688 280.148 61.742 278.244 57.1453C276.339 52.5487 273.548 48.3723 270.029 44.8548C266.51 41.3372 262.332 38.5474 257.735 36.6447C253.137 34.742 248.21 33.7637 243.235 33.7656V33.7656ZM243.235 104.482C236.74 104.483 230.391 102.559 224.99 98.9516C219.589 95.3447 215.379 90.2172 212.892 84.2175C210.406 78.2179 209.754 71.6155 211.019 65.2455C212.285 58.8754 215.411 53.0236 220.002 48.4302C224.594 43.8368 230.444 40.708 236.814 39.4396C243.183 38.1711 249.786 38.8199 255.786 41.3039C261.787 43.7879 266.917 47.9955 270.526 53.3948C274.136 58.794 276.063 65.1423 276.064 71.6369V71.6369C276.047 80.3398 272.583 88.6814 266.43 94.8367C260.278 100.992 251.938 104.46 243.235 104.482V104.482Z" fill="url(#paint1_linear)"/>
<path opacity="0.4" d="M297.435 55.2251C296.357 51.6549 294.928 48.1998 293.171 44.9102V44.9102L295.827 36.2184L278.668 19.0145L269.961 21.6923C266.682 19.9139 263.228 18.48 259.653 17.4137V17.4137L255.39 9.3877H231.132L226.861 17.4137C223.275 18.4809 219.808 19.9146 216.516 21.6923V21.6923L207.817 19.0219L190.613 36.2259L193.276 44.9252C191.51 48.2106 190.081 51.6666 189.012 55.2401L181.016 59.5112V83.7763L189.042 88.0474C190.111 91.6199 191.542 95.0737 193.313 98.3548V98.3548L190.65 107.039L207.854 124.243L216.554 121.588C219.838 123.355 223.294 124.781 226.869 125.844L231.132 133.892H255.427L259.691 125.866C263.262 124.795 266.716 123.364 269.998 121.595L278.705 124.251L295.909 107.047L293.216 98.3698C294.972 95.0838 296.395 91.6309 297.465 88.0623V88.0623L305.461 83.7763V59.4887L297.435 55.2251ZM243.235 115.686C234.523 115.684 226.007 113.1 218.764 108.259C211.521 103.417 205.876 96.5373 202.543 88.4882C199.211 80.439 198.339 71.5823 200.04 63.038C201.74 54.4937 205.936 46.6455 212.097 40.4857C218.258 34.326 226.107 30.1315 234.651 28.4324C243.196 26.7333 252.052 27.6061 260.101 30.9403C268.15 34.2746 275.029 39.9205 279.869 47.1643C284.709 54.4081 287.292 62.9244 287.292 71.6362C287.29 83.3196 282.647 94.5238 274.385 102.785C266.123 111.045 254.918 115.686 243.235 115.686V115.686Z" fill="white"/>
<path opacity="0.4" d="M243.235 33.7656C235.744 33.7686 228.422 35.9926 222.194 40.1566C215.967 44.3206 211.115 50.2375 208.25 57.1592C205.385 64.0808 204.637 71.6965 206.101 79.0433C207.564 86.3901 211.173 93.138 216.471 98.4339C221.769 103.73 228.518 107.336 235.865 108.796C243.213 110.257 250.828 109.506 257.749 106.638C264.669 103.771 270.584 98.9159 274.746 92.6871C278.907 86.4583 281.128 79.1354 281.128 71.6443C281.128 66.6688 280.148 61.742 278.244 57.1453C276.339 52.5487 273.548 48.3723 270.029 44.8548C266.51 41.3372 262.332 38.5474 257.735 36.6447C253.137 34.742 248.21 33.7637 243.235 33.7656V33.7656ZM243.235 104.482C236.74 104.483 230.391 102.559 224.99 98.9516C219.589 95.3447 215.379 90.2172 212.892 84.2175C210.406 78.2179 209.754 71.6155 211.019 65.2455C212.285 58.8754 215.411 53.0236 220.002 48.4302C224.594 43.8368 230.444 40.708 236.814 39.4396C243.183 38.1711 249.786 38.8199 255.786 41.3039C261.787 43.7879 266.917 47.9955 270.526 53.3948C274.136 58.794 276.063 65.1423 276.064 71.6369V71.6369C276.047 80.3398 272.583 88.6814 266.43 94.8367C260.278 100.992 251.938 104.46 243.235 104.482V104.482Z" fill="white"/>
<path d="M144.604 103.314C144.04 101.421 143.288 99.5893 142.36 97.8461L143.773 93.2309L134.64 84.1128L130.025 85.5265C128.282 84.5978 126.45 83.8461 124.557 83.2825L122.313 79.0488H109.388L107.144 83.2825C105.251 83.8461 103.419 84.5978 101.676 85.5265L97.0606 84.1128L87.95 93.2309L89.3562 97.8461C88.4305 99.5906 87.6789 101.422 87.1122 103.314L82.8486 105.558V118.453L87.1122 120.697C87.6756 122.591 88.4274 124.422 89.3562 126.165L87.95 130.781L97.0606 139.899L101.676 138.485C103.42 139.41 105.252 140.162 107.144 140.729L109.388 144.955H122.283L124.527 140.729C126.419 140.162 128.25 139.41 129.995 138.485L134.61 139.899L143.728 130.781L142.315 126.165C143.243 124.422 143.995 122.59 144.559 120.697L148.815 118.453V105.58L144.604 103.314ZM115.835 130.339C112.212 130.339 108.671 129.265 105.658 127.252C102.646 125.239 100.298 122.378 98.9113 119.031C97.5248 115.684 97.1621 112 97.8689 108.447C98.5757 104.893 100.32 101.629 102.882 99.0675C105.444 96.5056 108.708 94.761 112.262 94.0541C115.815 93.3473 119.498 93.7101 122.846 95.0966C126.193 96.4831 129.054 98.831 131.067 101.843C133.08 104.856 134.154 108.398 134.154 112.021C134.152 116.878 132.221 121.537 128.786 124.972C125.351 128.407 120.693 130.337 115.835 130.339V130.339Z" fill="#263238"/>
<path d="M144.604 103.314C144.04 101.421 143.288 99.5893 142.36 97.8461L143.773 93.2309L134.64 84.1128L130.025 85.5265C128.282 84.5978 126.45 83.8461 124.557 83.2825L122.313 79.0488H109.388L107.144 83.2825C105.251 83.8461 103.419 84.5978 101.676 85.5265L97.0606 84.1128L87.95 93.2309L89.3562 97.8461C88.4305 99.5906 87.6789 101.422 87.1122 103.314L82.8486 105.558V118.453L87.1122 120.697C87.6756 122.591 88.4274 124.422 89.3562 126.165L87.95 130.781L97.0606 139.899L101.676 138.485C103.42 139.41 105.252 140.162 107.144 140.729L109.388 144.955H122.283L124.527 140.729C126.419 140.162 128.25 139.41 129.995 138.485L134.61 139.899L143.728 130.781L142.315 126.165C143.243 124.422 143.995 122.59 144.559 120.697L148.815 118.453V105.58L144.604 103.314ZM115.835 130.339C112.212 130.339 108.671 129.265 105.658 127.252C102.646 125.239 100.298 122.378 98.9113 119.031C97.5248 115.684 97.1621 112 97.8689 108.447C98.5757 104.893 100.32 101.629 102.882 99.0675C105.444 96.5056 108.708 94.761 112.262 94.0541C115.815 93.3473 119.498 93.7101 122.846 95.0966C126.193 96.4831 129.054 98.831 131.067 101.843C133.08 104.856 134.154 108.398 134.154 112.021C134.152 116.878 132.221 121.537 128.786 124.972C125.351 128.407 120.693 130.337 115.835 130.339V130.339Z" fill="url(#paint2_linear)"/>
<path d="M115.835 105.954C114.634 105.954 113.46 106.31 112.461 106.978C111.462 107.645 110.684 108.594 110.224 109.704C109.764 110.813 109.644 112.035 109.878 113.213C110.113 114.391 110.691 115.473 111.541 116.323C112.39 117.172 113.472 117.751 114.651 117.985C115.829 118.219 117.05 118.099 118.16 117.639C119.27 117.18 120.218 116.401 120.886 115.402C121.553 114.403 121.909 113.229 121.909 112.028C121.909 110.417 121.269 108.872 120.13 107.733C118.991 106.594 117.446 105.954 115.835 105.954Z" fill="#263238"/>
<path opacity="0.4" d="M144.604 103.314C144.04 101.421 143.288 99.5893 142.36 97.8461L143.773 93.2309L134.64 84.1128L130.025 85.5265C128.282 84.5978 126.45 83.8461 124.557 83.2825L122.313 79.0488H109.388L107.144 83.2825C105.251 83.8461 103.419 84.5978 101.676 85.5265L97.0606 84.1128L87.95 93.2309L89.3562 97.8461C88.4305 99.5906 87.6789 101.422 87.1122 103.314L82.8486 105.558V118.453L87.1122 120.697C87.6756 122.591 88.4274 124.422 89.3562 126.165L87.95 130.781L97.0606 139.899L101.676 138.485C103.42 139.41 105.252 140.162 107.144 140.729L109.388 144.955H122.283L124.527 140.729C126.419 140.162 128.25 139.41 129.995 138.485L134.61 139.899L143.728 130.781L142.315 126.165C143.243 124.422 143.995 122.59 144.559 120.697L148.815 118.453V105.58L144.604 103.314ZM115.835 130.339C112.212 130.339 108.671 129.265 105.658 127.252C102.646 125.239 100.298 122.378 98.9113 119.031C97.5248 115.684 97.1621 112 97.8689 108.447C98.5757 104.893 100.32 101.629 102.882 99.0675C105.444 96.5056 108.708 94.761 112.262 94.0541C115.815 93.3473 119.498 93.7101 122.846 95.0966C126.193 96.4831 129.054 98.831 131.067 101.843C133.08 104.856 134.154 108.398 134.154 112.021C134.152 116.878 132.221 121.537 128.786 124.972C125.351 128.407 120.693 130.337 115.835 130.339V130.339Z" fill="white"/>
<path opacity="0.2" d="M115.835 105.954C114.634 105.954 113.46 106.31 112.461 106.978C111.462 107.645 110.684 108.594 110.224 109.704C109.764 110.813 109.644 112.035 109.878 113.213C110.113 114.391 110.691 115.473 111.541 116.323C112.39 117.172 113.472 117.751 114.651 117.985C115.829 118.219 117.05 118.099 118.16 117.639C119.27 117.18 120.218 116.401 120.886 115.402C121.553 114.403 121.909 113.229 121.909 112.028C121.909 110.417 121.269 108.872 120.13 107.733C118.991 106.594 117.446 105.954 115.835 105.954Z" fill="#01A299"/>
<path d="M156.332 91.6223L151.395 89.5878L151.216 87.7327C150.754 87.3434 150.324 86.9182 149.929 86.4611L148.089 86.2741L146.047 81.3448L147.237 79.9311C147.184 79.3263 147.184 78.7182 147.237 78.1134L146.047 76.7072L148.104 71.8078L149.944 71.6283C150.344 71.1572 150.779 70.7171 151.246 70.3118L151.425 68.4642L156.362 66.4297L157.768 67.6115C158.373 67.5666 158.981 67.5666 159.586 67.6115L160.992 66.4297L165.929 68.4642L166.101 70.3118C166.559 70.7076 166.989 71.135 167.388 71.5909L169.228 71.7704L171.262 76.6997L170.08 78.106C170.133 78.7107 170.133 79.3189 170.08 79.9236L171.262 81.3373L169.228 86.2666L167.388 86.4536C166.993 86.9131 166.563 87.3408 166.101 87.7327L165.929 89.5803L160.992 91.6148L159.586 90.433C158.983 90.4779 158.378 90.4779 157.776 90.433L156.332 91.6223ZM159.908 89.3783L161.187 90.433L164.927 88.8846L165.076 87.2316L165.256 87.0969C165.78 86.6721 166.264 86.1987 166.7 85.6832L166.834 85.5112L168.487 85.3541L170.036 81.6141L169.048 80.2976V80.0807C169.116 79.4017 169.116 78.7177 169.048 78.0387V77.7918L170.103 76.5052L168.555 72.7652L166.909 72.6157L166.767 72.4361C166.327 71.9308 165.838 71.4699 165.308 71.0598L165.129 70.9177L164.979 69.2721L161.239 67.7162L159.938 68.8158H159.721C159.042 68.741 158.357 68.741 157.679 68.8158H157.454L156.175 67.7537L152.435 69.3095L152.278 70.9551L152.114 71.0972C151.583 71.5154 151.097 71.9866 150.662 72.5034L150.52 72.683L148.867 72.8326L147.304 76.5726L148.366 77.8517V78.0686C148.291 78.7472 148.291 79.432 148.366 80.1106V80.335L147.304 81.5318L148.86 85.2718L150.505 85.4289L150.647 85.5934C151.077 86.1262 151.561 86.6125 152.091 87.0446L152.263 87.1792L152.42 88.8398L156.16 90.3881L157.447 89.3334H157.664C158.343 89.4007 159.027 89.4007 159.706 89.3334L159.908 89.3783Z" fill="#263238"/>
<path d="M160.887 84.3148C159.841 84.7497 158.688 84.8644 157.576 84.6442C156.464 84.424 155.442 83.8788 154.64 83.0777C153.838 82.2766 153.292 81.2555 153.07 80.1437C152.848 79.0319 152.961 77.8794 153.395 76.8319C153.829 75.7845 154.563 74.8892 155.506 74.2594C156.449 73.6296 157.557 73.2936 158.691 73.2939C159.824 73.2942 160.932 73.6308 161.875 74.2611C162.817 74.8914 163.551 75.7871 163.984 76.8348V76.8348C164.272 77.5288 164.421 78.2727 164.422 79.0242C164.423 79.7757 164.276 80.52 163.989 81.2146C163.702 81.9092 163.281 82.5405 162.75 83.0724C162.219 83.6044 161.589 84.0265 160.895 84.3148H160.887Z" fill="#263238"/>
<path d="M119.68 79.9313C119.587 79.9313 119.497 79.8942 119.431 79.8283C119.366 79.7624 119.328 79.6729 119.328 79.5797V77.792C119.328 77.6988 119.366 77.6093 119.431 77.5434C119.497 77.4775 119.587 77.4404 119.68 77.4404C119.773 77.4404 119.863 77.4775 119.929 77.5434C119.995 77.6093 120.032 77.6988 120.032 77.792V79.5498C120.036 79.5984 120.03 79.6474 120.014 79.6935C119.998 79.7397 119.973 79.7821 119.94 79.818C119.907 79.8538 119.867 79.8825 119.822 79.902C119.777 79.9215 119.729 79.9314 119.68 79.9313V79.9313Z" fill="url(#paint3_linear)"/>
<path d="M119.68 74.6427C119.587 74.6427 119.497 74.6057 119.431 74.5397C119.366 74.4738 119.328 74.3844 119.328 74.2912V70.7606C119.328 70.6674 119.366 70.5779 119.431 70.512C119.497 70.4461 119.587 70.409 119.68 70.409C119.773 70.409 119.863 70.4461 119.929 70.512C119.995 70.5779 120.032 70.6674 120.032 70.7606V74.2912C120.032 74.3844 119.995 74.4738 119.929 74.5397C119.863 74.6057 119.773 74.6427 119.68 74.6427V74.6427ZM119.68 67.5816C119.587 67.5816 119.497 67.5446 119.431 67.4786C119.366 67.4127 119.328 67.3233 119.328 67.23V63.6995C119.328 63.6062 119.366 63.5168 119.431 63.4509C119.497 63.385 119.587 63.3479 119.68 63.3479C119.773 63.3479 119.863 63.385 119.929 63.4509C119.995 63.5168 120.032 63.6062 120.032 63.6995V67.23C120.032 67.3233 119.995 67.4127 119.929 67.4786C119.863 67.5446 119.773 67.5816 119.68 67.5816V67.5816ZM119.68 60.5279C119.586 60.526 119.497 60.4873 119.431 60.4202C119.365 60.3531 119.328 60.2629 119.328 60.1689V56.6458C119.328 56.5526 119.366 56.4632 119.431 56.3972C119.497 56.3313 119.587 56.2943 119.68 56.2943C119.773 56.2943 119.863 56.3313 119.929 56.3972C119.995 56.4632 120.032 56.5526 120.032 56.6458V60.1689C120.032 60.2629 119.995 60.3531 119.929 60.4202C119.863 60.4873 119.774 60.526 119.68 60.5279V60.5279ZM119.68 53.4444C119.635 53.4475 119.59 53.4412 119.547 53.4261C119.505 53.4109 119.466 53.3872 119.433 53.3563C119.4 53.3254 119.373 53.2881 119.356 53.2466C119.338 53.2052 119.328 53.1604 119.328 53.1153V53.0629C119.328 51.8614 119.528 50.6683 119.919 49.5323C119.952 49.4451 120.016 49.3738 120.1 49.3333C120.184 49.2929 120.28 49.2864 120.368 49.3154C120.413 49.3297 120.454 49.3528 120.489 49.3834C120.524 49.4139 120.553 49.4514 120.573 49.4933C120.593 49.5353 120.605 49.581 120.607 49.6275C120.609 49.6741 120.602 49.7206 120.585 49.7642C120.218 50.8251 120.03 51.9401 120.032 53.0629C120.032 53.1591 119.996 53.2519 119.931 53.3226C119.865 53.3933 119.776 53.4368 119.68 53.4444V53.4444ZM121.924 46.9218C121.845 46.9231 121.768 46.8966 121.707 46.847C121.671 46.8185 121.64 46.7832 121.618 46.743C121.595 46.7027 121.58 46.6584 121.575 46.6126C121.569 46.5667 121.573 46.5203 121.585 46.4758C121.598 46.4313 121.619 46.3897 121.647 46.3533C122.408 45.4015 123.323 44.5846 124.355 43.9373C124.394 43.9127 124.438 43.8962 124.484 43.8885C124.529 43.8809 124.576 43.8823 124.621 43.8927C124.667 43.9031 124.709 43.9223 124.747 43.9492C124.785 43.9761 124.817 44.0102 124.841 44.0495C124.866 44.0888 124.882 44.1325 124.89 44.1782C124.898 44.2239 124.896 44.2707 124.886 44.3158C124.875 44.361 124.856 44.4036 124.829 44.4414C124.802 44.4791 124.768 44.5112 124.729 44.5357C123.765 45.1344 122.91 45.8933 122.201 46.7797C122.148 46.8514 122.071 46.9018 121.984 46.9218H121.924ZM127.796 43.2566C127.709 43.2573 127.624 43.2255 127.559 43.1675C127.494 43.1095 127.453 43.0294 127.444 42.9427C127.434 42.856 127.457 42.7689 127.509 42.6984C127.56 42.6278 127.636 42.5789 127.721 42.561C128.487 42.3902 129.27 42.3049 130.055 42.3067H131.304C131.35 42.3067 131.396 42.3158 131.439 42.3334C131.481 42.3511 131.52 42.377 131.553 42.4096C131.585 42.4423 131.611 42.481 131.629 42.5237C131.646 42.5663 131.656 42.6121 131.656 42.6582C131.656 42.7044 131.646 42.7501 131.629 42.7928C131.611 42.8354 131.585 42.8742 131.553 42.9068C131.52 42.9395 131.481 42.9654 131.439 42.983C131.396 43.0007 131.35 43.0098 131.304 43.0098H130.152C129.417 43.0105 128.685 43.0908 127.968 43.2491L127.796 43.2566ZM187.778 43.0098H184.307C184.214 43.0098 184.125 42.9728 184.059 42.9068C183.993 42.8409 183.956 42.7515 183.956 42.6582C183.956 42.565 183.993 42.4756 184.059 42.4096C184.125 42.3437 184.214 42.3067 184.307 42.3067H187.838C187.884 42.3067 187.93 42.3158 187.972 42.3334C188.015 42.3511 188.054 42.377 188.086 42.4096C188.119 42.4423 188.145 42.481 188.163 42.5237C188.18 42.5663 188.189 42.6121 188.189 42.6582C188.189 42.7044 188.18 42.7501 188.163 42.7928C188.145 42.8354 188.119 42.8742 188.086 42.9068C188.054 42.9395 188.015 42.9654 187.972 42.983C187.93 43.0007 187.884 43.0098 187.838 43.0098H187.778ZM180.717 43.0098H177.276C177.23 43.0098 177.184 43.0007 177.142 42.983C177.099 42.9654 177.06 42.9395 177.027 42.9068C176.995 42.8742 176.969 42.8354 176.951 42.7928C176.934 42.7501 176.924 42.7044 176.924 42.6582C176.924 42.6121 176.934 42.5663 176.951 42.5237C176.969 42.481 176.995 42.4423 177.027 42.4096C177.06 42.377 177.099 42.3511 177.142 42.3334C177.184 42.3158 177.23 42.3067 177.276 42.3067H180.799C180.845 42.3067 180.891 42.3158 180.934 42.3334C180.976 42.3511 181.015 42.377 181.048 42.4096C181.08 42.4423 181.106 42.481 181.124 42.5237C181.142 42.5663 181.151 42.6121 181.151 42.6582C181.151 42.7044 181.142 42.7501 181.124 42.7928C181.106 42.8354 181.08 42.8742 181.048 42.9068C181.015 42.9395 180.976 42.9654 180.934 42.983C180.891 43.0007 180.845 43.0098 180.799 43.0098H180.717ZM173.663 43.0098H170.133C170.039 43.0098 169.95 42.9728 169.884 42.9068C169.818 42.8409 169.781 42.7515 169.781 42.6582C169.781 42.565 169.818 42.4756 169.884 42.4096C169.95 42.3437 170.039 42.3067 170.133 42.3067H173.663C173.709 42.3067 173.755 42.3158 173.798 42.3334C173.84 42.3511 173.879 42.377 173.912 42.4096C173.944 42.4423 173.97 42.481 173.988 42.5237C174.006 42.5663 174.015 42.6121 174.015 42.6582C174.015 42.7044 174.006 42.7501 173.988 42.7928C173.97 42.8354 173.944 42.8742 173.912 42.9068C173.879 42.9395 173.84 42.9654 173.798 42.983C173.755 43.0007 173.709 43.0098 173.663 43.0098V43.0098ZM166.602 43.0098H163.072C162.978 43.0098 162.889 42.9728 162.823 42.9068C162.757 42.8409 162.72 42.7515 162.72 42.6582C162.72 42.565 162.757 42.4756 162.823 42.4096C162.889 42.3437 162.978 42.3067 163.072 42.3067H166.602C166.648 42.3067 166.694 42.3158 166.737 42.3334C166.779 42.3511 166.818 42.377 166.851 42.4096C166.883 42.4423 166.909 42.481 166.927 42.5237C166.945 42.5663 166.954 42.6121 166.954 42.6582C166.954 42.7044 166.945 42.7501 166.927 42.7928C166.909 42.8354 166.883 42.8742 166.851 42.9068C166.818 42.9395 166.779 42.9654 166.737 42.983C166.694 43.0007 166.648 43.0098 166.602 43.0098V43.0098ZM159.541 43.0098H156.01C155.917 43.0098 155.828 42.9728 155.762 42.9068C155.696 42.8409 155.659 42.7515 155.659 42.6582C155.659 42.565 155.696 42.4756 155.762 42.4096C155.828 42.3437 155.917 42.3067 156.01 42.3067H159.541C159.587 42.3067 159.633 42.3158 159.676 42.3334C159.718 42.3511 159.757 42.377 159.79 42.4096C159.822 42.4423 159.848 42.481 159.866 42.5237C159.883 42.5663 159.893 42.6121 159.893 42.6582C159.893 42.7044 159.883 42.7501 159.866 42.7928C159.848 42.8354 159.822 42.8742 159.79 42.9068C159.757 42.9395 159.718 42.9654 159.676 42.983C159.633 43.0007 159.587 43.0098 159.541 43.0098V43.0098ZM152.48 43.0098H148.957C148.911 43.0098 148.865 43.0007 148.822 42.983C148.78 42.9654 148.741 42.9395 148.708 42.9068C148.676 42.8742 148.65 42.8354 148.632 42.7928C148.614 42.7501 148.605 42.7044 148.605 42.6582C148.605 42.6121 148.614 42.5663 148.632 42.5237C148.65 42.481 148.676 42.4423 148.708 42.4096C148.741 42.377 148.78 42.3511 148.822 42.3334C148.865 42.3158 148.911 42.3067 148.957 42.3067H152.48C152.526 42.3067 152.572 42.3158 152.614 42.3334C152.657 42.3511 152.696 42.377 152.728 42.4096C152.761 42.4423 152.787 42.481 152.805 42.5237C152.822 42.5663 152.831 42.6121 152.831 42.6582C152.831 42.7044 152.822 42.7501 152.805 42.7928C152.787 42.8354 152.761 42.8742 152.728 42.9068C152.696 42.9395 152.657 42.9654 152.614 42.983C152.572 43.0007 152.526 43.0098 152.48 43.0098V43.0098ZM145.426 43.0098H141.896C141.802 43.0098 141.713 42.9728 141.647 42.9068C141.581 42.8409 141.544 42.7515 141.544 42.6582C141.544 42.565 141.581 42.4756 141.647 42.4096C141.713 42.3437 141.802 42.3067 141.896 42.3067H145.426C145.472 42.3067 145.518 42.3158 145.561 42.3334C145.603 42.3511 145.642 42.377 145.675 42.4096C145.707 42.4423 145.733 42.481 145.751 42.5237C145.769 42.5663 145.778 42.6121 145.778 42.6582C145.778 42.7044 145.769 42.7501 145.751 42.7928C145.733 42.8354 145.707 42.8742 145.675 42.9068C145.642 42.9395 145.603 42.9654 145.561 42.983C145.518 43.0007 145.472 43.0098 145.426 43.0098V43.0098ZM138.365 43.0098H134.835C134.741 43.0098 134.652 42.9728 134.586 42.9068C134.52 42.8409 134.483 42.7515 134.483 42.6582C134.483 42.565 134.52 42.4756 134.586 42.4096C134.652 42.3437 134.741 42.3067 134.835 42.3067H138.365C138.411 42.3067 138.457 42.3158 138.5 42.3334C138.542 42.3511 138.581 42.377 138.614 42.4096C138.646 42.4423 138.672 42.481 138.69 42.5237C138.708 42.5663 138.717 42.6121 138.717 42.6582C138.717 42.7044 138.708 42.7501 138.69 42.7928C138.672 42.8354 138.646 42.8742 138.614 42.9068C138.581 42.9395 138.542 42.9654 138.5 42.983C138.457 43.0007 138.411 43.0098 138.365 43.0098V43.0098Z" fill="#FFA500"/>
<path d="M193.141 43.0107H191.376C191.283 43.0107 191.193 42.9737 191.127 42.9078C191.061 42.8418 191.024 42.7524 191.024 42.6592C191.024 42.5659 191.061 42.4765 191.127 42.4106C191.193 42.3447 191.283 42.3076 191.376 42.3076H193.141C193.234 42.3076 193.324 42.3447 193.39 42.4106C193.456 42.4765 193.493 42.5659 193.493 42.6592C193.493 42.7524 193.456 42.8418 193.39 42.9078C193.324 42.9737 193.234 43.0107 193.141 43.0107V43.0107Z" fill="url(#paint4_linear)"/>
<path d="M119.501 281.824H123.188L123.188 166.58H119.501L119.501 281.824Z" fill="#263238"/>
<path d="M271.427 218.267H210.525V209.822H271.427C272.163 209.822 272.869 210.114 273.389 210.634C273.91 211.155 274.202 211.861 274.202 212.597V215.492C274.202 215.856 274.13 216.217 273.991 216.553C273.851 216.89 273.647 217.196 273.389 217.454C273.131 217.711 272.825 217.916 272.489 218.055C272.152 218.195 271.791 218.267 271.427 218.267V218.267Z" fill="black" fill-opacity="0.74"/>
<path d="M269.086 282.46L264.672 212.709" stroke="black" stroke-opacity="0.74" stroke-width="1.03491" stroke-linecap="round" stroke-linejoin="round"/>
<path d="M252.188 285.916L247.775 216.165" stroke="black" stroke-opacity="0.74" stroke-width="1.03491" stroke-linecap="round" stroke-linejoin="round"/>
<path d="M207.899 282.46L212.312 212.709" stroke="black" stroke-opacity="0.74" stroke-width="1.03491" stroke-linecap="round" stroke-linejoin="round"/>
<path d="M224.796 285.916L229.21 216.165" stroke="black" stroke-opacity="0.74" stroke-width="1.03491" stroke-linecap="round" stroke-linejoin="round"/>
<path d="M276.835 212.709H215.933V204.264H276.835C277.571 204.264 278.277 204.556 278.797 205.077C279.318 205.597 279.61 206.303 279.61 207.039V209.934C279.61 210.67 279.318 211.376 278.797 211.896C278.277 212.417 277.571 212.709 276.835 212.709Z" fill="black" fill-opacity="0.74"/>
<path opacity="0.2" d="M276.835 212.709H215.933V204.264H276.835C277.571 204.264 278.277 204.556 278.797 205.077C279.318 205.597 279.61 206.303 279.61 207.039V209.934C279.61 210.67 279.318 211.376 278.797 211.896C278.277 212.417 277.571 212.709 276.835 212.709Z" fill="black"/>
<path d="M215.499 284.577H219.186V169.333H215.499V284.577Z" fill="#263238"/>
<path d="M228.065 178.099C228.065 178.099 185.915 179.684 178.914 196.604C178.914 196.604 179.887 246.997 185.527 263.535L197.592 262.166L195.662 213.18L239.263 178.114L228.065 178.099Z" fill="#263238"/>
<path opacity="0.2" d="M228.065 178.099C228.065 178.099 185.915 179.684 178.914 196.604C178.914 196.604 179.887 246.997 185.527 263.535L197.592 262.166L195.662 213.18L239.263 178.114L228.065 178.099Z" fill="black"/>
<path d="M195.595 274.779H188.062L187.957 269.76L187.883 265.825L195.243 266.274L195.385 269.76L195.595 274.779Z" fill="#B55B52"/>
<path opacity="0.2" d="M195.385 269.76H187.957L187.883 265.825L195.243 266.274L195.385 269.76Z" fill="black"/>
<path d="M198.961 267.426L182.834 267.912L179.894 261.928L198.512 261.756L198.961 267.426Z" fill="#FFA500"/>
<path d="M186.132 275.915C186.132 275.915 186.521 271.494 184.98 272.107C183.44 272.721 185.16 274.98 186.132 275.915Z" stroke="#23036A" stroke-width="0.34497" stroke-miterlimit="10"/>
<path d="M186.132 275.914C186.132 275.914 182.819 273.595 181.973 274.777C181.128 275.959 186.132 275.914 186.132 275.914Z" stroke="#23036A" stroke-width="0.34497" stroke-miterlimit="10"/>
<path d="M188.758 273.768L194.742 273.827C195.164 273.837 195.568 274.003 195.874 274.293C196.181 274.584 196.369 274.977 196.402 275.398L196.821 280.687C196.841 280.916 196.813 281.147 196.738 281.364C196.662 281.582 196.542 281.781 196.385 281.949C196.227 282.117 196.036 282.25 195.824 282.339C195.612 282.428 195.383 282.472 195.153 282.467C191.914 282.37 185.25 282.198 182.886 282.265C179.722 282.355 175.227 282.407 174.583 281.203C174.4 280.88 174.338 280.502 174.408 280.138C174.478 279.773 174.675 279.445 174.965 279.213C174.965 279.213 183.589 278.413 187.554 274.314C187.708 274.147 187.894 274.012 188.1 273.919C188.307 273.825 188.531 273.773 188.758 273.768Z" fill="#263238"/>
<path d="M265.884 178.099C265.884 178.099 266.685 187.92 266.385 195.512C266.041 204.264 247.199 211.968 219.77 207.48C219.77 207.48 217.631 222.268 210.046 235.904C202.461 249.54 190.598 269.759 190.598 269.759L178.929 262.166C178.929 262.166 194.293 219.53 197.218 207.697C200.142 195.864 201.302 190.186 209.665 186.491C218.027 182.796 236.316 178.099 236.316 178.099H265.884Z" fill="#263238"/>
<path d="M186.132 267.53L184.749 269.655L181.704 274.345L175.862 270.941L178.922 266.184L180.111 264.344L186.132 267.53Z" fill="#B55B52"/>
<path opacity="0.2" d="M186.132 267.53L184.749 269.655L178.922 266.184L180.111 264.344L186.132 267.53Z" fill="black"/>
<path d="M193.635 265.824L178.338 256.669L175.862 262.78L190.381 271.165L193.635 265.824Z" fill="#FFA500"/>
<path d="M171.861 271.165C171.861 271.165 172.975 267.336 171.726 267.261C170.477 267.186 171.861 271.165 171.861 271.165Z" stroke="#23036A" stroke-width="0.34497" stroke-miterlimit="10"/>
<path d="M171.569 271.023C171.569 271.023 169.841 266.864 168.45 267.791C167.058 268.719 171.569 271.023 171.569 271.023Z" stroke="#23036A" stroke-width="0.34497" stroke-miterlimit="10"/>
<path d="M176.618 270.523L181.719 273.515C182.078 273.725 182.343 274.064 182.461 274.462C182.579 274.861 182.541 275.29 182.355 275.661L180.044 280.351C179.941 280.556 179.798 280.738 179.622 280.884C179.446 281.031 179.241 281.139 179.021 281.203C178.801 281.266 178.57 281.283 178.343 281.252C178.116 281.221 177.898 281.144 177.702 281.025C174.957 279.334 169.295 275.871 167.23 274.756C164.448 273.26 160.551 271.076 160.603 269.737C160.614 269.37 160.754 269.018 160.999 268.744C161.244 268.471 161.578 268.292 161.942 268.241C161.942 268.241 169.781 271.847 175.279 270.351C175.502 270.289 175.736 270.272 175.966 270.302C176.196 270.331 176.417 270.406 176.618 270.523Z" fill="#263238"/>
<path d="M218.536 135.177C218.536 135.177 216.965 152.337 217.593 156.75C217.593 156.75 201.197 159.151 192.909 158.014L187.359 156.623L180.418 158.321L182.31 163.818H187.86C187.86 163.818 191.9 164.955 193.665 163.818C193.665 163.818 207.54 166.593 215.738 165.711C223.936 164.828 226.48 161.709 226.846 155.493C227.19 149.509 231.132 136.18 227.983 133.15L218.536 135.177Z" fill="#B55B52"/>
<path d="M274.845 137.108C274.845 137.108 268.554 121.131 262.436 117.526C256.317 113.92 227.983 120.817 227.983 120.817C227.983 120.817 215.828 124.729 215.132 143.721L226.3 148.455L228.065 178.099H265.884L265.682 139.704L274.845 137.108Z" fill="#FFA500"/>
<path d="M228.499 89.5059C228.499 89.5059 224.759 89.0346 223.742 86.2296C222.724 83.4246 226.629 84.8383 226.3 79.7669C225.971 74.6955 231.798 73.4837 236.024 75.7127C240.25 77.9418 246.96 75.5108 249.488 78.5551C252.016 81.5995 250.909 84.4344 250.909 84.4344C250.909 84.4344 258.18 92.6624 248.964 98.2799C239.749 103.897 228.499 89.5059 228.499 89.5059Z" fill="#263238"/>
<path d="M250.49 116.845C246.451 123.001 242.816 123.637 237.946 123.63C232.478 123.63 234.311 119.748 234.311 119.748C236.6 118.603 238.268 117.377 238.53 114.557C238.583 114.01 238.595 113.46 238.567 112.911C238.514 111.641 238.295 110.384 237.916 109.171C230.175 109.874 227.444 106.097 226.479 98.9682C225.941 94.5836 226.739 90.1386 228.768 86.2148C233.256 91.4957 241.701 87.3593 241.701 87.3593C239.33 94.2184 245.135 96.6794 245.135 96.6794C247.379 95.2731 249.174 96.4999 249.002 99.2301C248.968 99.9917 248.707 100.726 248.253 101.338C247.798 101.95 247.171 102.411 246.451 102.663C246.01 114.818 250.49 116.845 250.49 116.845Z" fill="#B55B52"/>
<path d="M230.9 101.773C230.839 101.773 230.78 101.75 230.736 101.708C230.691 101.666 230.665 101.609 230.661 101.548C230.659 101.517 230.663 101.485 230.673 101.456C230.683 101.426 230.699 101.398 230.72 101.375C230.741 101.351 230.766 101.332 230.795 101.318C230.823 101.304 230.854 101.296 230.885 101.294C233.593 101.152 234.625 99.8504 234.663 99.8354C234.682 99.8111 234.705 99.7908 234.732 99.7757C234.759 99.7606 234.789 99.7511 234.819 99.7476C234.85 99.7441 234.881 99.7468 234.911 99.7554C234.94 99.7641 234.968 99.7786 234.992 99.798C235.017 99.8171 235.038 99.841 235.054 99.8683C235.07 99.8955 235.08 99.9257 235.084 99.957C235.088 99.9883 235.086 100.02 235.078 100.051C235.07 100.081 235.056 100.11 235.037 100.135C234.992 100.194 233.855 101.631 230.915 101.773H230.9Z" fill="#263238"/>
<path d="M230.9 98.8265L230.459 94.2861L228.499 98.4151C228.829 98.6868 229.224 98.8677 229.645 98.9398C230.066 99.012 230.499 98.9729 230.9 98.8265Z" fill="#A02724"/>
<path d="M233.922 94.2861C233.922 94.8546 234.184 95.3184 234.513 95.3184C234.842 95.3184 235.104 94.8546 235.104 94.2861C235.104 93.7177 234.842 93.2539 234.513 93.2539C234.184 93.2539 233.922 93.7177 233.922 94.2861Z" fill="#263238"/>
<path d="M227.908 95.3184C228.235 95.3184 228.499 94.8562 228.499 94.2861C228.499 93.7161 228.235 93.2539 227.908 93.2539C227.582 93.2539 227.317 93.7161 227.317 94.2861C227.317 94.8562 227.582 95.3184 227.908 95.3184Z" fill="#263238"/>
<path d="M237.864 92.0034C237.813 92.0047 237.762 91.9931 237.716 91.9696C237.67 91.946 237.631 91.9114 237.602 91.8688C237.565 91.8089 236.585 90.4924 234.311 90.9113C234.27 90.92 234.227 90.9202 234.186 90.912C234.144 90.9038 234.105 90.8874 234.07 90.8636C234.035 90.8399 234.005 90.8094 233.983 90.7739C233.96 90.7384 233.944 90.6986 233.937 90.657C233.924 90.574 233.943 90.4889 233.99 90.4194C234.037 90.3498 234.109 90.301 234.191 90.283C236.884 89.7893 238.074 91.4274 238.126 91.5022C238.158 91.5503 238.177 91.6062 238.18 91.664C238.183 91.7218 238.171 91.7794 238.144 91.8307C238.117 91.8821 238.077 91.9252 238.028 91.9556C237.979 91.986 237.922 92.0025 237.864 92.0034V92.0034Z" fill="#263238"/>
<path d="M226.906 91.5855C226.854 91.5845 226.803 91.5718 226.756 91.5481C226.719 91.5292 226.686 91.5031 226.66 91.4713C226.633 91.4395 226.612 91.4027 226.6 91.3631C226.587 91.3234 226.583 91.2817 226.587 91.2402C226.59 91.1988 226.602 91.1586 226.622 91.1218C226.874 90.7014 227.245 90.3654 227.689 90.1563C228.132 89.9473 228.628 89.8746 229.113 89.9474C229.154 89.9529 229.194 89.9666 229.23 89.9877C229.266 90.0088 229.298 90.0369 229.323 90.0704C229.348 90.1038 229.366 90.1419 229.376 90.1824C229.386 90.223 229.388 90.2651 229.382 90.3064C229.377 90.3476 229.364 90.3873 229.344 90.4234C229.324 90.4594 229.296 90.4909 229.263 90.5161C229.231 90.5413 229.193 90.5595 229.153 90.5698C229.113 90.58 229.071 90.582 229.03 90.5757C228.675 90.5224 228.313 90.5732 227.986 90.7219C227.659 90.8706 227.383 91.1108 227.19 91.4135C227.162 91.4643 227.121 91.5069 227.071 91.537C227.021 91.5672 226.964 91.5839 226.906 91.5855Z" fill="#263238"/>
<path d="M226.397 97.8241C225.698 97.8226 225.015 97.6139 224.434 97.2242C223.853 96.8346 223.401 96.2815 223.134 95.6349C222.867 94.9882 222.798 94.2771 222.936 93.5913C223.073 92.9054 223.411 92.2757 223.906 91.7817C224.401 91.2876 225.031 90.9514 225.717 90.8155C226.403 90.6796 227.114 90.7501 227.76 91.0181C228.406 91.2861 228.959 91.7396 229.347 92.3212C229.735 92.9029 229.943 93.5866 229.943 94.2861C229.943 94.7513 229.851 95.212 229.673 95.6418C229.494 96.0715 229.233 96.4619 228.904 96.7905C228.575 97.1191 228.184 97.3796 227.753 97.5569C227.323 97.7343 226.863 97.8251 226.397 97.8241ZM226.397 91.2193C225.791 91.2193 225.198 91.3991 224.693 91.7361C224.189 92.0731 223.796 92.5521 223.564 93.1125C223.332 93.6729 223.271 94.2895 223.389 94.8844C223.508 95.4793 223.8 96.0257 224.229 96.4546C224.658 96.8835 225.204 97.1756 225.799 97.2939C226.394 97.4123 227.01 97.3516 227.571 97.1194C228.131 96.8873 228.61 96.4942 228.947 95.9899C229.284 95.4856 229.464 94.8926 229.464 94.2861C229.454 93.4792 229.127 92.7087 228.553 92.1417C227.979 91.5746 227.204 91.2566 226.397 91.2567V91.2193Z" fill="white"/>
<path d="M234.872 97.8241C234.172 97.8241 233.488 97.6166 232.906 97.2279C232.325 96.8391 231.871 96.2865 231.603 95.64C231.336 94.9935 231.265 94.2822 231.402 93.5959C231.538 92.9095 231.875 92.2791 232.37 91.7843C232.865 91.2895 233.495 90.9525 234.182 90.816C234.868 90.6795 235.579 90.7496 236.226 91.0174C236.872 91.2852 237.425 91.7386 237.814 92.3205C238.203 92.9023 238.41 93.5863 238.41 94.2861C238.408 95.2238 238.035 96.1226 237.372 96.7857C236.709 97.4488 235.81 97.8221 234.872 97.8241ZM234.872 91.2193C234.265 91.2178 233.671 91.3964 233.166 91.7325C232.661 92.0686 232.267 92.547 232.033 93.1073C231.8 93.6675 231.738 94.2844 231.856 94.8798C231.973 95.4752 232.265 96.0223 232.693 96.452C233.122 96.8816 233.668 97.1745 234.263 97.2934C234.859 97.4123 235.476 97.352 236.036 97.1201C236.597 96.8883 237.077 96.4952 237.414 95.9907C237.751 95.4862 237.931 94.893 237.931 94.2861C237.92 93.4811 237.593 92.7129 237.021 92.1464C236.448 91.58 235.677 91.2605 234.872 91.2567V91.2193Z" fill="white"/>
<path d="M229.943 94.2861H231.304" stroke="white" stroke-width="0.34497" stroke-miterlimit="10"/>
<path d="M238.156 94.9365L244.791 96.5298" stroke="white" stroke-width="0.34497" stroke-linecap="round" stroke-linejoin="round"/>
<path opacity="0.2" d="M240.482 108.46C240.058 110.017 239.413 111.506 238.567 112.881C238.514 111.611 238.295 110.354 237.916 109.141L240.482 108.46Z" fill="black"/>
<path opacity="0.2" d="M226.3 148.456V143.721L224.385 147.648L226.3 148.456Z" fill="black"/>
<path opacity="0.2" d="M257.514 142.135L256.055 133.615L255.644 142.89L257.514 142.135Z" fill="black"/>
<path d="M267.949 160.011C267.859 166.242 265.054 169.346 256.848 170.229C248.643 171.112 234.775 168.336 234.775 168.336C233.009 169.473 228.97 168.336 228.97 168.336H223.42L221.535 162.839L228.469 161.148L234.019 162.532C242.344 163.669 258.741 161.275 258.741 161.275C258.269 157.969 257.738 147.176 257.514 142.134L267.298 139.239C268.263 145.859 268.031 154.641 267.949 160.011Z" fill="#B55B52"/>
<path d="M123.248 127.475L129.868 161.217C130.015 161.949 130.41 162.607 130.987 163.08C131.563 163.553 132.286 163.812 133.032 163.813H189.08C189.55 163.813 190.014 163.709 190.441 163.51C190.867 163.311 191.244 163.02 191.545 162.659C191.847 162.298 192.066 161.876 192.187 161.421C192.307 160.966 192.327 160.491 192.244 160.028L186.26 126.286C186.128 125.543 185.738 124.87 185.159 124.386C184.581 123.902 183.85 123.637 183.096 123.638H126.412C125.936 123.635 125.465 123.739 125.034 123.941C124.603 124.142 124.222 124.438 123.919 124.805C123.616 125.173 123.399 125.603 123.283 126.064C123.167 126.526 123.155 127.008 123.248 127.475Z" fill="#8D8D8D"/>
<path opacity="0.2" d="M183.911 123.638L190.912 163.813C191.158 163.813 191.401 163.76 191.623 163.656C191.846 163.553 192.044 163.401 192.201 163.213C192.359 163.024 192.473 162.804 192.536 162.566C192.599 162.328 192.609 162.08 192.565 161.838L186.005 125.014C185.936 124.626 185.733 124.276 185.43 124.024C185.128 123.772 184.746 123.635 184.352 123.638H183.911Z" fill="black"/>
<path d="M130.526 167.035H216.726C216.727 166.612 216.644 166.192 216.482 165.801C216.32 165.409 216.083 165.053 215.783 164.754C215.484 164.454 215.128 164.217 214.737 164.055C214.345 163.893 213.925 163.811 213.502 163.812H133.765C133.34 163.811 132.92 163.893 132.528 164.055C132.135 164.216 131.778 164.453 131.478 164.753C131.177 165.052 130.938 165.408 130.775 165.799C130.612 166.191 130.527 166.611 130.526 167.035V167.035Z" fill="#23036A"/>
<path opacity="0.2" d="M188.249 167.035H216.726C216.727 166.612 216.644 166.192 216.482 165.801C216.321 165.409 216.083 165.053 215.784 164.754C215.484 164.454 215.128 164.217 214.737 164.055C214.345 163.893 213.925 163.811 213.502 163.812H191.488C191.064 163.811 190.643 163.893 190.251 164.055C189.859 164.216 189.502 164.453 189.201 164.753C188.9 165.052 188.661 165.408 188.498 165.799C188.335 166.191 188.25 166.611 188.249 167.035V167.035Z" fill="black"/>
<path opacity="0.4" d="M150.894 144.978C151.5 149.174 154.402 152.233 157.379 151.807C160.356 151.381 162.279 147.626 161.68 143.429C161.082 139.233 158.172 136.174 155.195 136.6C152.218 137.027 150.288 140.774 150.894 144.978Z" fill="black" fill-opacity="0.74"/>
<path opacity="0.2" d="M130.526 167.035H216.726C216.727 166.612 216.644 166.192 216.482 165.801C216.32 165.409 216.083 165.053 215.783 164.754C215.484 164.454 215.128 164.217 214.737 164.055C214.345 163.893 213.925 163.811 213.502 163.812H133.765C133.34 163.811 132.92 163.893 132.528 164.055C132.135 164.216 131.778 164.453 131.478 164.753C131.177 165.052 130.938 165.408 130.775 165.799C130.612 166.191 130.527 166.611 130.526 167.035V167.035Z" fill="black"/>
<path d="M95.2205 171.211H244.072C244.072 169.798 243.511 168.443 242.513 167.445C241.514 166.446 240.159 165.885 238.747 165.885H100.554C99.1405 165.885 97.7851 166.446 96.7852 167.444C95.7852 168.443 95.2224 169.797 95.2205 171.211V171.211Z" fill="#263238"/>
<defs>
<linearGradient id="paint0_linear" x1="243.238" y1="9.3877" x2="243.238" y2="133.892" gradientUnits="userSpaceOnUse">
<stop stop-color="#23036A"/>
<stop offset="1" stop-color="#8468F5"/>
</linearGradient>
<linearGradient id="paint1_linear" x1="243.25" y1="33.7656" x2="243.25" y2="109.523" gradientUnits="userSpaceOnUse">
<stop stop-color="#23036A"/>
<stop offset="1" stop-color="#8468F5"/>
</linearGradient>
<linearGradient id="paint2_linear" x1="115.832" y1="79.0488" x2="115.832" y2="144.955" gradientUnits="userSpaceOnUse">
<stop stop-color="#23036A"/>
<stop offset="1" stop-color="#8468F5"/>
</linearGradient>
<linearGradient id="paint3_linear" x1="119.681" y1="77.4404" x2="119.681" y2="79.9313" gradientUnits="userSpaceOnUse">
<stop stop-color="#23036A"/>
<stop offset="1" stop-color="#8468F5"/>
</linearGradient>
<linearGradient id="paint4_linear" x1="192.259" y1="42.3076" x2="192.259" y2="43.0107" gradientUnits="userSpaceOnUse">
<stop stop-color="#23036A"/>
<stop offset="1" stop-color="#8468F5"/>
</linearGradient>
</defs>
</svg>
