<svg width="63" height="31" viewBox="0 0 63 31" fill="none" xmlns="http://www.w3.org/2000/svg">
<path d="M19.401 21.6502C20.4343 21.5254 21.2182 20.4866 21.1825 19.2399C21.147 17.9933 20.2561 16.996 19.1872 16.996H19.116C18.0113 17.0375 17.1562 18.1179 17.1919 19.4061C17.2275 20.0294 17.4413 20.5696 17.7619 20.9436C16.5505 23.7279 14.6977 25.764 11.9185 27.4678C10.03 28.6313 8.07034 29.0469 6.11067 28.7561C4.50723 28.5067 3.26014 27.6757 2.47614 26.3042C1.33601 24.2681 1.22915 22.0656 2.19122 19.8632C2.86825 18.2841 3.93706 17.1206 4.61409 16.5388C4.47158 15.9986 4.25775 15.0844 4.15089 14.4196C-1.01566 18.7829 -0.481142 24.6836 1.08664 27.4678C2.26242 29.5456 4.64975 30.8338 7.28645 30.8338C7.99903 30.8338 8.71161 30.7506 9.42429 30.543C13.9851 29.504 17.4414 26.3458 19.401 21.6502V21.6502ZM25.6722 16.4973C22.9642 12.7989 18.9735 10.7628 14.4127 10.7628H13.8426C13.5219 10.0148 12.8449 9.51605 12.0967 9.51605H12.0253C10.9209 9.55763 10.0658 10.638 10.1013 11.9263C10.137 13.1729 11.0277 14.1702 12.0967 14.1702H12.1679C12.9517 14.1287 13.6288 13.5469 13.9138 12.7573H14.5552C17.2632 12.7573 19.8286 13.6715 22.1447 15.4584C23.9262 16.8298 25.209 18.6167 25.9215 20.7774C26.5273 22.5228 26.4916 24.2265 25.8502 25.681C24.8526 27.8833 23.178 29.0885 20.9688 29.0885C19.5436 29.0885 18.1896 28.5897 17.4769 28.2157C17.085 28.6313 16.3723 29.2961 15.8735 29.7118C17.4057 30.5428 18.9735 31 20.47 31C23.8906 31 26.4204 28.7975 27.3825 26.5952C28.4157 24.1849 28.3444 20.0294 25.6722 16.4973V16.4973ZM7.57148 22.3564C7.60714 23.6031 8.49789 24.6004 9.56681 24.6004H9.63812C10.7427 24.5589 11.5978 23.4784 11.5621 22.1902C11.5266 20.9435 10.6357 19.9463 9.56681 19.9463H9.49561C9.42429 19.9463 9.31733 19.9463 9.24623 19.9877C7.78531 17.162 7.17959 14.0871 7.39342 10.7626C7.53583 8.26934 8.24851 6.10844 9.49561 4.32154C10.5289 2.784 12.5242 2.03602 13.8783 1.99456C17.6551 1.9114 19.2584 7.39661 19.3654 9.59909C19.8286 9.72371 20.6125 10.0147 21.147 10.2224C20.7193 3.49065 17.1562 0 13.7357 0C10.5289 0 7.57148 2.70109 6.39559 6.69034C4.75661 12.0094 5.82553 17.1206 7.82086 21.1514C7.64279 21.4422 7.53583 21.8994 7.57148 22.3565V22.3564Z" fill="#37474F"/>
<path d="M28.74 21V13.9H31.88C32.2067 13.9 32.5067 13.9667 32.78 14.1C33.06 14.2333 33.3 14.4133 33.5 14.64C33.7067 14.8667 33.8633 15.12 33.97 15.4C34.0833 15.68 34.14 15.9667 34.14 16.26C34.14 16.7133 34.0233 17.13 33.79 17.51C33.5633 17.89 33.2533 18.1633 32.86 18.33L34.48 21H32.96L31.5 18.62H30.12V21H28.74ZM30.12 17.41H31.85C32.11 17.41 32.3233 17.3 32.49 17.08C32.6633 16.8533 32.75 16.58 32.75 16.26C32.75 16.04 32.7033 15.8433 32.61 15.67C32.5167 15.4967 32.3967 15.36 32.25 15.26C32.11 15.16 31.9567 15.11 31.79 15.11H30.12V17.41ZM40.8204 19.79V21H35.8904V13.9H40.7304V15.11H37.2704V16.82H40.2604V17.94H37.2704V19.79H40.8204ZM44.3263 13.9H45.7263L48.3363 21H46.9163L46.2563 19.23H43.7763L43.1262 21H41.7063L44.3263 13.9ZM46.0063 18.26L45.0263 15.33L44.0063 18.26H46.0063ZM48.9116 17.4C48.9116 16.9667 48.9882 16.54 49.1416 16.12C49.3016 15.7 49.5316 15.32 49.8316 14.98C50.1316 14.64 50.4982 14.37 50.9316 14.17C51.3649 13.9633 51.8582 13.86 52.4116 13.86C53.0582 13.86 53.6216 14.0033 54.1016 14.29C54.5816 14.5767 54.9382 14.95 55.1716 15.41L54.1116 16.14C53.9916 15.8733 53.8349 15.6633 53.6416 15.51C53.4482 15.3567 53.2382 15.2467 53.0116 15.18C52.7916 15.1133 52.5782 15.08 52.3716 15.08C52.0249 15.08 51.7216 15.15 51.4616 15.29C51.2082 15.43 50.9949 15.6133 50.8216 15.84C50.6482 16.0667 50.5182 16.32 50.4316 16.6C50.3516 16.88 50.3116 17.16 50.3116 17.44C50.3116 17.86 50.3982 18.2533 50.5716 18.62C50.7449 18.98 50.9882 19.2733 51.3016 19.5C51.6149 19.7267 51.9782 19.84 52.3916 19.84C52.6049 19.84 52.8249 19.8033 53.0516 19.73C53.2849 19.6567 53.4982 19.54 53.6916 19.38C53.8849 19.22 54.0349 19.0133 54.1416 18.76L55.2716 19.41C55.1249 19.7633 54.8949 20.0633 54.5816 20.31C54.2682 20.55 53.9149 20.7367 53.5216 20.87C53.1282 20.9967 52.7382 21.06 52.3516 21.06C51.8449 21.06 51.3816 20.9567 50.9616 20.75C50.5482 20.5367 50.1882 20.2567 49.8816 19.91C49.5749 19.5567 49.3349 19.1633 49.1616 18.73C48.9949 18.29 48.9116 17.8467 48.9116 17.4ZM62.007 15.11H59.737V21H58.367V15.11H56.097V13.9H62.007V15.11Z" fill="#2E4B48"/>
</svg>
