<svg width="209" height="402" viewBox="0 0 209 402" fill="none" xmlns="http://www.w3.org/2000/svg">
<path d="M204.507 56.0544V377.274C204.507 388.31 195.575 397.241 184.537 397.241H56.0572C45.0185 397.241 36.0872 388.31 36.0872 377.274V56.0544C36.0872 45.0178 45.0185 36.0868 56.0572 36.0868H184.537C195.576 36.0868 204.507 45.0178 204.507 56.0544Z" fill="url(#paint0_linear)" stroke="#2F4949" stroke-width="8.01939"/>
<path d="M31.8691 63.7318C49.4698 63.7318 63.7381 49.4649 63.7381 31.8659C63.7381 14.2668 49.4698 0 31.8691 0C14.2683 0 0 14.2668 0 31.8659C0 49.4649 14.2683 63.7318 31.8691 63.7318Z" fill="url(#paint1_linear)"/>
<path d="M40.6985 42.2451H44.0204V13.6661H40.6985V42.2451Z" fill="white"/>
<path d="M33.7794 42.2285H37.1012V21.988H33.7794V42.2285Z" fill="white"/>
<path d="M26.9983 42.2256H30.3202L30.3202 17.937H26.9983L26.9983 42.2256Z" fill="white"/>
<path d="M20.2521 42.2451H23.574L23.574 13.6661H20.2521L20.2521 42.2451Z" fill="white"/>
<path d="M13.4717 42.248H16.7936L16.7936 25.7096H13.4717L13.4717 42.248Z" fill="white"/>
<path d="M13.4946 44.9441H48.0627V13.6318H47.8897V44.8057H13.4946V44.9441Z" fill="white"/>
<path d="M157.424 54.7892C159.584 54.7892 161.334 53.0387 161.334 50.8794C161.334 48.7202 159.584 46.9697 157.424 46.9697C155.265 46.9697 153.514 48.7202 153.514 50.8794C153.514 53.0387 155.265 54.7892 157.424 54.7892Z" fill="white"/>
<path d="M172.546 54.7892C174.705 54.7892 176.456 53.0387 176.456 50.8794C176.456 48.7202 174.705 46.9697 172.546 46.9697C170.386 46.9697 168.635 48.7202 168.635 50.8794C168.635 53.0387 170.386 54.7892 172.546 54.7892Z" fill="white"/>
<path d="M187.667 54.7892C189.827 54.7892 191.578 53.0387 191.578 50.8794C191.578 48.7202 189.827 46.9697 187.667 46.9697C185.508 46.9697 183.757 48.7202 183.757 50.8794C183.757 53.0387 185.508 54.7892 187.667 54.7892Z" fill="white"/>
<ellipse cx="121.943" cy="187.945" rx="73.827" ry="73.3823" fill="#E5EEEE"/>
<path d="M115.527 264.029C125.336 265.991 141.291 250.422 147.438 238.255C147.83 237.47 146.261 228.836 144.822 218.239C143.907 211.828 143.122 204.632 142.86 198.091C142.86 196.783 101.926 209.735 101.926 209.735C101.926 209.735 106.503 223.341 106.896 234.854C106.896 235.77 106.896 236.685 106.765 237.601C106.765 237.732 106.765 237.863 106.765 237.994C106.111 243.096 105.98 262.066 115.527 264.029Z" fill="#AD6359"/>
<path d="M110.95 237.994C109.381 238.124 107.942 238.124 106.765 237.994C106.765 237.863 106.765 237.732 106.765 237.601C106.896 236.685 107.027 235.9 106.896 234.854C106.504 223.341 101.926 209.735 101.926 209.735C101.926 209.735 135.145 199.137 141.684 198.091C140.768 205.679 135.275 236.554 110.95 237.994Z" fill="#263238"/>
<path d="M153.062 157.533C156.2 172.578 144.822 214.051 133.706 222.555C117.489 234.853 92.6411 234.068 82.7018 214.967C73.024 196.389 88.8485 142.488 101.142 135.031C119.19 123.91 148.354 135.292 153.062 157.533Z" fill="#AD6359"/>
<path d="M110.426 181.477C110.426 181.346 110.557 181.608 110.557 181.739C109.772 184.486 109.249 187.888 111.473 189.458C111.603 189.458 111.473 189.588 111.342 189.588C108.465 188.411 109.119 183.963 110.426 181.477Z" fill="#263238"/>
<path d="M113.695 179.253C118.272 180.169 116.18 189.196 111.995 188.411C107.81 187.626 109.902 178.468 113.695 179.253Z" fill="#263238"/>
<path d="M93.1633 177.159C93.1633 177.028 92.9018 177.29 92.9018 177.42C92.3787 180.299 91.2016 183.439 88.4552 183.831C88.3245 183.831 88.3245 183.962 88.4552 183.962C91.594 184.093 93.0325 179.906 93.1633 177.159Z" fill="#263238"/>
<path d="M91.3326 173.627C86.8861 172.188 84.4013 181.345 88.5863 182.523C92.6405 183.831 94.9945 174.804 91.3326 173.627Z" fill="#263238"/>
<path d="M117.751 178.336C116.443 178.074 115.266 177.681 114.089 177.42C112.65 177.027 111.473 176.897 110.427 175.719C109.904 175.065 110.035 173.887 110.558 173.364C111.866 172.056 113.697 172.056 115.397 172.448C117.228 172.841 118.666 173.626 119.843 175.196C121.02 176.504 119.451 178.597 117.751 178.336Z" fill="#263238"/>
<path d="M88.8478 168.132C90.1556 168.262 91.3326 168.132 92.6404 168.001C94.079 168.001 95.256 168.001 96.5638 167.085C97.2177 166.562 97.3485 165.384 96.9562 164.73C96.0407 163.16 94.2098 162.768 92.3789 162.768C90.4172 162.768 88.9786 163.291 87.4092 164.468C86.1014 165.777 87.0169 168.132 88.8478 168.132Z" fill="#263238"/>
<path d="M107.027 207.38C106.242 207.903 105.326 208.688 104.28 208.557C103.234 208.426 102.188 207.772 101.403 207.118C101.272 207.118 101.272 207.118 101.272 207.249C101.795 208.557 103.103 209.473 104.542 209.604C105.85 209.735 106.765 208.688 107.288 207.641C107.419 207.38 107.157 207.249 107.027 207.38Z" fill="#263238"/>
<path d="M105.981 198.223C103.888 200.316 101.142 201.101 98.526 201.101C97.349 201.101 96.172 200.839 94.995 200.447C94.7334 200.447 94.6026 200.316 94.3411 200.185C94.0795 200.054 93.9487 200.054 93.6872 199.923C93.4256 199.793 93.2948 199.531 93.2948 199.138C93.2948 199.008 93.2948 199.008 93.4256 198.877V198.615C93.8179 196.391 94.8642 193.12 94.8642 193.12C93.9487 193.382 89.5022 194.298 89.7637 193.12C92.5101 183.832 95.5181 173.496 100.095 164.861C100.226 164.6 100.749 164.731 100.619 164.992C98.3953 174.019 94.6026 182.654 92.1178 191.681C93.5564 191.42 95.7797 191.027 96.9567 191.289C97.2182 191.42 94.995 197.569 94.8642 198.615C94.8642 198.615 94.8642 198.615 94.8642 198.746C98.3953 200.054 101.403 199.531 105.588 197.961C105.981 197.699 106.242 197.961 105.981 198.223Z" fill="#263238"/>
<path d="M144.953 194.557C144.953 194.557 160.124 172.055 159.47 158.58C159.208 152.431 151.1 147.982 151.1 147.982C151.1 147.982 153.977 140.787 147.438 133.984C140.638 126.919 123.244 127.573 123.244 127.573C123.244 127.573 112.781 110.696 96.5645 116.453C80.3477 122.078 89.7639 140.656 89.7639 140.656C89.7639 140.656 83.4865 148.637 97.48 155.832C111.081 162.897 139.722 158.056 139.722 158.056C139.722 158.056 136.714 172.447 138.676 187.493C139.461 192.988 144.953 194.557 144.953 194.557Z" fill="#263238"/>
<path d="M120.498 127.704C124.029 126.396 127.952 126.003 131.745 126.265C135.145 126.396 138.545 127.05 141.684 128.358C147.308 130.713 152.146 135.161 152.8 141.572C153.062 144.712 152.146 147.852 150.185 150.337C150.054 150.468 149.923 150.337 150.054 150.207C153.977 145.889 152.408 138.694 148.746 134.638C144.692 130.059 138.153 128.097 132.268 127.573C128.344 127.181 124.421 127.704 120.498 128.227C120.367 128.097 120.236 127.704 120.498 127.704Z" fill="#263238"/>
<path d="M84.7944 123.518C86.3637 119.07 90.2872 116.453 94.6029 115.276C99.5726 113.967 104.935 114.491 109.643 116.584C114.482 118.677 118.405 122.21 121.544 126.396C121.674 126.527 121.413 126.658 121.413 126.527C115.789 119.201 106.635 114.622 97.2185 116.192C93.0336 116.846 88.8486 118.808 86.6253 122.602C84.6636 126.135 84.7944 130.844 86.3637 134.508C88.3254 139.087 92.1181 142.619 96.0415 145.236C96.1723 145.236 96.0415 145.497 95.9107 145.366C91.9873 143.011 88.4562 140.133 86.1022 136.208C84.1405 132.283 83.3558 127.704 84.7944 123.518Z" fill="#263238"/>
<path d="M93.9487 156.355C100.095 159.365 107.027 160.673 113.827 160.804C121.02 161.065 128.082 160.28 135.014 158.972C139.068 158.187 143.122 157.271 147.176 156.225C147.307 156.225 147.307 156.355 147.176 156.486C140.114 158.972 132.79 161.065 125.336 162.112C118.405 163.028 111.342 162.766 104.542 160.934C100.88 159.888 97.2182 158.449 93.9487 156.355C93.9487 156.355 93.8179 156.486 93.9487 156.355Z" fill="#263238"/>
<path d="M109.381 198.091C114.482 198.745 119.713 195.997 121.675 191.026C124.159 185.139 121.282 178.336 115.266 175.85C109.381 173.364 102.581 176.242 100.096 182.26C97.611 188.148 100.488 194.951 106.504 197.437C107.55 197.698 108.466 197.96 109.381 198.091ZM112.389 176.635C113.174 176.766 113.959 177.027 114.743 177.289C119.844 179.382 122.329 185.27 120.236 190.372C118.144 195.474 112.258 197.96 107.158 195.867C102.058 193.773 99.5727 187.886 101.665 182.784C103.496 178.466 107.943 175.981 112.389 176.635Z" fill="#EBEBEB"/>
<path d="M83.7477 191.156C88.1943 191.81 92.7716 187.885 94.341 181.998C95.1256 178.989 94.9949 175.98 94.0794 173.494C93.0332 170.878 91.2022 169.177 88.979 168.523C86.7557 167.869 84.2709 168.523 82.0476 170.354C79.9551 172.055 78.3858 174.672 77.6011 177.55C76.0317 183.699 78.3858 189.717 82.9631 191.025C83.2246 191.156 83.4862 191.156 83.7477 191.156ZM87.8019 169.962C87.9327 169.962 88.1943 169.962 88.3251 170.093C90.156 170.616 91.5946 171.924 92.3793 174.148C93.2947 176.372 93.2947 178.989 92.6408 181.606C91.2022 186.97 87.0173 190.502 83.2246 189.586C79.432 188.54 77.4703 183.437 78.9089 178.073C79.5628 175.457 81.0014 173.102 82.8323 171.663C84.5324 170.354 86.2326 169.7 87.8019 169.962Z" fill="#EBEBEB"/>
<path d="M100.357 183.567L101.664 182.652C100.357 180.82 96.9563 177.811 93.4253 180.035L94.2099 181.343C97.3487 179.381 100.226 183.437 100.357 183.567Z" fill="#EBEBEB"/>
<path d="M149.661 199.529L151.231 199.137C151.1 198.482 149.531 192.203 146.392 190.764C143.384 189.455 122.721 186.054 121.936 185.923L121.674 187.493C127.56 188.409 143.515 191.156 145.738 192.203C147.7 193.249 149.269 197.828 149.661 199.529Z" fill="#EBEBEB"/>
<path d="M138.415 192.203C138.415 192.203 149.4 179.643 155.155 183.699C160.909 187.755 151.754 206.725 144.169 208.687C136.584 210.65 134.753 203.716 134.753 203.716L138.415 192.203Z" fill="#AD6359"/>
<path d="M152.408 189.062C152.539 189.062 152.539 189.193 152.408 189.324C147.046 190.894 143.907 195.211 141.553 199.921C143.253 198.22 145.477 197.435 147.831 199.397C147.961 199.528 147.831 199.659 147.7 199.659C145.607 199.005 144.169 199.136 142.469 200.706C141.292 201.752 140.507 203.192 139.592 204.5C139.33 204.892 138.545 204.631 138.676 204.107V203.976C139.33 197.566 145.346 188.931 152.408 189.062Z" fill="#263238"/>
<path d="M83.348 289.096H81.9678V278.629H83.348V289.096ZM85.9875 281.577L85.2327 281.059C85.6784 280.436 85.9084 279.78 85.9228 279.09V278.054H87.2383V278.989C87.2335 279.468 87.1137 279.947 86.8789 280.427C86.6488 280.901 86.3517 281.284 85.9875 281.577ZM88.1943 281.577L87.4396 281.059C87.8852 280.436 88.1153 279.78 88.1297 279.09V278.054H89.4451V278.989C89.4403 279.468 89.3205 279.947 89.0857 280.427C88.8557 280.901 88.5586 281.284 88.1943 281.577ZM92.3147 281.318L92.3507 282.181C92.9209 281.51 93.6901 281.174 94.6581 281.174C95.746 281.174 96.4864 281.591 96.8793 282.425C97.1381 282.051 97.4736 281.749 97.8857 281.519C98.3026 281.289 98.7938 281.174 99.3593 281.174C101.065 281.174 101.933 282.077 101.961 283.884V289.096H100.632V283.963C100.632 283.407 100.505 282.993 100.251 282.72C99.9967 282.442 99.5702 282.303 98.9711 282.303C98.4775 282.303 98.0678 282.451 97.7419 282.748C97.4161 283.041 97.2268 283.436 97.174 283.934V289.096H95.837V283.999C95.837 282.868 95.2835 282.303 94.1765 282.303C93.3043 282.303 92.7077 282.674 92.3866 283.417V289.096H91.0568V281.318H92.3147ZM113.89 286.364H109.505L108.52 289.096H107.097L111.094 278.629H112.301L116.305 289.096H114.889L113.89 286.364ZM109.922 285.228H113.48L111.697 280.333L109.922 285.228ZM117.32 285.142C117.32 283.949 117.603 282.99 118.168 282.267C118.734 281.538 119.474 281.174 120.39 281.174C121.3 281.174 122.021 281.486 122.553 282.109V278.054H123.883V289.096H122.661L122.596 288.262C122.064 288.914 121.324 289.239 120.375 289.239C119.474 289.239 118.739 288.87 118.168 288.132C117.603 287.394 117.32 286.431 117.32 285.243V285.142ZM118.65 285.293C118.65 286.175 118.832 286.865 119.196 287.363C119.561 287.862 120.064 288.111 120.706 288.111C121.549 288.111 122.165 287.732 122.553 286.975V283.403C122.156 282.669 121.544 282.303 120.72 282.303C120.068 282.303 119.561 282.554 119.196 283.057C118.832 283.561 118.65 284.306 118.65 285.293ZM129.319 289.239C128.265 289.239 127.407 288.894 126.746 288.204C126.084 287.509 125.754 286.582 125.754 285.422V285.178C125.754 284.406 125.9 283.719 126.192 283.115C126.489 282.506 126.901 282.032 127.428 281.692C127.96 281.347 128.535 281.174 129.154 281.174C130.165 281.174 130.951 281.507 131.511 282.173C132.072 282.839 132.352 283.793 132.352 285.034V285.588H127.083C127.103 286.355 127.325 286.975 127.752 287.45C128.183 287.919 128.729 288.154 129.391 288.154C129.86 288.154 130.258 288.058 130.584 287.866C130.91 287.675 131.195 287.421 131.44 287.105L132.252 287.737C131.6 288.739 130.622 289.239 129.319 289.239ZM129.154 282.267C128.617 282.267 128.166 282.463 127.802 282.856C127.438 283.244 127.213 283.791 127.126 284.495H131.023V284.395C130.984 283.719 130.802 283.196 130.476 282.827C130.15 282.454 129.71 282.267 129.154 282.267ZM136.48 287.148L138.291 281.318H139.715L136.588 290.296C136.104 291.59 135.335 292.237 134.28 292.237L134.029 292.215L133.533 292.122V291.044L133.892 291.073C134.343 291.073 134.692 290.981 134.942 290.799C135.196 290.617 135.404 290.284 135.567 289.8L135.862 289.009L133.087 281.318H134.539L136.48 287.148ZM144.173 289.239C143.119 289.239 142.261 288.894 141.6 288.204C140.938 287.509 140.608 286.582 140.608 285.422V285.178C140.608 284.406 140.754 283.719 141.046 283.115C141.343 282.506 141.755 282.032 142.282 281.692C142.814 281.347 143.389 281.174 144.008 281.174C145.019 281.174 145.805 281.507 146.365 282.173C146.926 282.839 147.206 283.793 147.206 285.034V285.588H141.937C141.957 286.355 142.179 286.975 142.606 287.45C143.037 287.919 143.584 288.154 144.245 288.154C144.714 288.154 145.112 288.058 145.438 287.866C145.764 287.675 146.049 287.421 146.294 287.105L147.106 287.737C146.454 288.739 145.476 289.239 144.173 289.239ZM144.008 282.267C143.471 282.267 143.02 282.463 142.656 282.856C142.292 283.244 142.067 283.791 141.981 284.495H145.877V284.395C145.838 283.719 145.656 283.196 145.33 282.827C145.004 282.454 144.564 282.267 144.008 282.267ZM150.141 281.318L150.177 282.181C150.747 281.51 151.516 281.174 152.484 281.174C153.572 281.174 154.312 281.591 154.705 282.425C154.964 282.051 155.3 281.749 155.712 281.519C156.129 281.289 156.62 281.174 157.185 281.174C158.891 281.174 159.759 282.077 159.788 283.884V289.096H158.458V283.963C158.458 283.407 158.331 282.993 158.077 282.72C157.823 282.442 157.396 282.303 156.797 282.303C156.304 282.303 155.894 282.451 155.568 282.748C155.242 283.041 155.053 283.436 155 283.934V289.096H153.663V283.999C153.663 282.868 153.11 282.303 152.003 282.303C151.13 282.303 150.534 282.674 150.213 283.417V289.096H148.883V281.318H150.141ZM163.383 289.096H162.053V281.318H163.383V289.096ZM161.945 279.255C161.945 279.039 162.01 278.857 162.14 278.709C162.274 278.56 162.47 278.486 162.729 278.486C162.988 278.486 163.184 278.56 163.318 278.709C163.453 278.857 163.52 279.039 163.52 279.255C163.52 279.47 163.453 279.65 163.318 279.794C163.184 279.938 162.988 280.01 162.729 280.01C162.47 280.01 162.274 279.938 162.14 279.794C162.01 279.65 161.945 279.47 161.945 279.255ZM76.1467 306.096C76.07 305.942 76.0077 305.669 75.9598 305.276C75.3416 305.918 74.6036 306.239 73.7457 306.239C72.979 306.239 72.3488 306.024 71.8552 305.593C71.3664 305.156 71.122 304.605 71.122 303.939C71.122 303.129 71.4287 302.502 72.0421 302.056C72.6603 301.605 73.5277 301.38 74.6443 301.38H75.9382V300.769C75.9382 300.304 75.7992 299.935 75.5213 299.662C75.2433 299.384 74.8336 299.245 74.2921 299.245C73.8176 299.245 73.4199 299.365 73.0988 299.605C72.7777 299.844 72.6172 300.134 72.6172 300.474H71.2801C71.2801 300.086 71.4167 299.712 71.6899 299.353C71.9678 298.989 72.3416 298.701 72.8113 298.49C73.2857 298.28 73.8057 298.174 74.3711 298.174C75.2673 298.174 75.9693 298.399 76.4773 298.85C76.9853 299.296 77.2489 299.911 77.268 300.697V304.277C77.268 304.991 77.3591 305.559 77.5412 305.981V306.096H76.1467ZM73.9398 305.082C74.3568 305.082 74.7521 304.974 75.1259 304.759C75.4997 304.543 75.7705 304.263 75.9382 303.918V302.322H74.8959C73.2665 302.322 72.4518 302.799 72.4518 303.752C72.4518 304.169 72.5908 304.495 72.8688 304.73C73.1467 304.965 73.5037 305.082 73.9398 305.082ZM90.1668 304.263L91.662 298.318H92.9919L90.7275 306.096H89.6493L87.7587 300.201L85.9185 306.096H84.8403L82.5831 298.318H83.9058L85.4369 304.14L87.2484 298.318H88.3194L90.1668 304.263ZM97.716 306.239C96.6618 306.239 95.8039 305.894 95.1426 305.204C94.4813 304.509 94.1506 303.582 94.1506 302.422V302.178C94.1506 301.406 94.2968 300.719 94.5891 300.115C94.8862 299.506 95.2984 299.032 95.8255 298.692C96.3574 298.347 96.9325 298.174 97.5507 298.174C98.5619 298.174 99.3478 298.507 99.9085 299.173C100.469 299.839 100.75 300.793 100.75 302.034V302.588H95.4805C95.4996 303.355 95.7225 303.975 96.149 304.45C96.5803 304.919 97.1266 305.154 97.7879 305.154C98.2576 305.154 98.6553 305.058 98.9812 304.866C99.3071 304.675 99.5922 304.421 99.8366 304.105L100.649 304.737C99.9972 305.739 99.0195 306.239 97.716 306.239ZM97.5507 299.267C97.014 299.267 96.5635 299.463 96.1993 299.856C95.8351 300.244 95.6099 300.791 95.5236 301.495H99.4197V301.395C99.3814 300.719 99.1992 300.196 98.8734 299.827C98.5475 299.454 98.1066 299.267 97.5507 299.267ZM109.018 302.293C109.018 303.482 108.744 304.438 108.198 305.161C107.652 305.88 106.919 306.239 105.998 306.239C105.016 306.239 104.256 305.892 103.72 305.197L103.655 306.096H102.433V295.054H103.763V299.173C104.3 298.507 105.04 298.174 105.984 298.174C106.928 298.174 107.669 298.531 108.205 299.245C108.747 299.959 109.018 300.937 109.018 302.178V302.293ZM107.688 302.142C107.688 301.236 107.513 300.537 107.163 300.043C106.813 299.55 106.31 299.303 105.653 299.303C104.776 299.303 104.146 299.71 103.763 300.525V303.889C104.17 304.704 104.805 305.111 105.668 305.111C106.305 305.111 106.801 304.864 107.156 304.37C107.51 303.877 107.688 303.134 107.688 302.142ZM114.304 302.142C114.304 300.949 114.587 299.99 115.152 299.267C115.718 298.538 116.458 298.174 117.373 298.174C118.284 298.174 119.005 298.486 119.537 299.109V295.054H120.867V306.096H119.645L119.58 305.262C119.048 305.914 118.308 306.239 117.359 306.239C116.458 306.239 115.722 305.87 115.152 305.132C114.587 304.394 114.304 303.431 114.304 302.243V302.142ZM115.634 302.293C115.634 303.175 115.816 303.865 116.18 304.363C116.544 304.862 117.047 305.111 117.69 305.111C118.533 305.111 119.149 304.732 119.537 303.975V300.403C119.139 299.669 118.528 299.303 117.704 299.303C117.052 299.303 116.544 299.554 116.18 300.057C115.816 300.561 115.634 301.306 115.634 302.293ZM126.303 306.239C125.248 306.239 124.391 305.894 123.729 305.204C123.068 304.509 122.737 303.582 122.737 302.422V302.178C122.737 301.406 122.883 300.719 123.176 300.115C123.473 299.506 123.885 299.032 124.412 298.692C124.944 298.347 125.519 298.174 126.137 298.174C127.149 298.174 127.934 298.507 128.495 299.173C129.056 299.839 129.336 300.793 129.336 302.034V302.588H124.067C124.086 303.355 124.309 303.975 124.736 304.45C125.167 304.919 125.713 305.154 126.375 305.154C126.844 305.154 127.242 305.058 127.568 304.866C127.894 304.675 128.179 304.421 128.423 304.105L129.236 304.737C128.584 305.739 127.606 306.239 126.303 306.239ZM126.137 299.267C125.601 299.267 125.15 299.463 124.786 299.856C124.422 300.244 124.197 300.791 124.11 301.495H128.006V301.395C127.968 300.719 127.786 300.196 127.46 299.827C127.134 299.454 126.693 299.267 126.137 299.267ZM133.485 304.291L135.412 298.318H136.77L133.981 306.096H132.968L130.15 298.318H131.509L133.485 304.291ZM141.315 306.239C140.261 306.239 139.403 305.894 138.741 305.204C138.08 304.509 137.749 303.582 137.749 302.422V302.178C137.749 301.406 137.896 300.719 138.188 300.115C138.485 299.506 138.897 299.032 139.424 298.692C139.956 298.347 140.531 298.174 141.15 298.174C142.161 298.174 142.947 298.507 143.507 299.173C144.068 299.839 144.348 300.793 144.348 302.034V302.588H139.079C139.098 303.355 139.321 303.975 139.748 304.45C140.179 304.919 140.725 305.154 141.387 305.154C141.856 305.154 142.254 305.058 142.58 304.866C142.906 304.675 143.191 304.421 143.435 304.105L144.248 304.737C143.596 305.739 142.618 306.239 141.315 306.239ZM141.15 299.267C140.613 299.267 140.162 299.463 139.798 299.856C139.434 300.244 139.209 300.791 139.122 301.495H143.019V301.395C142.98 300.719 142.798 300.196 142.472 299.827C142.146 299.454 141.705 299.267 141.15 299.267ZM147.477 306.096H146.147V295.054H147.477V306.096ZM149.397 302.135C149.397 301.373 149.546 300.688 149.843 300.079C150.145 299.47 150.562 299.001 151.094 298.67C151.631 298.339 152.242 298.174 152.927 298.174C153.986 298.174 154.841 298.541 155.493 299.274C156.15 300.007 156.478 300.982 156.478 302.2V302.293C156.478 303.05 156.332 303.731 156.04 304.335C155.752 304.934 155.337 305.401 154.796 305.736C154.259 306.072 153.641 306.239 152.941 306.239C151.887 306.239 151.032 305.873 150.375 305.14C149.723 304.406 149.397 303.436 149.397 302.228V302.135ZM150.735 302.293C150.735 303.156 150.933 303.848 151.331 304.37C151.734 304.893 152.27 305.154 152.941 305.154C153.617 305.154 154.154 304.89 154.552 304.363C154.949 303.831 155.148 303.089 155.148 302.135C155.148 301.282 154.944 300.592 154.537 300.065C154.135 299.533 153.598 299.267 152.927 299.267C152.27 299.267 151.741 299.528 151.338 300.05C150.936 300.573 150.735 301.32 150.735 302.293ZM164.854 302.293C164.854 303.477 164.583 304.43 164.042 305.154C163.5 305.878 162.767 306.239 161.842 306.239C160.898 306.239 160.155 305.94 159.614 305.341V309.086H158.284V298.318H159.499L159.563 299.181C160.105 298.51 160.857 298.174 161.82 298.174C162.755 298.174 163.493 298.526 164.034 299.231C164.581 299.935 164.854 300.915 164.854 302.171V302.293ZM163.524 302.142C163.524 301.265 163.337 300.573 162.963 300.065C162.59 299.557 162.077 299.303 161.425 299.303C160.62 299.303 160.016 299.66 159.614 300.374V304.09C160.011 304.799 160.62 305.154 161.439 305.154C162.077 305.154 162.582 304.902 162.956 304.399C163.335 303.891 163.524 303.139 163.524 302.142ZM169.916 306.239C168.862 306.239 168.004 305.894 167.342 305.204C166.681 304.509 166.35 303.582 166.35 302.422V302.178C166.35 301.406 166.497 300.719 166.789 300.115C167.086 299.506 167.498 299.032 168.025 298.692C168.557 298.347 169.132 298.174 169.751 298.174C170.762 298.174 171.548 298.507 172.108 299.173C172.669 299.839 172.949 300.793 172.949 302.034V302.588H167.68C167.7 303.355 167.922 303.975 168.349 304.45C168.78 304.919 169.326 305.154 169.988 305.154C170.457 305.154 170.855 305.058 171.181 304.866C171.507 304.675 171.792 304.421 172.036 304.105L172.849 304.737C172.197 305.739 171.219 306.239 169.916 306.239ZM169.751 299.267C169.214 299.267 168.763 299.463 168.399 299.856C168.035 300.244 167.81 300.791 167.723 301.495H171.62V301.395C171.581 300.719 171.399 300.196 171.073 299.827C170.747 299.454 170.306 299.267 169.751 299.267ZM178.392 299.511C178.191 299.478 177.973 299.461 177.738 299.461C176.866 299.461 176.274 299.832 175.963 300.575V306.096H174.633V298.318H175.927L175.948 299.216C176.384 298.522 177.003 298.174 177.803 298.174C178.062 298.174 178.258 298.208 178.392 298.275V299.511Z" fill="#2E4B48"/>
<circle cx="120.291" cy="372.328" r="11.4563" fill="#E5EEEE"/>
<circle cx="120.291" cy="372.329" r="8.01939" fill="#2E4B48"/>
<defs>
<linearGradient id="paint0_linear" x1="248.85" y1="339.231" x2="-239.524" y2="-126.475" gradientUnits="userSpaceOnUse">
<stop stop-color="#2CCC9C"/>
<stop offset="1" stop-color="#4ABBBA"/>
</linearGradient>
<linearGradient id="paint1_linear" x1="105.579" y1="117.738" x2="16.7494" y2="14.2213" gradientUnits="userSpaceOnUse">
<stop stop-color="#05A660"/>
<stop offset="1" stop-color="#49BCBB"/>
</linearGradient>
</defs>
</svg>
